<svg width="32" height="32" viewBox="0 0 32 32" fill="none" xmlns="http://www.w3.org/2000/svg">
<path d="M28.0003 32.0003H16.0003C15.6467 32.0003 15.3076 31.8599 15.0575 31.6098C14.8075 31.3598 14.667 31.0206 14.667 30.667V28.0003C14.667 27.6467 14.8075 27.3076 15.0575 27.0575C15.3076 26.8075 15.6467 26.667 16.0003 26.667H28.0003C28.3539 26.667 28.6931 26.8075 28.9431 27.0575C29.1932 27.3076 29.3337 27.6467 29.3337 28.0003V30.667C29.3337 31.0206 29.1932 31.3598 28.9431 31.6098C28.6931 31.8599 28.3539 32.0003 28.0003 32.0003Z" fill="#FFBC82"/>
<path d="M28.0003 0H4.00033C3.6467 0 3.30756 0.140475 3.05752 0.390523C2.80747 0.640572 2.66699 0.979711 2.66699 1.33333V4C2.66699 4.35362 2.80747 4.69276 3.05752 4.94281C3.30756 5.19286 3.6467 5.33333 4.00033 5.33333H28.0003C28.3539 5.33333 28.6931 5.19286 28.9431 4.94281C29.1932 4.69276 29.3337 4.35362 29.3337 4V1.33333C29.3337 0.979711 29.1932 0.640572 28.9431 0.390523C28.6931 0.140475 28.3539 0 28.0003 0Z" fill="#3C455C"/>
<path d="M28.0003 8H4.00033C3.6467 8 3.30756 8.14047 3.05752 8.39052C2.80747 8.64057 2.66699 8.97971 2.66699 9.33333V22.6667C2.66699 23.0203 2.80747 23.3594 3.05752 23.6095C3.30756 23.8595 3.6467 24 4.00033 24H28.0003C28.3539 24 28.6931 23.8595 28.9431 23.6095C29.1932 23.3594 29.3337 23.0203 29.3337 22.6667V9.33333C29.3337 8.97971 29.1932 8.64057 28.9431 8.39052C28.6931 8.14047 28.3539 8 28.0003 8Z" fill="#F08B33"/>
</svg>
