<svg width="32" height="32" viewBox="0 0 32 32" fill="none" xmlns="http://www.w3.org/2000/svg">
<path d="M11.9997 13.333H2.66634C2.31272 13.333 1.97358 13.1925 1.72353 12.9425C1.47348 12.6924 1.33301 12.3533 1.33301 11.9997V2.66634C1.33301 2.31272 1.47348 1.97358 1.72353 1.72353C1.97358 1.47348 2.31272 1.33301 2.66634 1.33301H11.9997C12.3533 1.33301 12.6924 1.47348 12.9425 1.72353C13.1925 1.97358 13.333 2.31272 13.333 2.66634V11.9997C13.333 12.3533 13.1925 12.6924 12.9425 12.9425C12.6924 13.1925 12.3533 13.333 11.9997 13.333Z" fill="#F08B33"/>
<path d="M11.9997 30.666H2.66634C2.31272 30.666 1.97358 30.5255 1.72353 30.2755C1.47348 30.0254 1.33301 29.6863 1.33301 29.3327V19.9993C1.33301 19.6457 1.47348 19.3066 1.72353 19.0565C1.97358 18.8065 2.31272 18.666 2.66634 18.666H11.9997C12.3533 18.666 12.6924 18.8065 12.9425 19.0565C13.1925 19.3066 13.333 19.6457 13.333 19.9993V29.3327C13.333 29.6863 13.1925 30.0254 12.9425 30.2755C12.6924 30.5255 12.3533 30.666 11.9997 30.666Z" fill="#F08B33"/>
<path d="M17.333 2.66602H30.6663V5.33268H17.333V2.66602Z" fill="#3C455C"/>
<path d="M30.6663 20H17.333V22.6667H30.6663V20Z" fill="#3C455C"/>
<path d="M30.6663 26.666H17.333V29.3327H30.6663V26.666Z" fill="#FFBC82"/>
<path d="M30.6663 9.33301H17.333V11.9997H30.6663V9.33301Z" fill="#FFBC82"/>
</svg>
