<svg width="223" height="206" viewBox="0 0 223 206" fill="none" xmlns="http://www.w3.org/2000/svg">
<path d="M158.256 202H112.464L40.464 107.536V202H0.720001V0.399986H40.464V89.392L109.584 0.399986H155.376L80.784 98.32L158.256 202Z" fill="#F08B33"/>
<path d="M215.06 198.544C210.26 203.344 204.5 205.744 197.78 205.744C191.06 205.744 185.3 203.344 180.5 198.544C175.7 193.744 173.3 187.984 173.3 181.264C173.3 174.544 175.7 168.784 180.5 163.984C185.3 159.184 191.06 156.784 197.78 156.784C204.5 156.784 210.26 159.184 215.06 163.984C219.86 168.784 222.26 174.544 222.26 181.264C222.26 187.984 219.86 193.744 215.06 198.544Z" fill="#3C455C"/>
</svg>
