<svg width="315" height="215" viewBox="0 0 315 215" fill="none" xmlns="http://www.w3.org/2000/svg">
<g clip-path="url(#clip0)">
<path d="M102.115 219.683C106.273 216.165 108.798 210.608 108.136 205.198C107.474 199.788 103.372 194.815 98.0506 193.666C92.7295 192.517 86.6639 195.697 85.0477 200.902C84.1583 190.868 83.1333 180.413 77.8054 171.868C72.981 164.13 64.6252 158.594 55.5694 157.603C46.5136 156.613 36.9789 160.354 31.3311 167.511C25.6834 174.668 24.3005 185.072 28.2561 193.289C31.17 199.342 36.5385 203.847 42.1633 207.512C60.3392 219.254 82.1387 224.03 103.551 220.959" fill="#F2F2F2"/>
<path d="M40.2862 160.562C47.7584 166.656 54.6133 173.472 60.7519 180.91C70.3587 192.512 78.1326 205.52 83.8028 219.481C84.2179 220.5 82.5663 220.943 82.1558 219.936C78.5499 211.109 74.0888 202.657 68.8364 194.702C60.6458 182.275 50.6113 171.17 39.0784 161.771C38.2257 161.076 39.4406 159.872 40.2862 160.562V160.562Z" fill="white"/>
<path d="M104.987 219.683C100.83 216.165 98.304 210.608 98.9663 205.198C99.6286 199.788 103.731 194.815 109.052 193.666C114.373 192.517 120.438 195.697 122.055 200.902C122.944 190.868 123.969 180.413 129.297 171.868C134.121 164.13 142.477 158.594 151.533 157.603C160.589 156.613 170.123 160.354 175.771 167.511C181.419 174.668 182.802 185.072 178.846 193.289C175.932 199.342 170.564 203.847 164.939 207.512C146.763 219.254 124.964 224.03 103.551 220.959" fill="#F2F2F2"/>
<path d="M166.815 160.562C159.343 166.656 152.488 173.472 146.35 180.91C136.743 192.512 128.969 205.52 123.299 219.481C122.884 220.5 124.535 220.943 124.946 219.936C134.223 197.247 149.034 177.249 168.023 161.771C168.876 161.076 167.661 159.872 166.815 160.562V160.562Z" fill="white"/>
<path d="M117.325 99.8662C125.016 99.8662 131.252 93.6226 131.252 85.9209C131.252 78.2191 125.016 71.9756 117.325 71.9756C109.633 71.9756 103.397 78.2191 103.397 85.9209C103.397 93.6226 109.633 99.8662 117.325 99.8662Z" fill="#F2F2F2"/>
<path d="M74.3841 37.8496H170.338V43.1062H86.6336C81.712 43.1062 76.8387 44.0768 72.2918 45.9627C67.7449 47.8485 63.6134 50.6126 60.1334 54.0972C56.6533 57.5818 53.8928 61.7185 52.0094 66.2714C50.126 70.8242 49.1567 75.7039 49.1567 80.6318V140.353H38.6571C38.193 140.353 37.7479 140.168 37.4198 139.84C37.0916 139.511 36.9072 139.066 36.9072 138.601V75.3752C36.9072 70.4473 37.8766 65.5676 39.76 61.0148C41.6434 56.4619 44.4039 52.3251 47.884 48.8406C51.364 45.356 55.4954 42.5919 60.0423 40.7061C64.5893 38.8202 69.4626 37.8496 74.3841 37.8496Z" fill="#F2F2F2"/>
<path d="M92.8398 219.976V140.128H116.202V219.976C116.201 220.513 115.988 221.027 115.609 221.407C115.23 221.786 114.716 222 114.18 222H94.8615C94.3255 222 93.8117 221.786 93.4327 221.407C93.0536 221.027 92.8404 220.513 92.8398 219.976Z" fill="#3F3D56"/>
<path d="M31.9648 138.554V73.625C31.9765 63.2888 36.0824 53.3792 43.3817 46.0704C50.681 38.7616 60.5776 34.6504 70.9004 34.6387H169.889V140.803H34.2112C33.6156 140.802 33.0447 140.565 32.6235 140.143C32.2024 139.722 31.9655 139.15 31.9648 138.554ZM168.99 35.5384H70.9004C60.8158 35.5498 51.1476 39.5662 44.0167 46.7063C36.8859 53.8465 32.8748 63.5273 32.8634 73.625V138.554C32.8638 138.911 33.0059 139.254 33.2586 139.507C33.5112 139.76 33.8538 139.903 34.2112 139.903H168.99V35.5384Z" fill="#3F3D56"/>
<path d="M117.325 93.1185C115.181 93.1161 113.125 92.2622 111.609 90.7442C110.093 89.2262 109.24 87.1681 109.238 85.0213V26.9909C109.237 26.6331 109.095 26.29 108.843 26.037C108.59 25.784 108.247 25.6417 107.89 25.6413H76.4416C75.8461 25.6406 75.2751 25.4035 74.854 24.9818C74.4329 24.5601 74.196 23.9884 74.1953 23.3921V2.24924C74.196 1.65292 74.4329 1.08121 74.854 0.659547C75.2751 0.237883 75.8461 0.000690534 76.4416 0H123.165C123.761 0.000682218 124.332 0.237874 124.753 0.65954C125.174 1.08121 125.411 1.65291 125.411 2.24924V85.0213C125.409 87.1681 124.556 89.2262 123.04 90.7442C121.524 92.2622 119.469 93.1161 117.325 93.1185Z" fill="#F08B33"/>
<path d="M173.483 33.7383C180.26 33.7241 186.766 36.4063 191.568 41.1949C196.371 45.9834 199.077 52.4861 199.091 59.2724V133.187H249.409C251.43 133.183 253.37 133.982 254.802 135.411C256.235 136.839 257.042 138.778 257.046 140.802H147.875V59.2724C147.889 52.4861 150.595 45.9834 155.398 41.1949C160.2 36.4063 166.706 33.7241 173.483 33.7383Z" fill="#3F3D56"/>
<path d="M167.337 75.83L172.64 97.7628L276.366 72.6201L271.064 50.6873C271 50.4191 270.869 50.1715 270.684 49.9674C270.499 49.7634 270.265 49.6094 270.004 49.5199C269.812 49.4522 269.609 49.4216 269.405 49.4296L209.447 18.3443C209.095 18.1646 208.692 18.1166 208.308 18.209C207.924 18.3013 207.586 18.5278 207.355 18.8478L178.458 59.1963L167.565 74.4114C167.545 74.4381 167.531 74.4687 167.524 74.5011C167.517 74.5336 167.517 74.5672 167.525 74.5996C167.303 74.9691 167.236 75.4112 167.337 75.83Z" fill="white"/>
<path d="M167.525 74.5996C167.53 74.6281 167.541 74.6553 167.557 74.6797C167.572 74.7041 167.593 74.7252 167.616 74.7417C167.644 74.761 167.676 74.7743 167.71 74.7809C167.743 74.7876 167.778 74.7873 167.811 74.7801C167.865 74.7657 167.913 74.7327 167.945 74.6869L167.983 74.635L168.55 73.8408L178.851 59.4617L207.739 19.1224C207.904 18.8938 208.145 18.732 208.419 18.6662C208.693 18.6005 208.981 18.6353 209.231 18.7642L268.725 49.6088L269.259 49.8862C269.281 49.8953 269.303 49.9031 269.325 49.9095C269.366 49.9022 269.406 49.8982 269.447 49.8978C269.503 49.8791 269.55 49.8397 269.578 49.7877C269.592 49.7603 269.601 49.7303 269.604 49.6995C269.607 49.6686 269.604 49.6375 269.594 49.6079C269.585 49.5783 269.57 49.5507 269.551 49.5269C269.531 49.503 269.507 49.4833 269.479 49.4689L269.406 49.4296L209.447 18.3443C209.096 18.1646 208.692 18.1166 208.308 18.209C207.925 18.3013 207.587 18.5278 207.355 18.8478L178.459 59.1963L167.565 74.4114C167.545 74.4381 167.531 74.4687 167.525 74.5011C167.518 74.5336 167.518 74.5672 167.525 74.5996Z" fill="#3F3D56"/>
<path d="M198.678 76.8357L200.987 77.0921L218.123 78.9929L229.483 80.2522L230.154 80.3269L244.329 69.2405L244.872 68.8158L248.22 66.1976L260.132 56.8829L260.203 56.2286L264.44 17.9402C264.498 17.413 264.344 16.8844 264.013 16.4702C263.682 16.056 263.201 15.7901 262.675 15.7308L206.132 9.45912C205.606 9.40155 205.078 9.55523 204.664 9.88652C204.251 10.2178 203.985 10.6997 203.926 11.2267L200.938 38.2344L199.281 53.208L197.798 66.6038L197.111 72.8248L196.91 74.6268C196.853 75.1542 197.007 75.6829 197.338 76.0969C197.669 76.5109 198.151 76.7766 198.678 76.8357Z" fill="#E6E6E6"/>
<path d="M214.215 43.2739L238.708 45.9901L247.393 46.9531C247.777 46.9956 248.165 46.9621 248.536 46.8545C248.906 46.7468 249.252 46.5671 249.553 46.3257C249.854 46.0842 250.105 45.7857 250.291 45.4473C250.477 45.1088 250.595 44.7369 250.637 44.353C250.68 43.969 250.646 43.5804 250.539 43.2094C250.431 42.8383 250.252 42.4921 250.011 42.1905C249.769 41.889 249.471 41.6379 249.133 41.4516C248.795 41.2654 248.424 41.1477 248.04 41.1051L237.237 39.9071L214.864 37.4231C214.089 37.3374 213.312 37.5632 212.704 38.0509C212.096 38.5386 211.706 39.2483 211.62 40.0239C211.534 40.7995 211.759 41.5776 212.245 42.187C212.732 42.7965 213.441 43.1874 214.215 43.2739Z" fill="white"/>
<path d="M212.821 54.123C212.884 54.1343 212.947 54.1456 213.012 54.1518L241.443 57.3057L246.191 57.8333C246.965 57.9191 247.742 57.6932 248.351 57.2054C248.959 56.7175 249.349 56.0075 249.435 55.2318C249.521 54.456 249.295 53.6778 248.808 53.0686C248.321 52.4593 247.612 52.0689 246.837 51.9831L239.973 51.2227L217.451 48.7238L213.661 48.3033C212.903 48.2186 212.142 48.4324 211.538 48.8995C210.935 49.3665 210.537 50.0502 210.428 50.806C210.319 51.5619 210.507 52.3305 210.954 52.9495C211.401 53.5685 212.07 53.9893 212.821 54.123V54.123Z" fill="white"/>
<path d="M209.603 63.7424C209.836 64.1298 210.155 64.4581 210.536 64.7019C210.916 64.9458 211.347 65.0985 211.796 65.1484L223.449 66.4407L244.204 68.743L244.208 68.7419L244.872 68.816L248.22 66.1978C248.241 65.9989 248.241 65.7984 248.221 65.5995C248.15 64.9316 247.854 64.3079 247.381 63.8315C246.908 63.3551 246.287 63.0546 245.621 62.9796L242.738 62.6589L231.301 61.3916L223.072 60.4777L212.442 59.2981C211.897 59.2378 211.347 59.3312 210.852 59.5678C210.358 59.8044 209.939 60.1748 209.644 60.6371C209.348 61.0994 209.188 61.6352 209.181 62.184C209.174 62.7327 209.32 63.2726 209.603 63.7424L209.603 63.7424Z" fill="white"/>
<path d="M225.971 30.013L232.065 30.6889L234.757 30.9882L238.823 31.4387C239.598 31.5246 240.375 31.2987 240.983 30.8108C241.592 30.3229 241.982 29.613 242.067 28.8372C242.153 28.0614 241.927 27.2833 241.44 26.674C240.953 26.0648 240.244 25.6743 239.469 25.5885L226.62 24.1645C225.846 24.0783 225.069 24.3037 224.46 24.7912C223.852 25.2786 223.462 25.9882 223.375 26.7637C223.289 27.5393 223.514 28.3174 224.001 28.9267C224.488 29.5361 225.197 29.9268 225.971 30.013V30.013Z" fill="white"/>
<path d="M176.141 46.3038L183.57 77.0347L195.971 79.3956L207.441 81.5822L219.748 83.927L223.681 84.6763C223.911 84.7199 224.148 84.7139 224.375 84.6587C224.603 84.6035 224.816 84.5004 225.001 84.3562L228.156 81.889L230.153 80.3271L244.329 69.2407L235.315 31.9602C235.226 31.5893 235.032 31.252 234.757 30.9889C234.515 30.7561 234.218 30.5881 233.894 30.5003C233.57 30.4124 233.23 30.4077 232.903 30.4864L177.613 43.8885C177.098 44.0137 176.654 44.3384 176.378 44.7912C176.102 45.2441 176.016 45.7881 176.141 46.3038Z" fill="#F08B33"/>
<path d="M193.177 70.7511C193.361 71.5092 193.838 72.1632 194.503 72.5695C195.168 72.9759 195.967 73.1014 196.724 72.9185L229.167 65.0544C229.924 64.8698 230.577 64.3923 230.983 63.7264C231.389 63.0606 231.514 62.2608 231.332 61.5025C231.324 61.4649 231.313 61.4278 231.3 61.3915C231.093 60.6604 230.611 60.0379 229.956 59.6546C229.3 59.2712 228.522 59.1567 227.785 59.3351L195.341 67.1992C194.584 67.3834 193.931 67.8609 193.525 68.5268C193.119 69.1928 192.994 69.9927 193.177 70.7511Z" fill="white"/>
<path d="M195.971 79.3956L207.441 81.5822L231.74 75.6925C232.497 75.5089 233.151 75.0315 233.556 74.3654C233.962 73.6993 234.087 72.899 233.904 72.1406C233.721 71.3822 233.244 70.7278 232.579 70.3213C231.913 69.9148 231.114 69.7896 230.357 69.9732L197.914 77.8373C197.236 78.0003 196.638 78.4011 196.23 78.9671C196.132 79.1023 196.045 79.2457 195.971 79.3956Z" fill="white"/>
<path d="M219.748 83.9267L223.68 84.676C223.911 84.7196 224.147 84.7136 224.375 84.6584C224.603 84.6032 224.816 84.5 225.001 84.3559L228.156 81.8887L219.748 83.9267Z" fill="white"/>
<path d="M199.714 54.2727C199.898 55.0307 200.375 55.6847 201.04 56.0911C201.705 56.4974 202.504 56.6229 203.262 56.44L215.828 53.3941C216.584 53.2095 217.237 52.7319 217.643 52.0661C218.049 51.4003 218.174 50.6005 217.992 49.8422C217.894 49.4347 217.71 49.0532 217.451 48.7238C217.103 48.2785 216.635 47.9428 216.102 47.7568C215.569 47.5708 214.994 47.5423 214.445 47.6748L201.879 50.7208C201.121 50.9045 200.468 51.3818 200.062 52.0479C199.656 52.714 199.531 53.5142 199.714 54.2726V54.2727Z" fill="white"/>
<path d="M207.44 81.5825L219.749 83.9279L223.68 84.6775C223.91 84.7205 224.147 84.7143 224.374 84.6591C224.602 84.604 224.815 84.5012 225 84.3575L228.157 81.8897L227.049 82.1583L224.711 83.9851C224.578 84.0877 224.426 84.1611 224.263 84.2005C224.101 84.2399 223.932 84.2444 223.768 84.2137L220.857 83.6593L208.548 81.314L207.44 81.5825ZM244.207 68.7443L244.326 69.24L244.872 68.8149L244.207 68.7443ZM207.44 81.5825L219.749 83.9279L223.68 84.6775C223.91 84.7205 224.147 84.7143 224.374 84.6591C224.602 84.604 224.815 84.5012 225 84.3575L228.157 81.8897L227.049 82.1583L224.711 83.9851C224.578 84.0877 224.426 84.1611 224.263 84.2005C224.101 84.2399 223.932 84.2444 223.768 84.2137L220.857 83.6593L208.548 81.314L207.44 81.5825ZM207.44 81.5825L219.749 83.9279L223.68 84.6775C223.91 84.7205 224.147 84.7143 224.374 84.6591C224.602 84.604 224.815 84.5012 225 84.3575L228.157 81.8897L227.049 82.1583L224.711 83.9851C224.578 84.0877 224.426 84.1611 224.263 84.2005C224.101 84.2399 223.932 84.2444 223.768 84.2137L220.857 83.6593L208.548 81.314L207.44 81.5825ZM167.337 75.8304L181.227 133.281C181.33 133.705 181.597 134.071 181.969 134.299C182.342 134.526 182.789 134.597 183.213 134.494L283.741 110.127C284.165 110.024 284.531 109.757 284.758 109.384C284.985 109.011 285.055 108.563 284.953 108.138L271.064 50.6877C271 50.4195 270.869 50.1719 270.684 49.9678C270.499 49.7637 270.265 49.6098 270.004 49.5203C269.812 49.4526 269.609 49.4219 269.405 49.43C269.168 49.4368 268.935 49.4981 268.725 49.6091C268.628 49.6552 268.536 49.7121 268.452 49.7788L260.202 56.2295L248.22 65.6014L244.206 68.7409L244.207 68.7443L244.203 68.7451L229.483 80.2513L227.049 82.1583L224.711 83.9851C224.578 84.0877 224.426 84.1611 224.263 84.2005C224.101 84.2399 223.932 84.2444 223.768 84.2137L220.857 83.6593L208.548 81.314L196.228 78.9677L169.245 73.8261C169.015 73.7804 168.777 73.7856 168.55 73.8411C168.243 73.9162 167.964 74.0779 167.746 74.3071C167.663 74.3971 167.589 74.4952 167.525 74.5999C167.303 74.9694 167.236 75.4115 167.337 75.8304ZM207.44 81.5825L219.749 83.9279L223.68 84.6775C223.91 84.7205 224.147 84.7143 224.374 84.6591C224.602 84.604 224.815 84.5012 225 84.3575L228.157 81.8897L227.049 82.1583L224.711 83.9851C224.578 84.0877 224.426 84.1611 224.263 84.2005C224.101 84.2399 223.932 84.2444 223.768 84.2137L220.857 83.6593L208.548 81.314L207.44 81.5825ZM207.44 81.5825L219.749 83.9279L223.68 84.6775C223.91 84.7205 224.147 84.7143 224.374 84.6591C224.602 84.604 224.815 84.5012 225 84.3575L228.157 81.8897L227.049 82.1583L224.711 83.9851C224.578 84.0877 224.426 84.1611 224.263 84.2005C224.101 84.2399 223.932 84.2444 223.768 84.2137L220.857 83.6593L208.548 81.314L207.44 81.5825ZM207.44 81.5825L219.749 83.9279L223.68 84.6775C223.91 84.7205 224.147 84.7143 224.374 84.6591C224.602 84.604 224.815 84.5012 225 84.3575L228.157 81.8897L227.049 82.1583L224.711 83.9851C224.578 84.0877 224.426 84.1611 224.263 84.2005C224.101 84.2399 223.932 84.2444 223.768 84.2137L220.857 83.6593L208.548 81.314L207.44 81.5825Z" fill="white"/>
<path d="M207.44 81.5825L219.749 83.9278L223.68 84.6775C223.91 84.7205 224.147 84.7143 224.374 84.6591C224.602 84.604 224.815 84.5012 225 84.3575L228.157 81.8897L227.049 82.1583L224.711 83.9851C224.578 84.0877 224.426 84.1611 224.263 84.2005C224.101 84.2399 223.932 84.2444 223.768 84.2137L220.857 83.6593L208.548 81.314L207.44 81.5825ZM244.207 68.7443L244.326 69.24L244.872 68.8149L244.207 68.7443ZM207.44 81.5825L219.749 83.9278L223.68 84.6775C223.91 84.7205 224.147 84.7143 224.374 84.6591C224.602 84.604 224.815 84.5012 225 84.3575L228.157 81.8897L227.049 82.1583L224.711 83.9851C224.578 84.0877 224.426 84.1611 224.263 84.2005C224.101 84.2399 223.932 84.2444 223.768 84.2137L220.857 83.6593L208.548 81.314L207.44 81.5825ZM207.44 81.5825L219.749 83.9278L223.68 84.6775C223.91 84.7205 224.147 84.7143 224.374 84.6591C224.602 84.604 224.815 84.5012 225 84.3575L228.157 81.8897L227.049 82.1583L224.711 83.9851C224.578 84.0877 224.426 84.1611 224.263 84.2005C224.101 84.2399 223.932 84.2444 223.768 84.2137L220.857 83.6593L208.548 81.314L207.44 81.5825ZM167.982 74.6354L168.043 74.6812C168.054 74.6645 168.071 74.6495 168.085 74.6319C168.221 74.4901 168.39 74.3842 168.577 74.324C168.764 74.2637 168.963 74.2508 169.156 74.2865L195.971 79.3941L207.44 81.5825L219.749 83.9278L223.68 84.6775C223.91 84.7205 224.147 84.7142 224.374 84.6591C224.602 84.6039 224.815 84.5012 225 84.3575L228.157 81.8897L227.049 82.1583L224.711 83.9851C224.578 84.0877 224.426 84.1611 224.263 84.2005C224.101 84.2399 223.932 84.2444 223.768 84.2136L220.857 83.6593L208.548 81.314L196.228 78.9677L169.245 73.8261C169.015 73.7804 168.777 73.7856 168.55 73.8411L167.982 74.6354ZM167.337 75.8304L181.227 133.281C181.33 133.705 181.597 134.071 181.969 134.299C182.342 134.526 182.789 134.597 183.213 134.494L283.741 110.127C284.165 110.024 284.531 109.757 284.758 109.384C284.985 109.011 285.055 108.563 284.953 108.138L271.064 50.6877C271 50.4195 270.869 50.1719 270.684 49.9678C270.499 49.7637 270.265 49.6098 270.004 49.5203C269.812 49.4526 269.609 49.4219 269.405 49.43C269.168 49.4368 268.935 49.4981 268.725 49.6091C268.628 49.6552 268.536 49.7121 268.452 49.7788L260.202 56.2295L248.22 65.6014L244.206 68.7409L244.207 68.7443L244.203 68.7451L229.483 80.2513L227.049 82.1583L224.711 83.9851C224.578 84.0877 224.426 84.1611 224.263 84.2005C224.101 84.2399 223.932 84.2444 223.768 84.2137L220.857 83.6593L208.548 81.314L196.228 78.9677L169.245 73.8261C169.015 73.7804 168.777 73.7856 168.55 73.8411C168.243 73.9162 167.964 74.0779 167.746 74.3071C167.663 74.3971 167.589 74.4952 167.525 74.5999C167.303 74.9694 167.236 75.4115 167.337 75.8304ZM167.795 75.7194C167.754 75.55 167.752 75.3736 167.788 75.2031C167.823 75.0326 167.897 74.8723 168.003 74.7339C168.012 74.7136 168.026 74.6956 168.043 74.6813C168.054 74.6645 168.071 74.6495 168.085 74.6319C168.221 74.4901 168.39 74.3842 168.577 74.324C168.764 74.2637 168.963 74.2508 169.156 74.2865L195.971 79.3941L207.44 81.5825L219.749 83.9278L223.68 84.6775C223.91 84.7205 224.147 84.7143 224.374 84.6591C224.602 84.604 224.815 84.5012 225 84.3575L228.157 81.8897L230.154 80.3279L244.326 69.2399L244.872 68.8149L248.218 66.1979L260.131 56.8819L268.744 50.1469C268.875 50.0447 269.027 49.9715 269.188 49.9323C269.233 49.9213 269.279 49.9138 269.325 49.9098C269.365 49.9025 269.406 49.8986 269.447 49.8981C269.585 49.8968 269.721 49.9192 269.852 49.9642C270.037 50.0289 270.204 50.1391 270.336 50.2847C270.468 50.4303 270.562 50.6067 270.609 50.7979L284.499 108.248C284.535 108.399 284.542 108.555 284.518 108.708C284.494 108.861 284.44 109.008 284.36 109.14C284.279 109.272 284.173 109.387 284.048 109.479C283.923 109.57 283.781 109.636 283.631 109.672L183.103 134.039C182.8 134.112 182.48 134.062 182.214 133.899C181.948 133.735 181.758 133.473 181.685 133.17L167.795 75.7194ZM207.44 81.5825L219.749 83.9279L223.68 84.6775C223.91 84.7205 224.147 84.7143 224.374 84.6591C224.602 84.604 224.815 84.5012 225 84.3575L228.157 81.8897L227.049 82.1583L224.711 83.9851C224.578 84.0877 224.426 84.1611 224.263 84.2005C224.101 84.2399 223.932 84.2444 223.768 84.2137L220.857 83.6593L208.548 81.314L207.44 81.5825ZM207.44 81.5825L219.749 83.9279L223.68 84.6775C223.91 84.7205 224.147 84.7143 224.374 84.6591C224.602 84.604 224.815 84.5012 225 84.3575L228.157 81.8897L227.049 82.1583L224.711 83.9851C224.578 84.0877 224.426 84.1611 224.263 84.2005C224.101 84.2399 223.932 84.2444 223.768 84.2137L220.857 83.6593L208.548 81.314L207.44 81.5825ZM207.44 81.5825L219.749 83.9279L223.68 84.6775C223.91 84.7205 224.147 84.7143 224.374 84.6591C224.602 84.604 224.815 84.5012 225 84.3575L228.157 81.8897L227.049 82.1583L224.711 83.9851C224.578 84.0877 224.426 84.1611 224.263 84.2005C224.101 84.2399 223.932 84.2444 223.768 84.2137L220.857 83.6593L208.548 81.314L207.44 81.5825Z" fill="#3F3D56"/>
<path d="M257.541 98.839C257.315 97.8976 257.47 96.9047 257.974 96.0781C258.478 95.2516 259.288 94.6588 260.228 94.4299L272.916 91.3544C273.855 91.1303 274.844 91.288 275.667 91.7928C276.49 92.2977 277.08 93.1086 277.307 94.0479C277.534 94.9872 277.38 95.9783 276.879 96.8042C276.377 97.63 275.57 98.2233 274.632 98.454L261.944 101.529C261.004 101.756 260.013 101.6 259.187 101.096C258.362 100.592 257.77 99.7799 257.541 98.839Z" fill="#F08B33"/>
<path d="M117.325 88.1699C119.061 88.1699 120.469 86.7601 120.469 85.021C120.469 83.2819 119.061 81.8721 117.325 81.8721C115.588 81.8721 114.18 83.2819 114.18 85.021C114.18 86.7601 115.588 88.1699 117.325 88.1699Z" fill="white"/>
</g>
<defs>
<clipPath id="clip0">
<rect width="315" height="215" fill="white"/>
</clipPath>
</defs>
</svg>
