<svg width="318" height="222" viewBox="0 0 318 222" fill="none" xmlns="http://www.w3.org/2000/svg">
<g clip-path="url(#clip0)">
<path d="M106.229 83.6939L58.2189 73.3483L57.5949 73.2141C57.2772 73.1452 56.9464 73.1672 56.6407 73.2777C56.3349 73.3882 56.0666 73.5827 55.8666 73.8387C55.6665 74.0948 55.5429 74.402 55.5099 74.7252C55.4769 75.0483 55.5359 75.3742 55.68 75.6653L74.7419 114.335C74.8652 114.583 75.0465 114.799 75.2705 114.963C75.4945 115.126 75.7547 115.234 76.029 115.276C76.3042 115.319 76.5857 115.294 76.8492 115.204C77.1126 115.114 77.3501 114.961 77.5412 114.759L90.7811 100.813C90.8753 100.711 90.9895 100.63 91.1166 100.574C91.2437 100.519 91.3809 100.49 91.5196 100.491C91.7082 100.488 91.8938 100.536 92.0568 100.631C92.2198 100.726 92.354 100.863 92.445 101.028L95.1569 106.039C95.33 106.373 95.61 106.64 95.9524 106.796C96.2948 106.953 96.6798 106.991 97.0461 106.904L97.0596 106.901C97.4304 106.822 97.7641 106.622 98.0069 106.331C98.2497 106.04 98.3876 105.676 98.3984 105.298L98.9417 93.7307C98.9482 93.5864 98.9842 93.445 99.0477 93.3151C99.1158 93.1867 99.2083 93.0726 99.3199 92.9794L106.958 86.7159C107.209 86.51 107.397 86.2377 107.5 85.93C107.604 85.6224 107.618 85.2919 107.542 84.9765C107.466 84.661 107.302 84.3734 107.07 84.1466C106.838 83.9198 106.546 83.7629 106.229 83.6939H106.229ZM106.522 86.1835L98.8837 92.447C98.7842 92.5271 98.694 92.6181 98.6149 92.7183L58.1321 74.3778C58.0964 74.3612 58.0591 74.3482 58.0209 74.3388C57.8647 74.2986 57.6994 74.3142 57.5536 74.3829C57.4077 74.4515 57.2904 74.5689 57.222 74.7148C57.1537 74.8607 57.1385 75.0259 57.1791 75.1818C57.2197 75.3376 57.3136 75.4745 57.4445 75.5685L90.7304 99.9937C90.5615 100.081 90.409 100.198 90.2796 100.337L77.0398 114.283C76.9249 114.404 76.7826 114.495 76.6248 114.549C76.467 114.603 76.2986 114.618 76.1337 114.593C75.9688 114.568 75.8123 114.504 75.6777 114.406C75.543 114.307 75.4341 114.178 75.3601 114.029L56.2983 75.3591C56.213 75.1844 56.1787 74.9892 56.199 74.7959C56.2194 74.6027 56.2937 74.419 56.4135 74.2658C56.5333 74.1127 56.6938 73.9962 56.8766 73.9297C57.0594 73.8632 57.2572 73.8493 57.4475 73.8897L58.0863 74.0276L106.081 84.3695C106.272 84.4108 106.447 84.5047 106.586 84.6407C106.726 84.7767 106.824 84.9493 106.87 85.1385C106.916 85.3278 106.908 85.5262 106.846 85.711C106.785 85.8958 106.672 86.0595 106.522 86.1835Z" fill="#F08B33"/>
<path d="M116.462 221.641C112.155 220.479 106.914 215.646 108.036 209.004C108.593 205.709 110.729 203.577 112.943 202.198C116.006 200.291 119.495 199.572 122.857 199.39C126.735 199.181 130.608 199.709 134.457 200.268C138.257 200.819 142.057 201.313 145.873 201.614C160.808 202.784 175.834 201.67 190.431 198.309C194.034 197.478 197.615 196.504 201.175 195.386C204.548 194.394 207.846 193.163 211.044 191.701C215.276 189.671 222.158 185.722 221.597 178.407C221.299 174.529 219.013 171.431 216.707 169.273C213.918 166.663 210.691 164.946 207.531 163.279C192.831 155.524 178.102 147.861 163.388 140.153C159.953 138.354 156.496 136.603 153.164 134.495C150.043 132.521 146.937 130.228 144.426 127.058C142.233 124.289 140.273 120.571 140.342 116.416C140.399 112.97 141.969 110.046 143.892 107.86C148.652 102.449 155.386 100.255 161.472 99.1058C169.033 97.678 176.704 97.6854 184.27 96.3067C190.379 95.1935 196.907 93.0445 201.875 88.0087C203.977 85.9604 205.464 83.3658 206.167 80.518C206.802 77.5353 206.493 74.4294 205.285 71.6293C203.939 68.4179 201.792 65.8597 199.534 63.7649C196.941 61.3921 194 59.4293 190.813 57.9444C184.103 54.7501 177.046 53.0869 170.173 50.6355C166.802 49.4333 163.397 48.115 160.266 46.05C157.615 44.3005 154.726 41.9423 153.25 38.4355C150.206 31.2002 157.468 26.8881 161.583 25.2547C164.38 24.195 167.261 23.3711 170.196 22.7918C170.816 22.6587 170.553 21.4214 169.935 21.5539C166.846 22.1555 163.819 23.0385 160.891 24.1919C158.41 25.2218 155.85 26.5754 153.9 28.9045C153.013 29.9561 152.357 31.1824 151.975 32.5038C151.592 33.8251 151.493 35.212 151.682 36.5744C152.198 40.046 154.442 42.7209 156.55 44.6584C159.337 47.2206 162.515 48.8938 165.737 50.2578C169.131 51.6943 172.596 52.8139 176.06 53.912C182.983 56.1063 190.216 58.0618 196.465 62.7311C200.836 65.9975 206.775 72.1217 205.321 79.7128C204.675 83.0826 202.715 85.7171 200.6 87.6549C198.116 89.8635 195.251 91.6035 192.145 92.7903C178.297 98.3575 163.056 94.3763 149.565 101.938C144.978 104.509 139.407 109.19 139.362 116.555C139.339 120.381 140.874 123.89 142.772 126.663C145.045 129.985 147.989 132.441 150.984 134.495C154.137 136.577 157.412 138.471 160.79 140.166C164.481 142.103 168.172 144.036 171.864 145.968L194.269 157.705L205.401 163.537C208.799 165.316 212.284 167.024 215.373 169.637C217.902 171.776 220.891 175.286 220.633 179.644C220.428 183.105 218.126 185.602 216.023 187.272C213.3 189.434 210.24 190.833 207.197 191.995C203.686 193.336 200.117 194.448 196.541 195.447C189.217 197.492 181.742 198.954 174.187 199.818C166.65 200.685 159.058 200.968 151.477 200.664C147.647 200.51 143.823 200.204 140.005 199.746C136.069 199.272 132.15 198.543 128.205 198.219C124.635 197.926 121.032 197.994 117.517 198.935C114.582 199.721 111.482 201.121 109.254 203.854C107.612 205.94 106.79 208.553 106.942 211.203C107.093 213.847 108.036 216.384 109.65 218.485C111.289 220.631 113.592 222.176 116.201 222.879C116.817 223.045 117.08 221.808 116.462 221.641L116.462 221.641Z" fill="#E6E6E6"/>
<path d="M218.535 185.816C222.572 185.816 225.845 182.547 225.845 178.514C225.845 174.481 222.572 171.212 218.535 171.212C214.498 171.212 211.226 174.481 211.226 178.514C211.226 182.547 214.498 185.816 218.535 185.816Z" fill="#E6E6E6"/>
<path d="M205.199 82.898C209.236 82.898 212.509 79.6287 212.509 75.596C212.509 71.5632 209.236 68.2939 205.199 68.2939C201.162 68.2939 197.89 71.5632 197.89 75.596C197.89 79.6287 201.162 82.898 205.199 82.898Z" fill="#E6E6E6"/>
<path d="M188.673 0.305169L168.377 9.11931C167.48 9.50979 166.776 10.2395 166.417 11.1484C166.059 12.0574 166.076 13.0712 166.465 13.9675L172.767 28.4499C173.158 29.3453 173.888 30.0494 174.798 30.4075C175.708 30.7656 176.723 30.7485 177.62 30.3601L197.917 21.5459C198.813 21.1554 199.518 20.4257 199.876 19.5168C200.235 18.6079 200.218 17.594 199.829 16.6977L193.527 2.21536C193.136 1.31988 192.405 0.615863 191.495 0.257757C190.585 -0.100349 189.571 -0.0832974 188.673 0.305169ZM189.514 2.23614C189.635 2.184 189.762 2.14733 189.893 2.12701L183.031 15.0601L168.937 11.2072C169.025 11.1456 169.119 11.093 169.217 11.0503L189.514 2.23614ZM197.076 19.6149L176.78 28.4291C176.395 28.5956 175.961 28.6029 175.571 28.4494C175.181 28.2959 174.868 27.9942 174.7 27.6104L168.454 13.2581L183.289 17.3135C183.52 17.3767 183.765 17.3593 183.985 17.2644C184.205 17.1694 184.386 17.0025 184.498 16.7911L191.68 3.25424L197.896 17.5371C198.063 17.9213 198.07 18.3558 197.916 18.7453C197.763 19.1348 197.461 19.4476 197.076 19.6149Z" fill="#E6E6E6"/>
<path d="M165.909 125.927C176.115 125.927 184.389 117.662 184.389 107.465C184.389 97.2694 176.115 89.0039 165.909 89.0039C155.702 89.0039 147.428 97.2694 147.428 107.465C147.428 117.662 155.702 125.927 165.909 125.927Z" fill="#F08B33"/>
<path d="M162.996 222.454H157.899C157.304 222.454 156.733 222.217 156.312 221.797C155.892 221.377 155.655 220.807 155.654 220.212V177.778C155.655 177.184 155.892 176.614 156.312 176.194C156.733 175.773 157.304 175.537 157.899 175.536H162.996C163.591 175.537 164.161 175.773 164.582 176.194C165.003 176.614 165.239 177.184 165.24 177.778V220.212C165.239 220.807 165.003 221.377 164.582 221.797C164.161 222.217 163.591 222.454 162.996 222.454Z" fill="#2F2E41"/>
<path d="M173.077 222.454H167.98C167.385 222.454 166.814 222.217 166.394 221.797C165.973 221.377 165.736 220.807 165.735 220.212V177.778C165.736 177.184 165.973 176.614 166.394 176.194C166.814 175.773 167.385 175.537 167.98 175.536H173.077C173.672 175.537 174.242 175.773 174.663 176.194C175.084 176.614 175.32 177.184 175.321 177.778V220.212C175.32 220.807 175.084 221.377 174.663 221.797C174.242 222.217 173.672 222.454 173.077 222.454Z" fill="#2F2E41"/>
<path d="M194.197 173.341C193.973 173.34 193.75 173.307 193.536 173.241C193.254 173.156 192.992 173.015 192.764 172.827C192.537 172.64 192.349 172.409 192.212 172.148L172.299 134.665C172.161 134.405 172.075 134.121 172.047 133.828C172.019 133.534 172.049 133.239 172.136 132.957C172.222 132.676 172.363 132.414 172.551 132.187C172.738 131.96 172.969 131.772 173.229 131.634L177.731 129.247C177.992 129.109 178.277 129.024 178.57 128.996C178.864 128.967 179.16 128.997 179.442 129.084C179.723 129.17 179.985 129.311 180.213 129.499C180.44 129.686 180.628 129.916 180.766 130.177L200.678 167.66C200.817 167.92 200.902 168.204 200.93 168.498C200.958 168.791 200.928 169.086 200.842 169.368C200.756 169.649 200.614 169.911 200.427 170.138C200.239 170.365 200.008 170.553 199.748 170.691L195.246 173.078C194.923 173.25 194.563 173.34 194.197 173.341Z" fill="#F08B33"/>
<path d="M152.745 138.792C152.475 138.792 152.208 138.743 151.956 138.648H151.956L112.218 123.651C111.942 123.547 111.69 123.39 111.475 123.188C111.26 122.987 111.088 122.745 110.967 122.477C110.846 122.208 110.779 121.919 110.77 121.624C110.761 121.33 110.81 121.037 110.914 120.762L112.712 115.999C112.924 115.443 113.348 114.994 113.891 114.75C114.433 114.506 115.051 114.486 115.608 114.696L155.345 129.689C155.901 129.9 156.35 130.323 156.595 130.864C156.84 131.405 156.861 132.021 156.652 132.578L154.851 137.341C154.688 137.768 154.4 138.135 154.024 138.394C153.648 138.653 153.201 138.792 152.745 138.792Z" fill="#F08B33"/>
<path d="M177.277 129.135H154.12C152.975 129.135 152.048 130.061 152.048 131.204V180.352C152.048 181.495 152.975 182.422 154.12 182.422H177.277C178.422 182.422 179.349 181.495 179.349 180.352V131.204C179.349 130.061 178.422 129.135 177.277 129.135Z" fill="#2F2E41"/>
<path d="M179.559 89.3863C180.645 91.7667 181.684 94.6437 180.516 97.1901C180.087 98.2187 179.282 99.0459 178.266 99.5039C177.061 99.9839 175.748 99.71 174.632 99.1297C172.281 97.9078 170.766 95.6375 168.668 94.082C167.713 93.3389 166.583 92.8525 165.386 92.6692C164.007 92.4896 162.638 92.8145 161.29 93.0654C159.855 93.3321 158.373 93.4729 157.045 92.7463C155.878 92.0644 154.964 91.0212 154.441 89.7745C154.168 89.1683 153.275 89.6938 153.547 90.2968C154.676 92.8 157.01 94.5058 159.815 94.3085C161.299 94.2041 162.733 93.7254 164.22 93.6568C165.576 93.612 166.906 94.0368 167.985 94.8592C170.289 96.4998 171.852 99.0193 174.495 100.211C175.742 100.773 177.171 101.007 178.485 100.523C179.619 100.083 180.564 99.2606 181.157 98.199C182.892 95.2155 181.778 91.7665 180.454 88.864C180.178 88.2588 179.284 88.7842 179.559 89.3863Z" fill="#2F2E41"/>
<path d="M167.951 113.63C166.809 113.598 165.388 113.559 164.294 112.76C163.968 112.512 163.7 112.197 163.509 111.835C163.319 111.473 163.209 111.074 163.189 110.665C163.169 110.375 163.217 110.084 163.328 109.815C163.44 109.546 163.612 109.307 163.831 109.115C164.403 108.633 165.237 108.52 166.138 108.784L165.205 101.979L165.89 101.886L166.985 109.885L166.414 109.623C165.752 109.32 164.842 109.165 164.277 109.642C164.138 109.767 164.03 109.922 163.961 110.095C163.892 110.268 163.864 110.455 163.879 110.641C163.896 110.945 163.978 111.242 164.12 111.511C164.262 111.781 164.46 112.017 164.701 112.203C165.553 112.824 166.686 112.905 167.97 112.941L167.951 113.63Z" fill="#2F2E41"/>
<path d="M161.822 102.565H158.103V103.255H161.822V102.565Z" fill="#2F2E41"/>
<path d="M173.562 102.565H169.843V103.255H173.562V102.565Z" fill="#2F2E41"/>
<path d="M152.016 138.486L135.685 133.512C135.176 133.357 134.746 133.011 134.485 132.548C134.223 132.085 134.15 131.538 134.281 131.023L136.188 123.519C136.263 123.222 136.403 122.946 136.598 122.71C136.793 122.474 137.038 122.285 137.315 122.154C137.592 122.024 137.895 121.957 138.201 121.958C138.507 121.959 138.809 122.027 139.086 122.158L155.284 129.85C155.797 130.044 156.212 130.434 156.438 130.934C156.665 131.434 156.683 132.003 156.491 132.516L154.689 137.28C154.494 137.794 154.104 138.209 153.603 138.436C153.101 138.662 152.531 138.68 152.016 138.486Z" fill="#2F2E41"/>
<path d="M172.593 134.241L179.597 149.796C179.815 150.281 180.212 150.663 180.705 150.864C181.199 151.064 181.75 151.067 182.246 150.872L189.457 148.035C189.741 147.923 189.998 147.749 190.207 147.526C190.417 147.303 190.575 147.036 190.669 146.745C190.763 146.454 190.791 146.146 190.752 145.843C190.712 145.54 190.606 145.249 190.441 144.991L180.756 129.912C180.498 129.428 180.058 129.066 179.533 128.905C179.008 128.744 178.441 128.797 177.956 129.053L173.453 131.44C172.967 131.698 172.604 132.138 172.443 132.663C172.282 133.188 172.336 133.756 172.593 134.241Z" fill="#2F2E41"/>
<path d="M106.229 83.6939L58.2189 73.3483L57.5949 73.2141C57.2772 73.1452 56.9464 73.1672 56.6407 73.2777C56.3349 73.3882 56.0666 73.5827 55.8666 73.8387C55.6665 74.0948 55.5429 74.402 55.5099 74.7252C55.4769 75.0483 55.5359 75.3742 55.68 75.6653L74.7419 114.335C74.8652 114.583 75.0465 114.799 75.2705 114.963C75.4945 115.126 75.7547 115.234 76.029 115.276C76.3042 115.319 76.5857 115.294 76.8492 115.204C77.1126 115.114 77.3501 114.961 77.5412 114.759L90.7811 100.813C90.8753 100.711 90.9895 100.63 91.1166 100.574C91.2437 100.519 91.3809 100.49 91.5196 100.491C91.7082 100.488 91.8938 100.536 92.0568 100.631C92.2198 100.726 92.354 100.863 92.445 101.028L95.1569 106.039C95.33 106.373 95.61 106.64 95.9524 106.796C96.2948 106.953 96.6798 106.991 97.0461 106.904L97.0596 106.901C97.4304 106.822 97.7641 106.622 98.0069 106.331C98.2497 106.04 98.3876 105.676 98.3984 105.298L98.9417 93.7307C98.9482 93.5864 98.9842 93.445 99.0477 93.3151C99.1158 93.1867 99.2083 93.0726 99.3199 92.9794L106.958 86.7159C107.209 86.51 107.397 86.2377 107.5 85.93C107.604 85.6224 107.618 85.2919 107.542 84.9765C107.466 84.661 107.302 84.3734 107.07 84.1466C106.838 83.9198 106.546 83.7629 106.229 83.6939H106.229ZM106.522 86.1835L98.8837 92.447C98.7842 92.5271 98.694 92.6181 98.6149 92.7183C98.5435 92.8075 98.4819 92.904 98.431 93.0063C98.3777 93.1109 98.3358 93.2208 98.3058 93.3343L98.3065 93.3376C98.2749 93.4558 98.2566 93.5772 98.2521 93.6994L97.709 105.266C97.7045 105.494 97.6226 105.713 97.4768 105.888C97.331 106.062 97.1301 106.182 96.907 106.228L96.9002 106.229C96.6804 106.284 96.4485 106.263 96.2423 106.169C96.036 106.076 95.8674 105.915 95.7639 105.714L93.0512 100.7C92.9115 100.442 92.7081 100.224 92.4603 100.066C92.2125 99.9091 91.9286 99.8176 91.6355 99.8007L91.6322 99.8014C91.5928 99.7996 91.5535 99.7976 91.515 99.7991C91.2415 99.7992 90.9722 99.866 90.7304 99.9937C90.5615 100.081 90.409 100.198 90.2796 100.337L77.0398 114.283C76.9249 114.404 76.7826 114.495 76.6248 114.549C76.4671 114.603 76.2986 114.618 76.1337 114.593C75.9688 114.568 75.8124 114.504 75.6777 114.406C75.543 114.307 75.4341 114.178 75.3601 114.029L56.2983 75.3591C56.213 75.1844 56.1787 74.9892 56.199 74.7959C56.2194 74.6027 56.2937 74.419 56.4135 74.2658C56.5333 74.1127 56.6938 73.9962 56.8766 73.9297C57.0594 73.8632 57.2572 73.8493 57.4475 73.8897L58.0863 74.0276L106.081 84.3695C106.272 84.4108 106.447 84.5047 106.586 84.6407C106.726 84.7767 106.824 84.9493 106.87 85.1385C106.916 85.3278 106.908 85.5262 106.846 85.711C106.785 85.8958 106.672 86.0595 106.522 86.1835Z" fill="#3F3D56"/>
<path d="M98.7675 92.7864L98.4822 93.4147L98.306 93.3371L98.3052 93.3337L57.8545 75.0109L91.6317 99.8009L91.635 99.8001L91.7244 99.8687L91.3172 100.425L90.7299 99.9932L57.444 75.568C57.3131 75.4739 57.2192 75.3371 57.1785 75.1812C57.1379 75.0253 57.1531 74.8601 57.2215 74.7143C57.2899 74.5684 57.4072 74.451 57.553 74.3823C57.6989 74.3136 57.8642 74.2981 58.0203 74.3383C58.0586 74.3476 58.0958 74.3607 58.1316 74.3773L98.6143 92.7178L98.7675 92.7864Z" fill="#3F3D56"/>
</g>
<defs>
<clipPath id="clip0">
<rect width="318" height="222" fill="white"/>
</clipPath>
</defs>
</svg>
