<svg width="18" height="18" viewBox="0 0 18 18" fill="none" xmlns="http://www.w3.org/2000/svg">
<path fill-rule="evenodd" clip-rule="evenodd" d="M11.7473 2.83046C10.4177 2.23804 8.93223 2.09127 7.51243 2.41206C6.09263 2.73284 4.81456 3.50399 3.86884 4.61048C2.92312 5.71698 2.36041 7.09954 2.26463 8.55197C2.16886 10.0044 2.54516 11.4489 3.3374 12.67C4.12964 13.8911 5.29539 14.8234 6.66077 15.3278C8.02615 15.8322 9.51802 15.8818 10.9139 15.4691C12.3097 15.0564 13.5348 14.2035 14.4063 13.0377C15.2778 11.8719 15.7492 10.4555 15.75 8.99996V8.31039C15.75 7.89617 16.0858 7.56039 16.5 7.56039C16.9142 7.56039 17.25 7.89617 17.25 8.31039V9.00039C17.249 10.7794 16.6729 12.5109 15.6077 13.9358C14.5425 15.3607 13.0452 16.4031 11.3392 16.9075C9.63313 17.412 7.80974 17.3514 6.14094 16.7348C4.47214 16.1183 3.04734 14.9788 2.07904 13.4864C1.11074 11.9939 0.650828 10.2285 0.767883 8.45327C0.884939 6.67808 1.5727 4.98828 2.72858 3.6359C3.88447 2.28352 5.44655 1.34101 7.18186 0.948936C8.91716 0.556866 10.7327 0.736244 12.3578 1.46032C12.7361 1.6289 12.9062 2.07228 12.7376 2.45064C12.569 2.82899 12.1256 2.99904 11.7473 2.83046Z" fill="white"/>
<path fill-rule="evenodd" clip-rule="evenodd" d="M17.0301 2.46979C17.3231 2.76254 17.3233 3.23741 17.0306 3.53045L9.5306 11.038C9.38997 11.1787 9.19917 11.2578 9.00019 11.2579C8.80122 11.2579 8.61037 11.1789 8.46967 11.0382L6.21967 8.78822C5.92678 8.49532 5.92678 8.02045 6.21967 7.72756C6.51257 7.43466 6.98744 7.43466 7.28033 7.72756L8.99974 9.44696L15.9694 2.47032C16.2622 2.17728 16.737 2.17705 17.0301 2.46979Z" fill="white"/>
</svg>
