<svg width="444" height="181" viewBox="0 0 444 181" fill="none" xmlns="http://www.w3.org/2000/svg">
<rect width="444" height="181" fill="white"/>
<path fill-rule="evenodd" clip-rule="evenodd" d="M87.1249 28C86.2148 28 85.5193 28.294 85.1436 28.4875C84.7422 28.6942 84.4319 28.929 84.2252 29.1014C83.8152 29.4433 83.4736 29.8267 83.2194 30.1344C82.6939 30.7708 82.1318 31.5903 81.5654 32.4826C80.4135 34.2973 78.982 36.8314 77.3906 39.842C74.1963 45.8847 70.2271 54.0957 66.3546 62.882C62.4837 71.665 58.6797 81.0899 55.8352 89.5518C53.0431 97.8576 51 105.728 51 111.18C51 127.22 56.4335 137.998 63.9406 144.727C71.329 151.349 80.358 153.718 87.1249 153.718C93.8794 153.718 103.064 151.357 110.619 144.761C118.307 138.049 123.948 127.266 123.948 111.18C123.948 105.711 121.852 97.8289 118.995 89.5251C116.083 81.061 112.19 71.6347 108.231 62.8515C104.27 54.0646 100.213 45.8538 96.9522 39.8117C95.3277 36.8013 93.8684 34.2685 92.6971 32.4556C92.1209 31.5638 91.5511 30.7469 91.0208 30.1136C90.7643 29.8072 90.4214 29.4274 90.0121 29.0894C89.8059 28.919 89.4968 28.6872 89.0981 28.4831C88.7263 28.2928 88.0328 28 87.1249 28ZM59 111.18C59 107.172 60.6233 100.415 63.4182 92.1009C66.1606 83.943 69.8641 74.7555 73.6752 66.1084C77.4848 57.4646 81.3722 49.428 84.4632 43.5807C85.4654 41.6849 86.3703 40.0449 87.1515 38.7022C87.9521 40.0511 88.8815 41.7015 89.9119 43.6109C93.0676 49.4589 97.0414 57.4957 100.937 66.1389C104.835 74.7858 108.624 83.9719 111.43 92.1277C114.291 100.444 115.948 107.188 115.948 111.18C115.948 125.224 111.113 133.71 105.358 138.735C100.83 142.688 95.5101 144.691 90.9666 145.405V113.664L95.2678 120.385C96.4585 122.246 98.9323 122.789 100.793 121.598C102.654 120.408 103.197 117.934 102.006 116.073L90.3358 97.8364C89.6006 96.6876 88.3306 95.9925 86.9666 95.9925C85.6026 95.9925 84.3326 96.6876 83.5974 97.8364L71.927 116.073C70.7363 117.934 71.2794 120.408 73.1402 121.598C75.0009 122.789 77.4747 122.246 78.6654 120.385L82.9666 113.664V145.349C78.5716 144.59 73.5536 142.6 69.2802 138.769C63.6928 133.761 59 125.27 59 111.18Z" fill="url(#paint0_linear)"/>
<path d="M190.763 78.7418L184.857 82.2418C183.753 80.3252 182.701 79.0752 181.701 78.4918C180.659 77.8252 179.315 77.4918 177.669 77.4918C175.649 77.4918 173.972 78.0647 172.638 79.2106C171.305 80.3356 170.638 81.7522 170.638 83.4606C170.638 85.8147 172.388 87.7106 175.888 89.1481L180.701 91.1168C184.617 92.7002 187.482 94.6377 189.294 96.9293C191.107 99.2002 192.013 101.992 192.013 105.304C192.013 109.742 190.534 113.408 187.576 116.304C184.597 119.221 180.899 120.679 176.482 120.679C172.294 120.679 168.836 119.44 166.107 116.961C163.419 114.481 161.742 110.992 161.076 106.492L168.451 104.867C168.784 107.7 169.367 109.658 170.201 110.742C171.701 112.825 173.888 113.867 176.763 113.867C179.034 113.867 180.919 113.106 182.419 111.586C183.919 110.065 184.669 108.138 184.669 105.804C184.669 104.867 184.534 104.013 184.263 103.242C184.013 102.45 183.607 101.731 183.044 101.086C182.503 100.419 181.794 99.8043 180.919 99.2418C180.044 98.6585 179.003 98.1064 177.794 97.5856L173.138 95.6481C166.534 92.8564 163.232 88.7731 163.232 83.3981C163.232 79.7731 164.617 76.7418 167.388 74.3043C170.159 71.846 173.607 70.6168 177.732 70.6168C183.294 70.6168 187.638 73.3252 190.763 78.7418ZM227.826 71.5543V100.617C227.826 104.763 228.503 107.794 229.857 109.711C231.878 112.481 234.722 113.867 238.388 113.867C242.076 113.867 244.93 112.481 246.951 109.711C248.305 107.856 248.982 104.825 248.982 100.617V71.5543H256.263V102.617C256.263 107.7 254.68 111.888 251.513 115.179C247.951 118.846 243.576 120.679 238.388 120.679C233.201 120.679 228.836 118.846 225.294 115.179C222.128 111.888 220.544 107.7 220.544 102.617V71.5543H227.826ZM314.888 78.7418L308.982 82.2418C307.878 80.3252 306.826 79.0752 305.826 78.4918C304.784 77.8252 303.44 77.4918 301.794 77.4918C299.774 77.4918 298.097 78.0647 296.763 79.2106C295.43 80.3356 294.763 81.7522 294.763 83.4606C294.763 85.8147 296.513 87.7106 300.013 89.1481L304.826 91.1168C308.742 92.7002 311.607 94.6377 313.419 96.9293C315.232 99.2002 316.138 101.992 316.138 105.304C316.138 109.742 314.659 113.408 311.701 116.304C308.722 119.221 305.024 120.679 300.607 120.679C296.419 120.679 292.961 119.44 290.232 116.961C287.544 114.481 285.867 110.992 285.201 106.492L292.576 104.867C292.909 107.7 293.492 109.658 294.326 110.742C295.826 112.825 298.013 113.867 300.888 113.867C303.159 113.867 305.044 113.106 306.544 111.586C308.044 110.065 308.794 108.138 308.794 105.804C308.794 104.867 308.659 104.013 308.388 103.242C308.138 102.45 307.732 101.731 307.169 101.086C306.628 100.419 305.919 99.8043 305.044 99.2418C304.169 98.6585 303.128 98.1064 301.919 97.5856L297.263 95.6481C290.659 92.8564 287.357 88.7731 287.357 83.3981C287.357 79.7731 288.742 76.7418 291.513 74.3043C294.284 71.846 297.732 70.6168 301.857 70.6168C307.419 70.6168 311.763 73.3252 314.888 78.7418ZM373.013 108.086H352.357L346.982 119.804H339.138L363.013 68.5231L386.044 119.804H378.076L373.013 108.086ZM370.044 101.242L362.888 84.8356L355.388 101.242H370.044Z" fill="black"/>
<defs>
<linearGradient id="paint0_linear" x1="59.1053" y1="28" x2="124.021" y2="167.372" gradientUnits="userSpaceOnUse">
<stop offset="0.219531" stop-color="#3C455C"/>
<stop offset="0.81508" stop-color="#E3894F"/>
<stop offset="0.913227" stop-color="#F08B33"/>
</linearGradient>
</defs>
</svg>
