<svg width="343" height="223" viewBox="0 0 343 223" fill="none" xmlns="http://www.w3.org/2000/svg">
<path d="M342.5 36.5287V79.6768L341.856 78.59L295.647 0.729407L295.212 0H320.821L321.252 0.729407L341.856 35.4419L342.5 36.5287Z" fill="#F08B33"/>
<path d="M180.887 0.000166488C157.194 -0.0341413 133.728 5.23416 111.839 15.5023C89.9487 25.7705 70.0663 40.8361 53.3339 59.8335C50.4645 63.083 47.7057 66.4225 45.0575 69.8519C39.618 76.8741 34.6134 84.3136 30.0794 92.1171C28.7719 94.3673 27.5052 96.6467 26.2793 98.9552C21.8771 107.238 17.9997 115.864 14.6762 124.769C14.3123 125.739 13.957 126.713 13.6102 127.69C11.6812 133.077 9.96476 138.534 8.46083 144.062C4.59824 158.236 2.12511 172.849 1.08611 187.637C0.696444 193.147 0.501073 198.697 0.5 204.285V204.65H342.5V0.000166488H180.887ZM341.856 203.921H1.1441C1.15054 198.961 1.31371 194.046 1.6336 189.176C2.6003 174.259 5.02616 159.51 8.86662 145.2C10.3673 139.605 12.072 134.116 13.9806 128.733C17.5122 118.762 21.7389 109.126 26.6207 99.9144C27.8412 97.5985 29.1068 95.3131 30.4175 93.058C34.9415 85.2284 39.9364 77.761 45.3666 70.7089C78.3435 27.8562 126.872 0.729574 180.887 0.729574H341.856V203.921Z" fill="#3F3D56"/>
<path d="M160.1 175.373C164.443 190.176 162.918 204.075 162.918 204.075C162.918 204.075 154.351 193.974 150.007 179.17C145.664 164.367 147.189 150.468 147.189 150.468C147.189 150.468 155.757 160.569 160.1 175.373Z" fill="#F08B33"/>
<path d="M165.736 175.373C161.392 190.176 162.918 204.075 162.918 204.075C162.918 204.075 171.485 193.974 175.829 179.17C180.172 164.367 178.647 150.468 178.647 150.468C178.647 150.468 170.079 160.569 165.736 175.373Z" fill="#F08B33"/>
<path d="M167.486 175.533C167.777 191.129 162.696 203.899 162.696 203.899C162.696 203.899 157.144 191.383 156.853 175.787C156.562 160.192 161.642 147.422 161.642 147.422C161.642 147.422 167.195 159.937 167.486 175.533Z" fill="#3F3D56"/>
<path d="M162.694 204.837C169.478 204.837 174.977 204.496 174.977 204.074C174.977 203.652 169.478 203.311 162.694 203.311C155.91 203.311 150.411 203.652 150.411 204.074C150.411 204.496 155.91 204.837 162.694 204.837Z" fill="#3F3D56"/>
<path d="M45.5895 204.312C49.4385 204.312 52.5588 200.778 52.5588 196.419C52.5588 192.06 49.4385 188.526 45.5895 188.526C41.7404 188.526 38.6201 192.06 38.6201 196.419C38.6201 200.778 41.7404 204.312 45.5895 204.312Z" fill="#F2F2F2"/>
<path d="M46.8672 183.65C44.3686 183.654 41.9734 184.78 40.2069 186.782C38.4404 188.783 37.4469 191.496 37.4443 194.325C37.4443 194.384 37.4443 194.442 37.4476 194.5C37.4783 196.47 37.9889 198.393 38.9231 200.055C39.8573 201.717 41.1789 203.055 42.7419 203.921C43.2951 204.229 43.8745 204.474 44.4712 204.65C46.0431 205.117 47.6946 205.117 49.2664 204.65C49.8632 204.474 50.4426 204.229 50.9958 203.921C52.9121 202.863 54.4554 201.102 55.3738 198.923C56.2921 196.745 56.5313 194.278 56.0522 191.925C55.573 189.573 54.404 187.474 52.7358 185.971C51.0677 184.468 48.9989 183.65 46.8672 183.65ZM49.173 203.921C48.4219 204.154 47.6462 204.272 46.8672 204.271C46.7126 204.271 46.5581 204.267 46.4067 204.256H46.4035C45.7815 204.221 45.1648 204.109 44.5646 203.921C43.2958 203.527 42.1209 202.817 41.1261 201.842C40.1314 200.867 39.3421 199.652 38.8162 198.286V198.282C38.104 196.422 37.9109 194.36 38.2627 192.373C38.6146 190.385 39.4946 188.567 40.7847 187.161C42.0749 185.756 43.7136 184.831 45.4811 184.51C47.2487 184.189 49.0606 184.488 50.6739 185.366C52.2873 186.245 53.625 187.661 54.5077 189.424C55.3904 191.188 55.776 193.215 55.6126 195.234C55.4493 197.253 54.745 199.167 53.594 200.719C52.443 202.272 50.9004 203.389 49.173 203.921Z" fill="#3F3D56"/>
<path d="M126.092 142.79H73.9219V153.281H126.092V142.79Z" fill="#F2F2F2"/>
<path d="M288.722 44.6846H236.552V55.1758H288.722V44.6846Z" fill="#F2F2F2"/>
<path d="M288.722 67.6611H236.552V78.1523H288.722V67.6611Z" fill="#F2F2F2"/>
<path d="M288.722 89.9082H236.552V100.399H288.722V89.9082Z" fill="#F2F2F2"/>
<path d="M288.722 112.155H236.552V122.646H288.722V112.155Z" fill="#F2F2F2"/>
<path d="M288.722 135.132H236.552V145.623H288.722V135.132Z" fill="#F2F2F2"/>
<path d="M288.722 158.107H236.552V168.599H288.722V158.107Z" fill="#F2F2F2"/>
<path d="M73.5996 139.058V153.646H143.16V139.058H73.5996ZM142.516 152.916H74.2437V139.787H142.516V152.916Z" fill="#3F3D56"/>
<path d="M189.534 60.6466C191.312 60.6466 192.754 59.0138 192.754 56.9996C192.754 54.9854 191.312 53.3525 189.534 53.3525C187.755 53.3525 186.313 54.9854 186.313 56.9996C186.313 59.0138 187.755 60.6466 189.534 60.6466Z" fill="#3F3D56"/>
<path d="M189.534 83.2579C191.312 83.2579 192.754 81.6251 192.754 79.6109C192.754 77.5967 191.312 75.9639 189.534 75.9639C187.755 75.9639 186.313 77.5967 186.313 79.6109C186.313 81.6251 187.755 83.2579 189.534 83.2579Z" fill="#3F3D56"/>
<path d="M189.534 105.87C191.312 105.87 192.754 104.237 192.754 102.223C192.754 100.209 191.312 98.5762 189.534 98.5762C187.755 98.5762 186.313 100.209 186.313 102.223C186.313 104.237 187.755 105.87 189.534 105.87Z" fill="#3F3D56"/>
<path d="M189.534 128.482C191.312 128.482 192.754 126.849 192.754 124.835C192.754 122.82 191.312 121.188 189.534 121.188C187.755 121.188 186.313 122.82 186.313 124.835C186.313 126.849 187.755 128.482 189.534 128.482Z" fill="#3F3D56"/>
<path d="M189.534 151.093C191.312 151.093 192.754 149.46 192.754 147.446C192.754 145.432 191.312 143.799 189.534 143.799C187.755 143.799 186.313 145.432 186.313 147.446C186.313 149.46 187.755 151.093 189.534 151.093Z" fill="#3F3D56"/>
<path d="M189.534 173.705C191.312 173.705 192.754 172.072 192.754 170.058C192.754 168.044 191.312 166.411 189.534 166.411C187.755 166.411 186.313 168.044 186.313 170.058C186.313 172.072 187.755 173.705 189.534 173.705Z" fill="#3F3D56"/>
<path d="M306.757 56.6348H218.518V57.3642H306.757V56.6348Z" fill="#3F3D56"/>
<path d="M306.757 79.2461H218.518V79.9755H306.757V79.2461Z" fill="#3F3D56"/>
<path d="M306.757 101.858H218.518V102.588H306.757V101.858Z" fill="#3F3D56"/>
<path d="M306.757 124.47H218.518V125.199H306.757V124.47Z" fill="#3F3D56"/>
<path d="M306.757 147.081H218.518V147.81H306.757V147.081Z" fill="#3F3D56"/>
<path d="M306.757 169.693H218.518V170.423H306.757V169.693Z" fill="#3F3D56"/>
<path d="M322.653 190.819L314.188 182.954L321.132 173.367L329.598 181.232L322.653 190.819ZM315.094 182.853L322.563 189.792L328.691 181.333L321.222 174.394L315.094 182.853Z" fill="#3F3D56"/>
<path d="M200.006 19.3543L192.039 11.9521L185.503 20.9749L193.47 28.377L200.006 19.3543Z" fill="#F08B33"/>
<path d="M151.211 79.6111C151.226 89.8982 148.337 99.9215 142.967 108.218C142.355 109.167 141.714 110.093 141.041 110.987C139.14 113.524 137.014 115.834 134.697 117.879C134.465 118.084 134.23 118.288 133.992 118.489C133.122 119.225 132.228 119.924 131.309 120.586C131.029 120.786 130.749 120.983 130.465 121.173C129.825 121.614 129.172 122.035 128.507 122.435C128.182 122.632 127.854 122.825 127.525 123.011C120.775 126.825 113.256 128.554 105.727 128.023C98.1977 127.492 90.9257 124.72 84.6455 119.987C84.3106 119.739 83.9821 119.484 83.6569 119.222C83.045 118.733 82.4428 118.222 81.8567 117.697C81.3156 117.216 80.7875 116.716 80.269 116.205C77.5393 113.517 75.1209 110.449 73.0714 107.073C72.6721 106.413 72.2856 105.742 71.9121 105.06C68.4383 98.6758 66.3189 91.4663 65.7203 83.998C65.1217 76.5296 66.0603 69.0058 68.4623 62.0175C70.8643 55.0292 74.6642 48.7667 79.5637 43.7221C84.4633 38.6774 90.3288 34.9878 96.6998 32.9432C103.071 30.8986 109.773 30.5547 116.282 31.9384C122.79 33.3221 128.926 36.3958 134.208 40.918C139.49 45.4403 143.775 51.2879 146.725 58.0015C149.675 64.7152 151.211 72.112 151.211 79.6111Z" fill="#3F3D56"/>
<path d="M106.767 77.2176C113.212 77.2176 118.436 71.3012 118.436 64.0028C118.436 56.7045 113.212 50.7881 106.767 50.7881C100.323 50.7881 95.0986 56.7045 95.0986 64.0028C95.0986 71.3012 100.323 77.2176 106.767 77.2176Z" fill="#A0616A"/>
<path d="M98.7448 70.3356C98.7448 70.3356 102.634 80.2467 97.2862 84.101C91.9379 87.9553 106.038 103.923 106.038 103.923L121.596 85.2022C121.596 85.2022 113.331 79.1454 114.789 69.2344L98.7448 70.3356Z" fill="#A0616A"/>
<path d="M134.697 117.88C134.466 118.084 134.23 118.288 133.992 118.489C133.123 119.226 132.228 119.925 131.31 120.586C131.029 120.787 130.749 120.984 130.466 121.173L130.347 120.44L131.467 119.78L134.697 117.88Z" fill="#A0616A"/>
<path d="M130.466 121.173C130.749 120.984 131.03 120.787 131.31 120.586L131.319 120.44L131.467 119.78L137.641 92.3616L118.927 82.6094L107.984 90.1587L98.1814 83.3133C98.1814 83.3133 92.4234 83.5503 90.9645 85.2024C89.8213 86.4971 84.2146 89.4768 81.8315 90.7095C81.1681 91.0523 80.7559 91.2601 80.7559 91.2601C80.7559 91.2601 81.123 103.755 81.8572 117.698C82.4434 118.223 83.0456 118.733 83.6574 119.222C83.9827 119.485 84.3112 119.74 84.6461 119.988C90.9263 124.721 98.1982 127.492 105.727 128.023C113.256 128.554 120.776 126.825 127.526 123.011L130.466 121.173Z" fill="#F08B33"/>
<path d="M84.6456 90.709V119.987C84.3107 119.739 83.9822 119.484 83.6569 119.222C83.0451 118.733 82.4428 118.222 81.8567 117.697C81.3157 117.216 80.7876 116.716 80.2691 116.205C77.5394 113.517 75.121 110.449 73.0715 107.073C72.6721 106.413 72.2857 105.742 71.9121 105.06C72.2277 103.886 72.5819 102.589 72.9748 101.169C75.4062 92.3611 80.7553 90.709 80.7553 90.709H84.6456Z" fill="#F08B33"/>
<path d="M130.466 121.173C130.749 120.983 131.029 120.786 131.309 120.586C132.227 119.926 133.121 119.227 133.992 118.489C134.23 118.288 134.465 118.084 134.697 117.88C137.014 115.834 139.14 113.524 141.041 110.987C141.714 110.093 142.355 109.167 142.967 108.219C140.987 101.209 137.641 92.3613 137.641 92.3613L130.833 91.8105C130.833 91.8105 128.07 116.858 127.525 123.011L130.466 121.173Z" fill="#F08B33"/>
<path d="M99.6127 48.7078C99.0289 49.2706 98.4197 49.7985 97.7874 50.2894C96.9902 51.0385 96.2538 51.8669 95.587 52.7648L94.8346 53.7187C94.1943 54.5306 93.5149 55.4571 93.542 56.5452C93.552 56.9489 93.6615 57.3407 93.7044 57.7416C93.8747 59.3322 93.0162 61.0804 93.7229 62.4684C93.9272 62.8697 94.2432 63.1835 94.4684 63.5702C94.755 64.0658 94.8819 64.6581 94.8279 65.2473C95.5872 65.2826 96.2102 64.5119 96.4483 63.6945C96.6865 62.8772 96.6543 61.9942 96.7703 61.1436C96.8863 60.2929 97.2121 59.3922 97.8946 59.0135C99.3508 58.2055 101.023 60.3063 102.577 59.7828C103.663 59.4173 104.235 57.8937 105.345 57.6382C106.139 57.4553 106.903 57.9897 107.641 58.3684C108.38 58.7472 109.375 58.9225 109.897 58.2205C110.242 57.7556 110.279 57.0108 110.737 56.6949C111.287 56.3163 111.975 56.8434 112.391 57.3988C112.806 57.9542 113.266 58.6333 113.909 58.6131C114.761 58.5863 115.415 57.3002 116.224 57.6053C117.138 57.9497 116.717 59.6053 117.272 60.4969C117.74 61.2507 118.722 61.2063 119.528 61.0817C119.664 61.0973 119.802 61.0736 119.927 61.0128C120.053 60.952 120.163 60.856 120.247 60.7339C120.331 60.6118 120.386 60.4676 120.408 60.3146C120.429 60.1617 120.416 60.0052 120.37 59.8596L120.033 54.8003C120.031 54.4516 119.964 54.1073 119.835 53.7906C119.601 53.3094 119.115 53.0657 118.785 52.6629C118.09 51.8161 118.124 50.3316 117.26 49.7158C116.812 49.3961 116.225 49.4057 115.78 49.0803C115.209 48.6631 115.025 47.8274 114.625 47.2052C114.053 46.3158 113.054 45.9034 112.087 45.7903C111.121 45.6771 110.146 45.8136 109.174 45.7777C107.2 45.7048 105.226 45.0756 103.242 45.4439C101.512 45.7653 100.785 47.4285 99.6127 48.7078Z" fill="#2F2E41"/>
<path d="M329.63 46.2068C330.375 46.2068 330.979 45.5233 330.979 44.6801C330.979 43.8369 330.375 43.1533 329.63 43.1533C328.886 43.1533 328.282 43.8369 328.282 44.6801C328.282 45.5233 328.886 46.2068 329.63 46.2068Z" fill="#3F3D56"/>
<path d="M320.291 27.6062C321.036 27.6062 321.64 26.9227 321.64 26.0795C321.64 25.2363 321.036 24.5527 320.291 24.5527C319.547 24.5527 318.943 25.2363 318.943 26.0795C318.943 26.9227 319.547 27.6062 320.291 27.6062Z" fill="#3F3D56"/>
<path d="M316.427 7.54761C317.172 7.54761 317.775 6.86407 317.775 6.02088C317.775 5.17768 317.172 4.49414 316.427 4.49414C315.683 4.49414 315.079 5.17768 315.079 6.02088C315.079 6.86407 315.683 7.54761 316.427 7.54761Z" fill="#3F3D56"/>
</svg>
