<svg width="547" height="423" viewBox="0 0 547 423" fill="none" xmlns="http://www.w3.org/2000/svg">
<g clip-path="url(#clip0)">
<path d="M481.987 240.08L493.949 228.126C492.859 220.201 491.322 212.344 489.346 204.592L482.529 208.039L488.654 201.919C486.115 192.358 483.828 186.187 483.828 186.187C483.828 186.187 459.722 210.708 447.262 239.463L454.982 259.733L444.42 246.702C443.215 250.105 442.226 253.579 441.458 257.106C433.835 292.686 439.289 324.016 453.641 327.084C467.992 330.151 485.806 303.795 493.429 268.215C495.792 257.184 495.766 245.11 494.607 233.699L481.987 240.08Z" fill="#E6E6E6"/>
<path d="M517.533 264.909L533.96 260.851C537.128 253.505 539.878 245.986 542.199 238.33L534.579 237.761L542.989 235.683C545.764 226.188 547 219.725 547 219.725C547 219.725 513.674 228.27 488.127 246.453L484.245 267.791L481.947 251.183C479.155 253.473 476.51 255.937 474.027 258.559C449.089 285.082 437.544 314.718 448.242 324.753C458.94 334.789 487.829 321.423 512.768 294.901C520.499 286.679 526.726 276.33 531.639 265.962L517.533 264.909Z" fill="#E6E6E6"/>
<path d="M360.762 117.519L364.797 85.8843C354.011 75.3136 342.636 65.3591 330.727 56.0681L324.537 69.0732L326.603 52.8763C311.763 41.5337 301.217 34.9609 301.217 34.9609C301.217 34.9609 293.581 99.3565 308.222 156.64L343.174 177.992L312.348 170.723C314.483 177.19 317.023 183.517 319.953 189.665C349.701 251.558 394.055 292.028 419.019 280.058C443.984 268.087 440.107 208.209 410.359 146.316C401.136 127.128 387.142 109.138 372.222 93.443L360.762 117.519Z" fill="#E6E6E6"/>
<path d="M442.514 113.586L462.339 88.5894C458.576 73.9716 453.991 59.5774 448.604 45.4754L436.575 53.4123L446.725 40.6138C439.892 23.2424 434.265 12.1709 434.265 12.1709C434.265 12.1709 394.403 63.3542 377.291 119.95L396.162 156.274L373.535 134.136C372.016 140.775 370.916 147.502 370.243 154.278C363.678 222.62 380.703 280.163 408.269 282.805C435.835 285.447 463.503 232.186 470.068 163.844C472.103 142.658 469.434 120.032 464.784 98.8933L442.514 113.586Z" fill="#E6E6E6"/>
<path d="M77.0312 122.168L75.0257 88.9751C61.9227 80.2334 48.3366 72.2369 34.3319 65.0237L30.5135 79.5469L29.4868 62.5521C12.081 53.8044 0 49.1123 0 49.1123C0 49.1123 4.6755 116.568 30.7945 172.423L70.7492 187.532L37.7551 186.053C41.1976 192.266 45.0278 198.256 49.2232 203.988C91.7149 261.641 145.013 294.517 168.268 277.418C191.522 260.319 175.927 199.721 133.436 142.068C120.263 124.195 102.433 108.473 84.0999 95.2818L77.0312 122.168Z" fill="#E6E6E6"/>
<path d="M160.028 102.309L175.489 72.8593C168.796 58.6111 161.304 44.7513 153.049 31.346L142.264 41.8071L150.18 26.7288C139.807 10.2539 131.893 0 131.893 0C131.893 0 100.986 60.159 94.4393 121.459L120.824 155.02L93.3443 136.72C93.0761 143.816 93.255 150.921 93.88 157.994C100.419 229.286 129.03 284.946 157.786 282.315C186.542 279.683 204.553 219.757 198.014 148.466C195.987 126.365 188.86 103.7 179.993 82.943L160.028 102.309Z" fill="#E6E6E6"/>
<path d="M246.524 400.308C257.785 400.308 266.913 397.703 266.913 394.489C266.913 391.276 257.785 388.671 246.524 388.671C235.264 388.671 226.136 391.276 226.136 394.489C226.136 397.703 235.264 400.308 246.524 400.308Z" fill="#E6E6E6"/>
<path d="M468.47 423C479.73 423 488.858 420.395 488.858 417.182C488.858 413.968 479.73 411.363 468.47 411.363C457.209 411.363 448.081 413.968 448.081 417.182C448.081 420.395 457.209 423 468.47 423Z" fill="#E6E6E6"/>
<path d="M510.994 375.289C522.254 375.289 531.383 372.684 531.383 369.471C531.383 366.257 522.254 363.652 510.994 363.652C499.734 363.652 490.605 366.257 490.605 369.471C490.605 372.684 499.734 375.289 510.994 375.289Z" fill="#E6E6E6"/>
<path d="M427.401 358.415C435.927 358.415 442.838 356.443 442.838 354.01C442.838 351.577 435.927 349.604 427.401 349.604C418.875 349.604 411.964 351.577 411.964 354.01C411.964 356.443 418.875 358.415 427.401 358.415Z" fill="#E6E6E6"/>
<path d="M93.0264 354.26C98.6565 354.26 103.221 352.845 103.221 351.101C103.221 349.357 98.6565 347.942 93.0264 347.942C87.3962 347.942 82.832 349.357 82.832 351.101C82.832 352.845 87.3962 354.26 93.0264 354.26Z" fill="#E6E6E6"/>
<path d="M52.832 389.752C58.4622 389.752 63.0264 388.338 63.0264 386.593C63.0264 384.849 58.4622 383.435 52.832 383.435C47.2019 383.435 42.6377 384.849 42.6377 386.593C42.6377 388.338 47.2019 389.752 52.832 389.752Z" fill="#E6E6E6"/>
<path d="M52.832 333.895C58.4622 333.895 63.0264 332.481 63.0264 330.737C63.0264 328.992 58.4622 327.578 52.832 327.578C47.2019 327.578 42.6377 328.992 42.6377 330.737C42.6377 332.481 47.2019 333.895 52.832 333.895Z" fill="#E6E6E6"/>
<path d="M489.366 340.933L390.592 337.442L338.501 342.406L249.508 350.883L216.018 354.071L138.459 379.905C138.148 380.009 137.814 380.022 137.495 379.944C137.176 379.865 136.886 379.698 136.659 379.462C136.432 379.226 136.276 378.93 136.21 378.609C136.144 378.288 136.171 377.954 136.287 377.648L136.292 377.642L149.743 342.109L148.328 341.067L111.313 313.901L111.115 313.756L63.1204 306.448C62.4447 306.344 61.8065 306.07 61.2661 305.652C60.7257 305.234 60.3008 304.685 60.0315 304.058C59.7622 303.43 59.6574 302.744 59.7269 302.065C59.7965 301.386 60.0381 300.735 60.429 300.175L133.525 195.409L171.938 140.366L176.103 134.391L335.892 132.186L491.9 336.034C492.251 336.493 492.465 337.043 492.515 337.618C492.566 338.194 492.452 338.772 492.187 339.286C491.921 339.799 491.515 340.227 491.016 340.518C490.516 340.81 489.944 340.954 489.366 340.933V340.933Z" fill="#F08B33"/>
<path opacity="0.2" d="M213.534 142.893L148.327 341.068L111.316 313.902L133.527 195.41L171.828 140.235L171.937 140.364L213.534 142.893Z" fill="black"/>
<path d="M155.328 218.811C147.929 236.577 145.309 251.416 136.533 248.736C124.518 245.067 137.133 232.091 144.532 214.326C151.931 196.56 157.159 182.932 163.327 184.4C174.826 187.138 162.726 201.045 155.328 218.811Z" fill="#3F3D56"/>
<path d="M172.091 183.25C172.089 182.074 171.856 180.91 171.403 179.825C170.951 178.739 170.289 177.753 169.456 176.923C168.622 176.093 167.633 175.435 166.544 174.987C165.456 174.539 164.29 174.309 163.113 174.311C162.911 174.311 162.711 174.321 162.512 174.334L154.053 173.292C153.082 172.947 152.059 172.771 151.029 172.773C150.744 172.774 150.463 172.789 150.185 172.816L149.859 172.775L149.851 172.855C147.865 173.121 146.027 174.044 144.628 175.475C143.229 176.907 142.35 178.766 142.132 180.754C141.914 182.743 142.369 184.747 143.425 186.447C144.481 188.148 146.076 189.446 147.957 190.135L147.939 190.296L148.771 190.389C149.517 190.584 150.286 190.681 151.057 190.68C151.143 190.68 151.228 190.676 151.313 190.673L159.96 191.641C160.976 192.025 162.055 192.22 163.142 192.218C163.547 192.216 163.952 192.188 164.353 192.132L165.09 192.215L165.095 191.999C167.083 191.552 168.859 190.442 170.131 188.851C171.403 187.261 172.094 185.285 172.091 183.25V183.25Z" fill="#F08B33"/>
<path opacity="0.2" d="M172.091 183.25C172.089 182.074 171.856 180.91 171.403 179.825C170.951 178.739 170.289 177.753 169.456 176.923C168.622 176.093 167.633 175.435 166.544 174.987C165.456 174.539 164.29 174.309 163.113 174.311C162.911 174.311 162.711 174.321 162.512 174.334L154.053 173.292C153.082 172.947 152.059 172.771 151.029 172.773C150.744 172.774 150.463 172.789 150.185 172.816L149.859 172.775L149.851 172.855C147.865 173.121 146.027 174.044 144.628 175.475C143.229 176.907 142.35 178.766 142.132 180.754C141.914 182.743 142.369 184.747 143.425 186.447C144.481 188.148 146.076 189.446 147.957 190.135L147.939 190.296L148.771 190.389C149.517 190.584 150.286 190.681 151.057 190.68C151.143 190.68 151.228 190.676 151.313 190.673L159.96 191.641C160.976 192.025 162.055 192.22 163.142 192.218C163.547 192.216 163.952 192.188 164.353 192.132L165.09 192.215L165.095 191.999C167.083 191.552 168.859 190.442 170.131 188.851C171.403 187.261 172.094 185.285 172.091 183.25V183.25Z" fill="white"/>
<path d="M52.3781 305.557L51.3428 305.014C77.8624 254.528 152.869 146.659 153.624 145.575L154.584 146.242C153.83 147.325 78.864 255.135 52.3781 305.557Z" fill="#3F3D56"/>
<path d="M133.611 381.216L132.483 380.909C133.03 378.903 187.35 179.888 206.21 146.316L207.229 146.888C188.439 180.335 134.158 379.211 133.611 381.216Z" fill="#3F3D56"/>
<path d="M496.498 342.633C467.539 294.984 358.177 147.414 357.075 145.929L358.015 145.234C359.117 146.72 468.51 294.333 497.497 342.027L496.498 342.633Z" fill="#3F3D56"/>
<path d="M131.506 386.513C133.766 386.51 135.594 384.154 135.589 381.252C135.585 378.349 133.749 376 131.489 376.003C129.229 376.007 127.4 378.363 127.405 381.265C127.41 384.167 129.246 386.517 131.506 386.513Z" fill="#3F3D56"/>
<path d="M52.6433 307.814C54.9034 307.811 56.7317 305.455 56.7271 302.553C56.7224 299.65 54.8865 297.3 52.6264 297.304C50.3663 297.308 48.538 299.663 48.5426 302.566C48.5473 305.468 50.3833 307.818 52.6433 307.814Z" fill="#3F3D56"/>
<path d="M497.582 345.255C499.842 345.251 501.67 342.895 501.666 339.993C501.661 337.091 499.825 334.741 497.565 334.744C495.305 334.748 493.476 337.104 493.481 340.006C493.486 342.909 495.322 345.258 497.582 345.255Z" fill="#3F3D56"/>
<path d="M149.079 151.372L369.639 153.732C369.485 135.74 362.22 118.537 349.425 105.872C336.629 93.2062 319.341 86.1043 301.327 86.1133L217.154 86.2485C181.946 86.3051 152.134 113.806 149.284 148.856L149.079 151.372Z" fill="#3F3D56"/>
<path opacity="0.2" d="M342.871 224.192H262.26C261.279 224.191 260.307 224.385 259.401 224.763C258.495 225.14 257.673 225.693 256.983 226.391C256.293 227.088 255.749 227.915 255.382 228.824C255.015 229.733 254.832 230.706 254.844 231.687L254.914 237.575L255.631 300.612L255.642 301.828L255.666 303.835L255.689 305.796L255.823 317.613C255.845 319.536 256.614 321.375 257.969 322.742C259.323 324.109 261.156 324.897 263.081 324.939C263.279 324.939 263.483 324.933 263.687 324.921L282.829 323.757L310.523 322.07L320.298 321.477L322.476 321.343L337.71 320.418H337.716L343.32 320.074C345.205 319.958 346.974 319.128 348.268 317.754C349.563 316.38 350.284 314.565 350.287 312.679V231.599C350.285 229.635 349.503 227.753 348.112 226.364C346.722 224.976 344.837 224.194 342.871 224.192V224.192Z" fill="black"/>
<path d="M359.471 213.897C359.18 213.921 358.897 214.008 358.643 214.153C358.389 214.298 358.171 214.498 358.004 214.738L349.122 214.752V212.399C349.12 210.435 348.338 208.553 346.947 207.164C345.557 205.775 343.672 204.994 341.706 204.992H261.095C260.114 204.991 259.142 205.185 258.236 205.563C257.33 205.94 256.508 206.493 255.818 207.19C255.128 207.888 254.584 208.715 254.217 209.624C253.85 210.533 253.667 211.506 253.679 212.486L253.708 214.905L247.98 214.914C247.666 214.58 247.235 214.381 246.777 214.358C244.769 214.361 243.149 218.74 243.157 224.139C243.166 229.538 244.801 233.912 246.808 233.909C247.158 233.871 247.494 233.749 247.786 233.554C248.079 233.36 248.321 233.097 248.491 232.789L358.033 232.613C358.201 232.852 358.42 233.051 358.674 233.196C358.928 233.34 359.211 233.427 359.503 233.449C361.51 233.446 363.131 229.066 363.122 223.667C363.114 218.268 361.479 213.894 359.471 213.897Z" fill="#F08B33"/>
<path opacity="0.2" d="M359.47 213.897C359.179 213.921 358.896 214.008 358.642 214.153C358.389 214.298 358.17 214.498 358.003 214.738L349.121 214.752V212.399C349.119 210.435 348.337 208.553 346.946 207.164C345.556 205.775 343.671 204.994 341.705 204.992H261.094C260.113 204.991 259.141 205.185 258.235 205.563C257.329 205.94 256.507 206.493 255.817 207.191C255.128 207.888 254.583 208.715 254.216 209.624C253.849 210.533 253.666 211.506 253.678 212.486L253.707 214.905L247.979 214.914C247.665 214.58 247.234 214.381 246.776 214.358C244.768 214.361 243.148 218.74 243.156 224.139C243.165 229.538 244.8 233.912 246.807 233.909C247.157 233.871 247.493 233.749 247.786 233.554C248.078 233.36 248.32 233.097 248.49 232.789L358.032 232.613C358.2 232.852 358.419 233.051 358.673 233.196C358.927 233.34 359.21 233.427 359.502 233.449C361.509 233.446 363.13 229.066 363.121 223.667C363.113 218.268 361.478 213.894 359.47 213.897Z" fill="white"/>
<path d="M350.447 337.503C349.913 338.002 349.271 338.371 348.571 338.58C347.871 338.79 347.132 338.835 346.412 338.712C345.691 338.589 345.009 338.301 344.419 337.871C343.828 337.441 343.345 336.881 343.008 336.233L338.625 327.829L340.369 324.056L349.764 330.061C350.372 330.45 350.883 330.972 351.258 331.588C351.633 332.204 351.862 332.898 351.928 333.616C351.994 334.334 351.895 335.057 351.638 335.731C351.381 336.405 350.974 337.011 350.447 337.503Z" fill="#FFB8B8"/>
<path d="M369.378 386.538C369.273 385.567 368.81 384.67 368.078 384.022C367.347 383.374 366.399 383.023 365.422 383.037C364.531 383.03 363.664 383.323 362.96 383.869C362.257 384.414 361.757 385.179 361.54 386.042V386.042L357.659 404.867C357.531 405.417 357.464 405.98 357.461 406.545C357.461 410.79 361.018 413.74 365.422 413.74C369.825 413.74 373.385 410.79 373.385 406.545C373.382 405.865 373.29 405.188 373.109 404.532L369.378 386.538Z" fill="#3F3D56"/>
<path d="M398.736 394.959C398.341 394.613 397.917 394.303 397.467 394.032L382.64 383.683C381.196 382.777 379.654 382.803 378.535 383.896C378.046 384.36 377.736 384.981 377.658 385.65C377.58 386.32 377.739 386.995 378.108 387.559L389.304 402.256C389.56 402.612 389.845 402.947 390.157 403.255C392.098 405.421 396.401 405.541 398.766 403.255C401.099 400.931 401.071 396.791 398.736 394.959Z" fill="#3F3D56"/>
<path d="M409.879 379.626H394.862C394.38 379.608 393.911 379.78 393.557 380.106C393.202 380.432 392.99 380.884 392.968 381.364C392.96 381.808 393.102 382.241 393.369 382.594C393.636 382.948 394.015 383.202 394.444 383.316L408.61 387.693C410.668 388.172 413.44 386.34 413.44 384.052C413.44 381.143 411.82 379.626 409.879 379.626Z" fill="#3F3D56"/>
<path d="M338.422 381.357C338.406 381.11 338.341 380.868 338.231 380.646C338.12 380.425 337.967 380.227 337.779 380.065C337.592 379.903 337.374 379.78 337.138 379.704C336.902 379.627 336.653 379.598 336.406 379.619H321.389C319.497 379.619 317.902 381.659 317.902 383.947C317.902 386.235 320.594 388.173 322.658 387.694L337.038 383.316C337.469 383.216 337.848 382.961 338.103 382.6C338.359 382.239 338.472 381.796 338.422 381.357Z" fill="#3F3D56"/>
<path d="M348.728 383.699L333.897 394.004C333.436 394.263 333.007 394.574 332.617 394.931C331.527 395.944 330.884 397.348 330.83 398.834C330.776 400.321 331.315 401.768 332.33 402.857C332.422 402.956 332.518 403.052 332.617 403.144C333.781 404.242 335.32 404.853 336.921 404.853C338.521 404.853 340.061 404.242 341.224 403.144C341.541 402.841 341.827 402.507 342.077 402.147L353.281 387.533C353.656 386.977 353.82 386.304 353.742 385.638C353.663 384.971 353.349 384.354 352.855 383.9C352.302 383.384 351.584 383.081 350.828 383.045C350.073 383.008 349.329 383.24 348.728 383.699V383.699Z" fill="#3F3D56"/>
<path d="M371.799 363.561C371.971 363.308 372.066 363.011 372.074 362.705C372.074 360.901 368.515 359.647 364.111 359.647C359.707 359.647 356.15 360.901 356.15 362.705C356.157 362.956 356.225 363.201 356.349 363.419L360.23 371.419C360.675 372.174 362.278 372.702 364.111 372.696C366.178 372.696 367.894 372.044 368.067 371.208L371.799 363.561Z" fill="#3F3D56"/>
<path d="M397.456 364.103C395.091 363.132 390.787 363.183 388.847 364.103C388.553 364.225 388.268 364.367 387.994 364.528L376.798 370.774C376.037 371.268 376.216 371.923 377.224 372.331C378.55 372.789 379.985 372.821 381.329 372.421L396.157 368.023C396.586 367.914 397.01 367.782 397.426 367.629C399.761 366.85 399.789 365.091 397.456 364.103Z" fill="#3F3D56"/>
<path d="M412.129 372.264C412.129 371.292 409.357 370.514 407.299 370.717L393.133 372.577C392.286 372.696 391.657 372.971 391.657 373.407C391.657 373.842 392.581 374.145 393.551 374.145H408.568C410.509 374.145 412.129 373.501 412.129 372.264Z" fill="#3F3D56"/>
<path d="M335.727 372.578L321.347 370.718C319.283 370.514 316.592 371.338 316.592 372.31C316.592 373.282 318.187 374.149 320.079 374.149H335.096C336.141 374.149 337.111 373.863 337.111 373.411C337.111 372.958 336.663 372.697 335.727 372.578Z" fill="#3F3D56"/>
<path d="M351.544 372.33C352.593 371.916 352.717 371.291 351.971 370.785L340.766 364.575C340.494 364.411 340.209 364.269 339.913 364.151C337.126 363.183 334.094 363.183 331.307 364.151C331.207 364.19 331.111 364.231 331.019 364.273C328.907 365.237 329.036 366.745 331.307 367.642C331.724 367.802 332.151 367.933 332.586 368.035L347.418 372.415C348.769 372.816 350.211 372.786 351.544 372.33V372.33Z" fill="#3F3D56"/>
<path d="M394.654 362.265C394.654 385.401 381.745 385.828 365.82 385.828C349.895 385.828 323.75 381.252 336.986 362.265C350.946 342.239 374.894 304.068 365.82 302.047C365.82 302.047 394.654 339.129 394.654 362.265Z" fill="#F9A825"/>
<path opacity="0.5" d="M375.975 376.501C375.975 385.659 370.865 385.829 364.561 385.829C358.258 385.829 347.909 384.017 353.148 376.501C358.673 368.575 368.153 353.465 364.561 352.665C364.561 352.665 375.975 367.343 375.975 376.501Z" fill="#FF6584"/>
<path d="M350.287 308.542V312.679C350.284 314.566 349.563 316.38 348.269 317.754C346.974 319.128 345.205 319.957 343.32 320.074L263.687 324.921C262.685 324.982 261.68 324.84 260.734 324.501C259.788 324.163 258.921 323.636 258.186 322.952C257.45 322.269 256.861 321.443 256.455 320.525C256.049 319.607 255.834 318.617 255.823 317.613L255.631 300.612L303.801 299.832L350.287 308.542Z" fill="#3F3D56"/>
<path d="M337.3 329.034L301.375 310.397C301.209 310.311 301.064 310.191 300.948 310.044C300.833 309.898 300.749 309.729 300.705 309.548L292.911 278.176C292.459 276.356 292.703 274.432 293.596 272.782C294.489 271.132 295.966 269.875 297.738 269.255L299.616 268.599C300.034 268.452 300.478 268.393 300.921 268.425C301.363 268.458 301.794 268.58 302.187 268.785C302.58 268.99 302.926 269.274 303.205 269.618C303.484 269.962 303.689 270.36 303.808 270.787L311.489 298.407C311.561 298.665 311.71 298.896 311.917 299.067L341.188 323.291C341.441 323.5 341.606 323.796 341.652 324.12C341.697 324.444 341.62 324.774 341.435 325.044L338.992 328.61C338.811 328.875 338.538 329.064 338.227 329.142C337.915 329.22 337.586 329.182 337.3 329.034V329.034Z" fill="#E6E6E6"/>
<path d="M313.634 280.227C296.21 271.065 277.971 266.464 258.421 269.198C264.314 259.222 268.691 250 268.398 243.095C268.272 240.877 268.693 238.661 269.624 236.643C270.554 234.624 271.966 232.864 273.736 231.518C276.584 229.409 280.035 228.271 283.58 228.273V228.273C286.746 226.863 290.332 226.721 293.6 227.875C294.987 228.396 296.248 229.204 297.301 230.246C298.354 231.287 299.175 232.539 299.711 233.919C300.379 235.536 301.818 236.953 303.905 238.201C305.838 239.319 307.413 240.962 308.446 242.94C309.821 245.673 309.916 248.424 308.114 251.202C314.861 258.282 314.88 268.92 313.634 280.227Z" fill="#2F2E41"/>
<path d="M288.933 257.298C295.674 257.298 301.138 251.84 301.138 245.107C301.138 238.375 295.674 232.917 288.933 232.917C282.193 232.917 276.729 238.375 276.729 245.107C276.729 251.84 282.193 257.298 288.933 257.298Z" fill="#FFB8B8"/>
<path d="M294.746 271.52L280.507 272.971C281.271 264.655 281.572 256.982 280.507 251.202H294.746C292.042 260.405 292.279 266.964 294.746 271.52Z" fill="#FFB8B8"/>
<path d="M302.372 271.206C302.361 272.48 302.334 273.74 302.291 274.988C301.994 283.913 300.869 291.948 297.805 297.866C297.183 299.091 296.44 300.251 295.586 301.328C295.58 301.339 295.572 301.348 295.563 301.357C295.504 301.438 295.44 301.516 295.37 301.589C294.744 302.367 294.048 303.085 293.291 303.736L287.46 309.846L287.192 310.125L285.491 311.26L276.729 317.09L255.688 305.796L255.665 303.835L255.642 301.828C260.319 295.207 263.238 286.595 265.09 276.791C265.597 274.109 266.028 271.334 266.395 268.483C266.646 266.51 266.867 264.497 267.059 262.455C267.089 261.828 267.302 261.223 267.671 260.715C267.671 260.714 267.671 260.713 267.671 260.713C267.672 260.712 267.672 260.711 267.673 260.711C267.673 260.71 267.674 260.71 267.674 260.71C267.675 260.709 267.676 260.709 267.677 260.709C268.574 259.569 270.356 259.592 272.512 259.476C275.535 259.313 278.512 257.748 281.186 259.225C281.252 259.256 281.316 259.291 281.378 259.33L289.225 268.035L292.831 264.154L292.999 263.973L300.427 267.15C301.186 267.478 301.802 268.069 302.159 268.814C302.517 269.56 302.593 270.409 302.372 271.206V271.206Z" fill="#E6E6E6"/>
<path d="M285.811 313.988C285.811 315.472 285.531 316.943 284.984 318.323L282.829 323.757L263.686 324.921C263.483 324.932 263.279 324.938 263.081 324.938C261.156 324.896 259.323 324.109 257.968 322.742C256.614 321.375 255.844 319.536 255.822 317.613L255.688 305.796L255.665 303.835L262.632 306.785L269.424 303.142C269.795 302.984 270.174 302.848 270.56 302.735C271.064 302.576 271.577 302.453 272.098 302.368H272.104C272.355 302.328 272.605 302.293 272.856 302.27C275.735 301.981 278.619 302.762 280.959 304.463C282.326 305.452 283.461 306.727 284.285 308.199C284.348 308.3 284.404 308.404 284.454 308.513C284.917 309.379 285.265 310.303 285.491 311.259C285.703 312.153 285.81 313.069 285.811 313.988V313.988Z" fill="#2F2E41"/>
<path opacity="0.2" d="M280.361 279.211L282.908 290.88L298.378 304.173L284.72 290.241L280.361 279.211Z" fill="black"/>
<path opacity="0.2" d="M266.122 284.727L270.771 303.593L284.429 308.527L271.643 302.142L266.122 284.727Z" fill="black"/>
<path d="M303.609 245.833C294.613 241.699 284.443 240.521 275.421 244.962L276.583 234.513L296.344 231.32L303.609 245.833Z" fill="#2F2E41"/>
<path d="M375.917 337.651L309.772 326.302L310.583 322.311L375.917 337.651Z" fill="#3F3D56"/>
<path d="M320.806 328.795C320.272 329.294 319.63 329.663 318.93 329.872C318.23 330.082 317.491 330.127 316.771 330.004C316.051 329.881 315.368 329.593 314.778 329.163C314.187 328.733 313.705 328.173 313.367 327.525L308.984 319.121L310.728 315.348L320.123 321.353C320.731 321.742 321.242 322.264 321.617 322.88C321.992 323.496 322.221 324.19 322.287 324.908C322.353 325.625 322.254 326.349 321.997 327.023C321.74 327.696 321.333 328.303 320.806 328.795V328.795Z" fill="#FFB8B8"/>
<path d="M307.66 320.326L271.734 301.689C271.568 301.603 271.423 301.483 271.307 301.337C271.192 301.19 271.109 301.021 271.064 300.84L263.271 269.468C262.819 267.648 263.063 265.724 263.955 264.074C264.848 262.424 266.325 261.167 268.098 260.547L269.975 259.891C270.394 259.744 270.838 259.685 271.28 259.717C271.722 259.75 272.153 259.872 272.546 260.077C272.939 260.282 273.286 260.566 273.565 260.91C273.843 261.255 274.049 261.652 274.167 262.079L281.848 289.699C281.92 289.957 282.07 290.188 282.277 290.359L311.548 314.583C311.8 314.792 311.965 315.088 312.011 315.412C312.056 315.737 311.979 316.066 311.794 316.337L309.351 319.902C309.17 320.167 308.898 320.356 308.586 320.434C308.274 320.513 307.945 320.474 307.66 320.326V320.326Z" fill="#E6E6E6"/>
<path d="M368.788 339.718C369.105 339.781 369.435 339.715 369.704 339.535C369.973 339.356 370.16 339.078 370.225 338.761L370.888 335.448C370.951 335.131 370.886 334.801 370.706 334.532C370.526 334.263 370.247 334.076 369.93 334.013L360.329 332.095C360.011 332.033 359.681 332.098 359.412 332.278C359.143 332.457 358.956 332.736 358.892 333.053L358.229 336.366C358.197 336.523 358.197 336.685 358.228 336.842C358.259 336.999 358.321 337.149 358.41 337.282C358.499 337.415 358.614 337.53 358.747 337.619C358.88 337.708 359.03 337.77 359.187 337.801L368.788 339.718Z" fill="#E6E6E6"/>
</g>
<defs>
<clipPath id="clip0">
<rect width="547" height="423" fill="white"/>
</clipPath>
</defs>
</svg>
