<svg width="342" height="223" viewBox="0 0 342 223" fill="none" xmlns="http://www.w3.org/2000/svg">
<g clip-path="url(#clip0)">
<path d="M326.082 43.379H15.9182C11.6979 43.3745 7.65181 41.8021 4.6676 39.0066C1.68339 36.2111 0.00476668 32.4209 0 28.4675V14.9115C0.00476668 10.9581 1.68339 7.16791 4.6676 4.37242C7.65181 1.57694 11.6979 0.00446656 15.9182 0H326.082C330.302 0.00446524 334.348 1.57693 337.332 4.37242C340.317 7.1679 341.995 10.9581 342 14.9115V28.4675C341.995 32.4209 340.317 36.2111 337.332 39.0066C334.348 41.8021 330.302 43.3745 326.082 43.379ZM15.9182 0.903724C11.9537 0.907935 8.15281 2.38511 5.34946 5.01117C2.54612 7.63723 0.969227 11.1977 0.964734 14.9115V28.4675C0.969227 32.1813 2.54612 35.7418 5.34946 38.3678C8.15281 40.9939 11.9537 42.4711 15.9182 42.4753H326.082C330.046 42.4711 333.847 40.9939 336.651 38.3678C339.454 35.7418 341.031 32.1813 341.035 28.4675V14.9115C341.031 11.1977 339.454 7.63723 336.651 5.01117C333.847 2.38511 330.046 0.907935 326.082 0.903724H15.9182Z" fill="#3F3D56"/>
<path d="M245.525 13.1035H39.5537C34.492 13.1035 30.3887 16.9473 30.3887 21.6889V21.689C30.3887 26.4305 34.492 30.2744 39.5537 30.2744H245.525C250.587 30.2744 254.691 26.4305 254.691 21.6889C254.691 16.9473 250.587 13.1035 245.525 13.1035Z" fill="#E6E6E6"/>
<path d="M272.538 88.4043H66.5664C61.5047 88.4043 57.4014 92.2481 57.4014 96.9897V96.9897C57.4014 101.731 61.5047 105.575 66.5664 105.575H272.538C277.6 105.575 281.703 101.731 281.703 96.9897C281.703 92.2481 277.6 88.4043 272.538 88.4043Z" fill="#F08B33"/>
<path d="M272.538 142.999H66.5664C61.5047 142.999 57.4014 146.843 57.4014 151.584V151.584C57.4014 156.326 61.5047 160.17 66.5664 160.17H272.538C277.6 160.17 281.703 156.326 281.703 151.584C281.703 146.843 277.6 142.999 272.538 142.999Z" fill="#E6E6E6"/>
<path d="M272.538 197.594H66.5664C61.5047 197.594 57.4014 201.438 57.4014 206.179V206.179C57.4014 210.921 61.5047 214.765 66.5664 214.765H272.538C277.6 214.765 281.703 210.921 281.703 206.179C281.703 201.438 277.6 197.594 272.538 197.594Z" fill="#E6E6E6"/>
<path d="M311.849 30.9643C311.629 31.2581 311.294 31.4581 310.917 31.5204C310.54 31.5827 310.152 31.5021 309.839 31.2964L301.963 26.1631C301.65 25.9574 301.436 25.6434 301.37 25.2902C301.303 24.937 301.389 24.5736 301.609 24.2798C301.828 23.986 302.163 23.786 302.541 23.7237C302.918 23.6614 303.306 23.742 303.619 23.9477L311.495 29.081C311.808 29.2867 312.022 29.6007 312.088 29.9539C312.155 30.3071 312.069 30.6705 311.849 30.9643Z" fill="#F08B33"/>
<path d="M302.908 25.1329C301.745 26.6882 300.116 27.8856 298.227 28.5737C296.338 29.2619 294.274 29.4099 292.295 28.999C290.317 28.588 288.512 27.6367 287.111 26.2652C285.709 24.8937 284.773 23.1637 284.421 21.294C284.069 19.4242 284.317 17.4986 285.133 15.7608C285.95 14.023 287.298 12.5509 289.007 11.5308C290.716 10.5106 292.71 9.98823 294.737 10.0296C296.763 10.071 298.731 10.6744 300.391 11.7633C302.615 13.2255 304.129 15.4542 304.6 17.9606C305.072 20.467 304.463 23.0464 302.908 25.1329ZM288.217 15.4974C287.346 16.6639 286.863 18.0463 286.829 19.4699C286.796 20.8935 287.214 22.2944 288.031 23.4953C288.848 24.6963 290.027 25.6434 291.418 26.2168C292.809 26.7903 294.351 26.9644 295.848 26.7171C297.345 26.4699 298.73 25.8123 299.828 24.8276C300.926 23.8429 301.688 22.5753 302.017 21.1851C302.346 19.7949 302.227 18.3445 301.676 17.0174C301.125 15.6903 300.167 14.546 298.921 13.7292C297.251 12.6362 295.186 12.2085 293.179 12.5399C291.172 12.8714 289.388 13.935 288.217 15.4974Z" fill="#F08B33"/>
<path d="M317.158 113.765H24.8417C24.7138 113.765 24.5911 113.717 24.5007 113.633C24.4102 113.548 24.3594 113.433 24.3594 113.313C24.3594 113.193 24.4102 113.078 24.5007 112.994C24.5911 112.909 24.7138 112.861 24.8417 112.861H317.158C317.286 112.861 317.408 112.909 317.499 112.994C317.589 113.078 317.64 113.193 317.64 113.313C317.64 113.433 317.589 113.548 317.499 113.633C317.408 113.717 317.286 113.765 317.158 113.765Z" fill="#3F3D56"/>
<path d="M317.158 168.383H24.8417C24.7138 168.383 24.5911 168.336 24.5007 168.251C24.4102 168.166 24.3594 168.051 24.3594 167.931C24.3594 167.811 24.4102 167.697 24.5007 167.612C24.5911 167.527 24.7138 167.479 24.8417 167.479H317.158C317.286 167.479 317.408 167.527 317.499 167.612C317.589 167.697 317.64 167.811 317.64 167.931C317.64 168.051 317.589 168.166 317.499 168.251C317.408 168.336 317.286 168.383 317.158 168.383Z" fill="#3F3D56"/>
<path d="M317.158 222.999H24.8417C24.7138 222.999 24.5911 222.952 24.5007 222.867C24.4102 222.782 24.3594 222.667 24.3594 222.548C24.3594 222.428 24.4102 222.313 24.5007 222.228C24.5911 222.143 24.7138 222.096 24.8417 222.096H317.158C317.286 222.096 317.408 222.143 317.499 222.228C317.589 222.313 317.64 222.428 317.64 222.548C317.64 222.667 317.589 222.782 317.499 222.867C317.408 222.952 317.286 222.999 317.158 222.999Z" fill="#3F3D56"/>
</g>
<defs>
<clipPath id="clip0">
<rect width="342" height="223" fill="white"/>
</clipPath>
</defs>
</svg>
