<svg width="384" height="334" viewBox="0 0 384 334" fill="none" xmlns="http://www.w3.org/2000/svg">
<g clip-path="url(#clip0)">
<path d="M228.514 333.525H221.497C220.614 333.524 219.768 333.173 219.144 332.549C218.52 331.924 218.169 331.078 218.168 330.194V271.659C218.169 270.776 218.52 269.929 219.144 269.305C219.768 268.68 220.614 268.329 221.497 268.328H228.514C229.397 268.329 230.243 268.68 230.867 269.305C231.491 269.929 231.841 270.776 231.842 271.659V330.194C231.841 331.078 231.491 331.924 230.867 332.549C230.243 333.173 229.397 333.524 228.514 333.525Z" fill="#F08B33"/>
<path d="M213.684 333.525H206.666C205.784 333.524 204.938 333.173 204.314 332.549C203.69 331.924 203.339 331.078 203.338 330.194V271.659C203.339 270.776 203.69 269.929 204.314 269.305C204.938 268.68 205.784 268.329 206.666 268.328H213.684C214.566 268.329 215.412 268.68 216.036 269.305C216.66 269.929 217.011 270.776 217.012 271.659V330.194C217.011 331.078 216.66 331.924 216.036 332.549C215.412 333.173 214.566 333.524 213.684 333.525Z" fill="#F08B33"/>
<path d="M28.8614 144.106C27.4408 150.06 25.6462 151.477 23.9465 151.07C22.2467 150.664 21.2856 148.588 22.7062 142.635C24.1269 136.681 29.0911 129.51 29.0911 129.51C29.0911 129.51 30.2821 138.152 28.8614 144.106Z" fill="#CCCCCC"/>
<path d="M25.0577 247.84C23.637 253.794 21.8425 255.211 20.1427 254.805C18.443 254.399 17.4819 252.323 18.9025 246.369C20.3232 240.415 25.2874 233.244 25.2874 233.244C25.2874 233.244 26.4784 241.886 25.0577 247.84Z" fill="#CCCCCC"/>
<path d="M233.225 62.4418C233.225 62.4418 236.481 55.5473 231.219 53.7547C225.958 51.9622 226.336 59.183 226.336 59.183L232.737 62.9846" fill="#3F3D56"/>
<path d="M122.663 82.7264L111.758 91.5741C111.758 91.5741 275.36 146.601 294.02 157.517L292.178 142.098L276.721 123.256L246.779 104.14L198.447 89.0921L145.775 70.1348L122.663 82.7264Z" fill="#F08B33"/>
<path d="M205.985 104.73L168.971 197.183C168.971 197.183 163.056 212.493 176.129 215.427C183.989 217.191 188.144 212.419 190.208 208.333C192.412 203.968 186.428 200.13 183.438 203.998C183.389 204.06 183.34 204.124 183.292 204.19C183.218 204.287 175.376 210.377 175.381 202.043C175.4 200.121 175.798 198.222 176.553 196.455L212.928 109.021L205.985 104.73Z" fill="#3F3D56"/>
<path d="M229.468 58.5165C229.468 58.5165 219.052 56.9944 213.194 53.6816C213.194 53.6816 148.913 39.9885 111.798 91.0708C111.798 91.0708 286.524 131.55 294.06 157.014C294.06 157.014 305.026 109.89 246.934 66.392C246.934 66.392 232.722 61.4488 229.468 58.5165Z" fill="#3F3D56"/>
<path d="M31.2765 205.43C30.4097 209.063 29.3146 209.927 28.2775 209.68C27.2403 209.432 26.6538 208.165 27.5207 204.532C28.3876 200.899 31.4167 196.523 31.4167 196.523C31.4167 196.523 32.1434 201.797 31.2765 205.43Z" fill="#CCCCCC"/>
<path d="M4.17547 223.035C3.3086 226.668 2.21354 227.533 1.17639 227.285C0.139241 227.037 -0.44726 225.771 0.419609 222.138C1.28648 218.505 4.31561 214.129 4.31561 214.129C4.31561 214.129 5.04235 219.402 4.17547 223.035Z" fill="#CCCCCC"/>
<path d="M203.355 51.3166C201.934 57.2704 200.139 58.6876 198.44 58.2813C196.74 57.8751 195.779 55.7994 197.199 49.8456C198.62 43.8918 203.584 36.7207 203.584 36.7207C203.584 36.7207 204.775 45.3628 203.355 51.3166Z" fill="#CCCCCC"/>
<path d="M209.573 8.90637C208.707 12.5393 207.611 13.404 206.574 13.1562C205.537 12.9083 204.951 11.6417 205.818 8.0087C206.684 4.37572 209.714 0 209.714 0C209.714 0 210.44 5.27342 209.573 8.90637Z" fill="#CCCCCC"/>
<path d="M182.472 26.5118C181.605 30.1448 180.51 31.0095 179.473 30.7616C178.436 30.5138 177.85 29.2472 178.716 25.6142C179.583 21.9812 182.612 17.6055 182.612 17.6055C182.612 17.6055 183.339 22.8789 182.472 26.5118Z" fill="#CCCCCC"/>
<path d="M128.233 237.846C126.812 243.8 125.017 245.217 123.318 244.811C121.618 244.404 120.657 242.329 122.077 236.375C123.498 230.421 128.462 223.25 128.462 223.25C128.462 223.25 129.653 231.892 128.233 237.846Z" fill="#CCCCCC"/>
<path d="M134.451 195.438C133.584 199.071 132.489 199.935 131.452 199.687C130.415 199.439 129.828 198.173 130.695 194.54C131.562 190.907 134.591 186.531 134.591 186.531C134.591 186.531 135.318 191.805 134.451 195.438Z" fill="#CCCCCC"/>
<path d="M107.35 213.043C106.483 216.676 105.388 217.541 104.351 217.293C103.314 217.045 102.727 215.778 103.594 212.145C104.461 208.512 107.49 204.137 107.49 204.137C107.49 204.137 108.217 209.41 107.35 213.043Z" fill="#CCCCCC"/>
<path d="M100.18 60.3577C98.7596 66.3115 96.965 67.7286 95.2653 67.3223C93.5656 66.9161 92.6044 64.8404 94.0251 58.8866C95.4457 52.9328 100.41 45.7617 100.41 45.7617C100.41 45.7617 101.601 54.4038 100.18 60.3577Z" fill="#CCCCCC"/>
<path d="M96.3766 164.09C94.9559 170.044 93.1613 171.461 91.4616 171.055C89.7619 170.649 88.8007 168.573 90.2214 162.619C91.642 156.665 96.6062 149.494 96.6062 149.494C96.6062 149.494 97.7972 158.136 96.3766 164.09Z" fill="#CCCCCC"/>
<path d="M102.595 121.682C101.729 125.315 100.633 126.179 99.5963 125.932C98.5592 125.684 97.9727 124.417 98.8395 120.784C99.7064 117.151 102.736 112.775 102.736 112.775C102.736 112.775 103.462 118.049 102.595 121.682Z" fill="#CCCCCC"/>
<path d="M75.4943 139.287C74.6274 142.92 73.5324 143.785 72.4952 143.537C71.4581 143.289 70.8716 142.023 71.7385 138.39C72.6053 134.757 75.6345 130.381 75.6345 130.381C75.6345 130.381 76.3612 135.654 75.4943 139.287Z" fill="#CCCCCC"/>
<path d="M172.925 64.6409C171.505 70.5947 169.71 72.0118 168.01 71.6055C166.311 71.1993 165.35 69.1236 166.77 63.1698C168.191 57.216 173.155 50.0449 173.155 50.0449C173.155 50.0449 174.346 58.687 172.925 64.6409Z" fill="#CCCCCC"/>
<path d="M169.122 168.373C167.701 174.327 165.906 175.744 164.207 175.338C162.507 174.932 161.546 172.856 162.966 166.902C164.387 160.948 169.351 153.777 169.351 153.777C169.351 153.777 170.542 162.419 169.122 168.373Z" fill="#CCCCCC"/>
<path d="M175.341 125.963C174.474 129.596 173.379 130.461 172.341 130.213C171.304 129.965 170.718 128.698 171.585 125.065C172.452 121.432 175.481 117.057 175.481 117.057C175.481 117.057 176.207 122.33 175.341 125.963Z" fill="#CCCCCC"/>
<path d="M240.441 84.6252C239.02 90.579 237.225 91.9961 235.526 91.5899C233.826 91.1837 232.865 89.1079 234.285 83.1542C235.706 77.2004 240.67 70.0293 240.67 70.0293C240.67 70.0293 241.861 78.6714 240.441 84.6252Z" fill="#CCCCCC"/>
<path d="M219.558 59.8224C218.691 63.4554 217.596 64.3201 216.559 64.0722C215.522 63.8243 214.935 62.5577 215.802 58.9247C216.669 55.2918 219.698 50.916 219.698 50.916C219.698 50.916 220.425 56.1894 219.558 59.8224Z" fill="#CCCCCC"/>
<path d="M274.198 56.551C272.777 62.5048 270.983 63.9219 269.283 63.5157C267.583 63.1095 266.622 61.0337 268.043 55.0799C269.463 49.1262 274.428 41.9551 274.428 41.9551C274.428 41.9551 275.619 50.5972 274.198 56.551Z" fill="#CCCCCC"/>
<path d="M270.394 160.283C268.973 166.237 267.179 167.654 265.479 167.248C263.779 166.842 262.818 164.766 264.239 158.812C265.66 152.859 270.624 145.688 270.624 145.688C270.624 145.688 271.815 154.33 270.394 160.283Z" fill="#CCCCCC"/>
<path d="M276.613 117.875C275.746 121.508 274.651 122.373 273.614 122.125C272.577 121.877 271.99 120.61 272.857 116.977C273.724 113.344 276.753 108.969 276.753 108.969C276.753 108.969 277.48 114.242 276.613 117.875Z" fill="#CCCCCC"/>
<path d="M341.713 76.5354C340.292 82.4892 338.498 83.9063 336.798 83.5001C335.098 83.0938 334.137 81.0181 335.558 75.0643C336.978 69.1105 341.943 61.9395 341.943 61.9395C341.943 61.9395 343.134 70.5815 341.713 76.5354Z" fill="#CCCCCC"/>
<path d="M320.83 51.7326C319.963 55.3656 318.868 56.2302 317.831 55.9824C316.794 55.7345 316.208 54.4679 317.074 50.8349C317.941 47.2019 320.97 42.8262 320.97 42.8262C320.97 42.8262 321.697 48.0996 320.83 51.7326Z" fill="#CCCCCC"/>
<path d="M313.661 124.596C312.24 130.55 310.445 131.967 308.746 131.561C307.046 131.154 306.085 129.079 307.506 123.125C308.926 117.171 313.89 110 313.89 110C313.89 110 315.081 118.642 313.661 124.596Z" fill="#CCCCCC"/>
<path d="M309.857 228.33C308.437 234.284 306.642 235.701 304.943 235.295C303.243 234.889 302.282 232.813 303.702 226.859C305.123 220.905 310.087 213.734 310.087 213.734C310.087 213.734 311.278 222.376 309.857 228.33Z" fill="#CCCCCC"/>
<path d="M316.076 185.92C315.209 189.553 314.114 190.418 313.077 190.17C312.04 189.922 311.453 188.655 312.32 185.022C313.187 181.389 316.216 177.014 316.216 177.014C316.216 177.014 316.943 182.287 316.076 185.92Z" fill="#CCCCCC"/>
<path d="M381.176 144.582C379.755 150.536 377.961 151.953 376.261 151.547C374.561 151.141 373.6 149.065 375.021 143.111C376.441 137.157 381.406 129.986 381.406 129.986C381.406 129.986 382.597 138.628 381.176 144.582Z" fill="#CCCCCC"/>
<path d="M360.294 119.777C359.427 123.41 358.332 124.275 357.295 124.027C356.257 123.779 355.671 122.513 356.538 118.88C357.405 115.247 360.434 110.871 360.434 110.871C360.434 110.871 361.161 116.145 360.294 119.777Z" fill="#CCCCCC"/>
<path d="M222.467 204.208C235.859 204.208 246.715 193.343 246.715 179.94C246.715 166.537 235.859 155.672 222.467 155.672C209.075 155.672 198.219 166.537 198.219 179.94C198.219 193.343 209.075 204.208 222.467 204.208Z" fill="#F08B33"/>
<path d="M202.955 190.129C201.383 190.085 199.427 190.03 197.921 188.928C197.472 188.587 197.103 188.151 196.84 187.652C196.577 187.153 196.427 186.602 196.399 186.038C196.372 185.638 196.438 185.237 196.591 184.866C196.745 184.495 196.982 184.165 197.284 183.901C198.071 183.235 199.22 183.079 200.459 183.443L199.176 174.057L200.118 173.928L201.626 184.963L200.84 184.601C199.928 184.183 198.676 183.97 197.897 184.628C197.706 184.8 197.558 185.013 197.463 185.252C197.367 185.491 197.329 185.749 197.349 186.005C197.372 186.424 197.485 186.834 197.681 187.206C197.876 187.578 198.149 187.903 198.481 188.16C199.654 189.017 201.213 189.128 202.982 189.177L202.955 190.129Z" fill="#2F2E41"/>
<path d="M210.682 174.865H205.561V175.817H210.682V174.865Z" fill="#2F2E41"/>
<path d="M224.164 155.601C224.342 152.732 225.134 149.936 226.487 147.4C227.839 144.864 229.72 142.649 232.003 140.904C234.361 139.157 237.082 137.964 239.964 137.414C242.846 136.863 245.815 136.97 248.651 137.727C251.468 138.459 254.082 139.822 256.296 141.713C258.51 143.604 260.266 145.973 261.432 148.642C262.606 151.291 263.192 154.163 263.149 157.061C263.019 160.212 262.237 163.301 260.852 166.134C259.422 169.252 257.619 172.177 256.053 175.224C254.51 178.23 253.179 181.339 252.07 184.53C249.812 191.033 248.48 197.82 248.113 204.694C247.531 215.529 248.567 231.348 260.789 235.506C263.897 236.563 267.249 236.76 270.508 236.752C273.94 236.794 277.363 236.392 280.692 235.558C286.462 234.016 291.94 230.395 294.398 224.77C294.965 223.471 295.345 222.098 295.526 220.692C295.578 220.307 295.162 219.982 294.813 219.978C294.625 219.983 294.447 220.059 294.314 220.192C294.181 220.325 294.104 220.504 294.1 220.692C293.304 226.687 288.313 231.284 282.894 233.351C279.728 234.499 276.401 235.143 273.035 235.259C269.685 235.429 266.206 235.402 262.926 234.631C260.006 233.998 257.349 232.487 255.312 230.299C253.496 228.207 252.142 225.755 251.337 223.103C249.408 217.21 249.206 210.731 249.545 204.588C249.929 197.737 251.289 190.976 253.585 184.511C254.745 181.246 256.144 178.072 257.771 175.014C259.36 172.023 261.125 169.116 262.464 165.998C263.771 163.132 264.489 160.033 264.577 156.884C264.588 153.976 264.009 151.095 262.877 148.417C261.764 145.728 260.095 143.305 257.98 141.307C255.865 139.31 253.352 137.782 250.605 136.825C247.811 135.852 244.844 135.474 241.895 135.715C238.946 135.957 236.08 136.813 233.481 138.229C231.009 139.651 228.843 141.55 227.109 143.815C225.374 146.08 224.105 148.667 223.375 151.425C223.021 152.792 222.807 154.191 222.737 155.601C222.69 156.519 224.117 156.517 224.164 155.601L224.164 155.601Z" fill="#2F2E41"/>
<path d="M228.906 156.101C229.295 153.454 230.62 151.034 232.641 149.281C234.789 147.479 237.543 146.565 240.341 146.723C241.259 146.769 241.256 145.342 240.341 145.296C237.3 145.159 234.314 146.145 231.952 148.067C229.59 149.99 228.016 152.714 227.53 155.722C227.393 156.621 228.767 157.008 228.906 156.101Z" fill="#2F2E41"/>
<path d="M228.674 157.623L221.902 155.385C221.303 155.187 220.808 154.76 220.524 154.196C220.24 153.633 220.192 152.979 220.39 152.38C220.588 151.781 221.015 151.285 221.578 151.001C222.141 150.717 222.794 150.669 223.393 150.867L230.165 153.105C230.764 153.303 231.259 153.73 231.543 154.294C231.826 154.857 231.875 155.511 231.677 156.11C231.479 156.709 231.052 157.205 230.489 157.489C229.926 157.773 229.273 157.821 228.674 157.623Z" fill="#2F2E41"/>
<path d="M239.65 292.807H195.057C194.238 292.806 193.452 292.48 192.873 291.9C192.294 291.32 191.968 290.534 191.967 289.714V282.691C191.968 281.871 192.294 281.084 192.873 280.505C193.452 279.925 194.238 279.599 195.057 279.598H239.65C240.47 279.599 241.255 279.925 241.835 280.505C242.414 281.084 242.74 281.871 242.741 282.691V289.714C242.74 290.534 242.414 291.32 241.835 291.9C241.255 292.48 240.47 292.806 239.65 292.807Z" fill="#CCCCCC"/>
<path d="M249.151 282.177C249.128 282.177 249.106 282.177 249.084 282.177L186.727 280.863C186.268 280.853 185.817 280.741 185.407 280.535C184.997 280.33 184.637 280.035 184.355 279.673C184.073 279.311 183.875 278.891 183.775 278.442C183.675 277.994 183.677 277.529 183.779 277.082L198.961 210.559C199.115 209.874 199.497 209.263 200.045 208.826C200.593 208.388 201.273 208.151 201.974 208.154H212.137C219.296 208.179 226.229 210.656 231.785 215.174C237.34 219.691 241.183 225.977 242.672 232.984L252.174 278.451C252.268 278.901 252.261 279.366 252.152 279.813C252.044 280.26 251.838 280.677 251.548 281.034C251.258 281.391 250.893 281.679 250.478 281.876C250.063 282.074 249.61 282.177 249.151 282.177V282.177Z" fill="#2F2E41"/>
<path d="M209.088 244.542C208.275 244.543 207.495 244.223 206.917 243.651L165.302 202.519C165.013 202.234 164.783 201.894 164.626 201.52C164.468 201.146 164.385 200.744 164.383 200.338C164.38 199.932 164.458 199.529 164.611 199.153C164.764 198.777 164.989 198.434 165.274 198.145L170.205 193.148C170.781 192.564 171.565 192.234 172.385 192.229C173.205 192.223 173.993 192.544 174.576 193.121L216.191 234.252C216.773 234.829 217.103 235.614 217.108 236.434C217.113 237.254 216.793 238.042 216.218 238.627L211.287 243.624C211 243.915 210.657 244.146 210.28 244.304C209.902 244.462 209.497 244.542 209.088 244.542Z" fill="#F08B33"/>
<path d="M207.164 245.788L188.865 227.918C188.295 227.361 187.96 226.605 187.932 225.807C187.903 225.01 188.182 224.232 188.711 223.635L196.414 214.947C196.718 214.603 197.094 214.332 197.516 214.152C197.938 213.972 198.394 213.887 198.852 213.905C199.31 213.922 199.759 214.041 200.165 214.252C200.572 214.464 200.927 214.763 201.204 215.128L220.784 235.1C221.333 235.712 221.617 236.518 221.574 237.339C221.53 238.161 221.164 238.932 220.554 239.484L211.55 246.02C210.937 246.571 210.131 246.855 209.309 246.812C208.487 246.768 207.715 246.4 207.164 245.788Z" fill="#2F2E41"/>
<path d="M383.434 334H32.4061C32.3317 334.001 32.2579 333.986 32.189 333.958C32.1201 333.929 32.0575 333.888 32.0048 333.835C31.952 333.782 31.9102 333.72 31.8816 333.651C31.8531 333.582 31.8384 333.508 31.8384 333.434C31.8384 333.359 31.8531 333.285 31.8816 333.217C31.9102 333.148 31.952 333.085 32.0048 333.033C32.0575 332.98 32.1201 332.938 32.189 332.91C32.2579 332.881 32.3317 332.867 32.4061 332.867H383.434C383.508 332.867 383.582 332.881 383.651 332.91C383.72 332.938 383.782 332.98 383.835 333.033C383.888 333.085 383.93 333.148 383.958 333.217C383.987 333.285 384.002 333.359 384.002 333.434C384.002 333.508 383.987 333.582 383.958 333.651C383.93 333.72 383.888 333.782 383.835 333.835C383.782 333.888 383.72 333.929 383.651 333.958C383.582 333.986 383.508 334.001 383.434 334Z" fill="#3F3D56"/>
</g>
<defs>
<clipPath id="clip0">
<rect width="384" height="334" fill="white"/>
</clipPath>
</defs>
</svg>
