<svg width="538" height="406" viewBox="0 0 538 406" fill="none" xmlns="http://www.w3.org/2000/svg">
<g clip-path="url(#clip0)">
<path d="M248.1 86.6126H115.383C114.731 86.6118 114.106 86.3527 113.646 85.8922C113.185 85.4317 112.926 84.8073 112.925 84.156V51.2505C112.926 50.5992 113.185 49.9748 113.646 49.5143C114.106 49.0538 114.731 48.7947 115.383 48.7939H248.1C248.752 48.7947 249.377 49.0538 249.837 49.5143C250.298 49.9748 250.557 50.5992 250.558 51.2505V84.156C250.557 84.8073 250.298 85.4317 249.837 85.8922C249.377 86.3527 248.752 86.6118 248.1 86.6126V86.6126ZM115.383 49.7765C114.992 49.777 114.617 49.9324 114.34 50.2087C114.064 50.485 113.908 50.8597 113.908 51.2505V84.156C113.908 84.5468 114.064 84.9214 114.34 85.1978C114.617 85.4741 114.992 85.6295 115.383 85.6299H248.1C248.491 85.6295 248.866 85.4741 249.143 85.1978C249.419 84.9214 249.575 84.5468 249.575 84.156V51.2505C249.575 50.8597 249.419 50.485 249.143 50.2087C248.866 49.9324 248.491 49.777 248.1 49.7766L115.383 49.7765Z" fill="#3F3D56"/>
<path d="M136.005 76.4478C141.534 76.4478 146.016 71.9677 146.016 66.4412C146.016 60.9147 141.534 56.4346 136.005 56.4346C130.475 56.4346 125.993 60.9147 125.993 66.4412C125.993 71.9677 130.475 76.4478 136.005 76.4478Z" fill="#F08B33"/>
<path d="M159.126 59.7695C158.683 59.7695 158.259 59.9452 157.946 60.258C157.633 60.5708 157.457 60.995 157.457 61.4373C157.457 61.8796 157.633 62.3038 157.946 62.6166C158.259 62.9294 158.683 63.1051 159.126 63.1051H237.787C238.23 63.1051 238.654 62.9294 238.967 62.6166C239.28 62.3038 239.456 61.8796 239.456 61.4373C239.456 60.995 239.28 60.5708 238.967 60.258C238.654 59.9452 238.23 59.7695 237.787 59.7695H159.126Z" fill="#E6E6E6"/>
<path d="M159.126 69.7764C158.683 69.7764 158.259 69.9521 157.946 70.2648C157.633 70.5776 157.457 71.0018 157.457 71.4441C157.457 71.8865 157.633 72.3107 157.946 72.6234C158.259 72.9362 158.683 73.1119 159.126 73.1119H192.974C193.193 73.1123 193.411 73.0695 193.614 72.9858C193.816 72.9022 194.001 72.7794 194.156 72.6245C194.311 72.4696 194.434 72.2856 194.518 72.0831C194.602 71.8805 194.646 71.6634 194.646 71.4441C194.646 71.2249 194.602 71.0077 194.518 70.8052C194.434 70.6027 194.311 70.4187 194.156 70.2638C194.001 70.1089 193.816 69.9861 193.614 69.9024C193.411 69.8188 193.193 69.776 192.974 69.7764H159.126Z" fill="#E6E6E6"/>
<path d="M190.483 203.906H131.497C130.845 203.905 130.221 203.646 129.76 203.186C129.299 202.725 129.04 202.101 129.039 201.45V140.048C129.04 139.397 129.299 138.773 129.76 138.312C130.221 137.852 130.845 137.593 131.497 137.592H190.483C191.134 137.593 191.759 137.852 192.22 138.312C192.68 138.773 192.94 139.397 192.94 140.048V201.45C192.94 202.101 192.68 202.725 192.22 203.186C191.759 203.646 191.134 203.905 190.483 203.906ZM131.497 138.574C131.106 138.575 130.731 138.73 130.455 139.007C130.178 139.283 130.023 139.658 130.022 140.048V201.45C130.023 201.84 130.178 202.215 130.455 202.491C130.731 202.768 131.106 202.923 131.497 202.924H190.483C190.874 202.923 191.248 202.768 191.525 202.491C191.801 202.215 191.957 201.84 191.957 201.45V140.048C191.957 139.658 191.801 139.283 191.525 139.007C191.248 138.73 190.874 138.575 190.483 138.574H131.497Z" fill="#3F3D56"/>
<path d="M144.065 150.254C143.623 150.254 143.198 150.43 142.885 150.742C142.572 151.055 142.396 151.479 142.396 151.922C142.396 152.364 142.572 152.788 142.885 153.101C143.198 153.414 143.623 153.589 144.065 153.589H177.914C178.356 153.589 178.78 153.414 179.093 153.101C179.406 152.788 179.582 152.364 179.582 151.922C179.582 151.479 179.406 151.055 179.093 150.742C178.78 150.43 178.356 150.254 177.914 150.254H144.065Z" fill="#E6E6E6"/>
<path d="M144.065 160.08C143.846 160.08 143.629 160.123 143.426 160.206C143.223 160.29 143.039 160.413 142.883 160.567C142.728 160.722 142.605 160.906 142.521 161.109C142.437 161.311 142.394 161.529 142.394 161.748C142.394 161.967 142.437 162.184 142.521 162.387C142.605 162.589 142.728 162.773 142.883 162.928C143.039 163.083 143.223 163.206 143.426 163.29C143.629 163.373 143.846 163.416 144.065 163.416H177.914C178.356 163.416 178.781 163.24 179.093 162.927C179.406 162.614 179.582 162.19 179.582 161.748C179.582 161.306 179.406 160.881 179.093 160.569C178.781 160.256 178.356 160.08 177.914 160.08H144.065Z" fill="#E6E6E6"/>
<path d="M160.989 191.244C158.912 191.244 156.881 190.628 155.154 189.475C153.427 188.321 152.081 186.681 151.286 184.763C150.491 182.845 150.283 180.734 150.688 178.698C151.093 176.661 152.094 174.791 153.563 173.323C155.031 171.855 156.903 170.855 158.94 170.45C160.978 170.045 163.089 170.253 165.009 171.047C166.928 171.842 168.568 173.187 169.722 174.914C170.876 176.64 171.492 178.67 171.492 180.746C171.489 183.529 170.382 186.197 168.413 188.166C166.444 190.134 163.774 191.241 160.989 191.244V191.244Z" fill="#F08B33"/>
<path d="M287.111 0H346.097C346.749 0.000764746 347.373 0.259822 347.834 0.720346C348.295 1.18087 348.554 1.80526 348.555 2.45653V63.8579C348.554 64.5091 348.295 65.1335 347.834 65.594C347.373 66.0546 346.749 66.3136 346.097 66.3144H287.111C286.459 66.3136 285.835 66.0546 285.374 65.594C284.913 65.1335 284.654 64.5091 284.653 63.8579V2.45653C284.654 1.80526 284.913 1.18087 285.374 0.720346C285.835 0.259822 286.459 0.000764746 287.111 0V0ZM346.097 65.3318C346.488 65.3313 346.863 65.1759 347.139 64.8996C347.416 64.6233 347.571 64.2486 347.572 63.8579V2.45653C347.571 2.06576 347.416 1.69111 347.139 1.41478C346.863 1.13846 346.488 0.983039 346.097 0.982612H287.111C286.72 0.983039 286.345 1.13846 286.069 1.41478C285.792 1.69111 285.637 2.06576 285.636 2.45653V63.8579C285.637 64.2486 285.792 64.6233 286.069 64.8996C286.345 65.1759 286.72 65.3313 287.111 65.3318H346.097Z" fill="#3F3D56"/>
<path d="M333.528 53.6519C333.97 53.6519 334.395 53.4762 334.708 53.1635C335.021 52.8507 335.196 52.4265 335.196 51.9842C335.196 51.5419 335.021 51.1176 334.708 50.8049C334.395 50.4921 333.97 50.3164 333.528 50.3164H299.679C299.237 50.3164 298.812 50.4921 298.499 50.8049C298.187 51.1176 298.011 51.5419 298.011 51.9842C298.011 52.4265 298.187 52.8507 298.499 53.1635C298.812 53.4762 299.237 53.6519 299.679 53.6519H333.528Z" fill="#E6E6E6"/>
<path d="M333.528 43.8258C333.97 43.8258 334.395 43.6501 334.708 43.3373C335.021 43.0245 335.196 42.6003 335.196 42.158C335.196 41.7157 335.021 41.2915 334.708 40.9787C334.395 40.666 333.97 40.4902 333.528 40.4902H299.679C299.237 40.4902 298.812 40.666 298.499 40.9787C298.187 41.2915 298.011 41.7157 298.011 42.158C298.011 42.6003 298.187 43.0245 298.499 43.3373C298.812 43.6501 299.237 43.8258 299.679 43.8258H333.528Z" fill="#E6E6E6"/>
<path d="M316.604 12.6621C318.681 12.6621 320.712 13.2778 322.439 14.4313C324.166 15.5848 325.512 17.2244 326.307 19.1426C327.102 21.0608 327.31 23.1716 326.905 25.208C326.5 27.2444 325.499 29.1149 324.03 30.5831C322.561 32.0512 320.69 33.051 318.653 33.4561C316.615 33.8612 314.503 33.6533 312.584 32.8587C310.665 32.0641 309.025 30.7186 307.871 28.9922C306.717 27.2659 306.101 25.2362 306.101 23.16C306.104 20.3767 307.211 17.7084 309.18 15.7403C311.149 13.7723 313.819 12.6653 316.604 12.6621Z" fill="#F08B33"/>
<path d="M113.683 127.03C124.121 118.949 136.316 113.439 149.281 110.945C162.348 108.457 175.823 109.149 188.567 112.963C194.973 114.87 201.128 117.535 206.9 120.903C212.782 124.34 218.097 128.57 223.21 133.05C228.39 137.587 233.4 142.327 238.808 146.599C254.246 158.934 273.413 165.672 293.177 165.716C294.81 165.718 296.442 165.673 298.072 165.581C298.956 165.532 298.962 164.151 298.072 164.2C277.925 165.309 258.03 159.3 241.869 147.225C236.265 143.037 231.147 138.247 225.923 133.606C220.857 129.106 215.657 124.728 209.91 121.113C195.854 112.262 179.501 107.744 162.893 108.123C146.284 108.501 130.154 113.759 116.516 123.241C115.219 124.142 113.953 125.084 112.707 126.054C112.006 126.599 112.99 127.569 113.683 127.03V127.03Z" fill="#3F3D56"/>
<path d="M112.949 133.702C116.914 133.702 120.127 130.49 120.127 126.528C120.127 122.566 116.914 119.354 112.949 119.354C108.985 119.354 105.771 122.566 105.771 126.528C105.771 130.49 108.985 133.702 112.949 133.702Z" fill="#3F3D56"/>
<path d="M379.981 228.958C383.945 228.958 387.158 225.746 387.158 221.784C387.158 217.821 383.945 214.609 379.981 214.609C376.016 214.609 372.803 217.821 372.803 221.784C372.803 225.746 376.016 228.958 379.981 228.958Z" fill="#3F3D56"/>
<path d="M417.583 180.916H300.463C299.811 180.915 299.186 180.656 298.726 180.196C298.265 179.735 298.006 179.111 298.005 178.459V117.549C298.006 116.898 298.265 116.274 298.726 115.813C299.186 115.353 299.811 115.094 300.463 115.093H417.583C418.235 115.094 418.86 115.353 419.321 115.813C419.781 116.274 420.04 116.898 420.041 117.549V178.459C420.04 179.111 419.781 179.735 419.321 180.196C418.86 180.656 418.235 180.915 417.583 180.916ZM300.463 116.075C300.072 116.076 299.697 116.231 299.42 116.508C299.144 116.784 298.988 117.159 298.988 117.549V178.459C298.988 178.85 299.144 179.225 299.42 179.501C299.697 179.777 300.072 179.933 300.463 179.933H417.583C417.974 179.933 418.349 179.777 418.626 179.501C418.902 179.225 419.058 178.85 419.058 178.459V117.549C419.058 117.159 418.902 116.784 418.626 116.508C418.349 116.231 417.974 116.076 417.583 116.075H300.463Z" fill="#3F3D56"/>
<path d="M320.101 146.676C325.631 146.676 330.113 142.196 330.113 136.67C330.113 131.143 325.631 126.663 320.101 126.663C314.572 126.663 310.09 131.143 310.09 136.67C310.09 142.196 314.572 146.676 320.101 146.676Z" fill="#F08B33"/>
<path d="M343.223 129.999C343.004 129.999 342.787 130.041 342.584 130.125C342.381 130.209 342.197 130.332 342.042 130.486C341.886 130.641 341.763 130.825 341.679 131.028C341.595 131.23 341.552 131.448 341.552 131.667C341.552 131.886 341.595 132.103 341.679 132.306C341.763 132.508 341.886 132.692 342.042 132.847C342.197 133.002 342.381 133.125 342.584 133.209C342.787 133.292 343.004 133.335 343.223 133.335H406.288C406.731 133.335 407.155 133.159 407.468 132.846C407.781 132.533 407.957 132.109 407.957 131.667C407.957 131.224 407.781 130.8 407.468 130.488C407.155 130.175 406.731 129.999 406.288 129.999H343.223Z" fill="#E6E6E6"/>
<path d="M343.223 140.005C343.004 140.004 342.787 140.047 342.584 140.131C342.381 140.215 342.197 140.337 342.042 140.492C341.886 140.647 341.763 140.831 341.679 141.034C341.595 141.236 341.552 141.453 341.552 141.673C341.552 141.892 341.595 142.109 341.679 142.312C341.763 142.514 341.886 142.698 342.042 142.853C342.197 143.008 342.381 143.131 342.584 143.214C342.787 143.298 343.004 143.341 343.223 143.34H377.072C377.514 143.34 377.939 143.165 378.252 142.852C378.565 142.539 378.74 142.115 378.74 141.673C378.74 141.23 378.565 140.806 378.252 140.493C377.939 140.181 377.514 140.005 377.072 140.005H343.223Z" fill="#E6E6E6"/>
<path d="M312.422 156.003C311.153 156.003 310.12 156.751 310.12 157.671C310.12 158.59 311.153 159.338 312.422 159.338H405.354C406.624 159.338 407.657 158.59 407.657 157.671C407.657 156.751 406.624 156.003 405.354 156.003H312.422Z" fill="#E6E6E6"/>
<path d="M312.422 166.01C311.153 166.01 310.12 166.758 310.12 167.678C310.12 168.597 311.153 169.345 312.422 169.345H405.354C406.624 169.345 407.657 168.597 407.657 167.678C407.657 166.758 406.624 166.01 405.354 166.01H312.422Z" fill="#E6E6E6"/>
<path d="M291.048 228.463C297.655 225.598 305.032 228.096 311.26 230.737C314.468 232.097 317.641 233.548 320.96 234.622C323.753 235.523 326.613 236.201 329.513 236.648C335.333 237.539 341.251 237.575 347.081 236.755C352.941 235.939 358.652 234.279 364.036 231.828C369.39 229.402 374.339 226.168 378.71 222.239C379.266 221.737 379.811 221.223 380.346 220.698C380.981 220.076 380.005 219.1 379.369 219.722C375.16 223.823 370.329 227.231 365.054 229.822C359.801 232.404 354.198 234.203 348.423 235.162C342.629 236.139 336.722 236.241 330.897 235.465C327.992 235.072 325.123 234.449 322.317 233.6C319.093 232.553 315.931 231.325 312.846 229.924C306.56 227.226 299.575 224.583 292.668 226.444C291.877 226.663 291.102 226.94 290.351 227.271C289.537 227.624 290.24 228.814 291.048 228.463V228.463Z" fill="#3F3D56"/>
<path d="M288.495 245.396H233.161L246.183 222.852C246.416 222.448 246.752 222.112 247.156 221.879C247.561 221.645 248.019 221.523 248.486 221.523C248.953 221.523 249.411 221.645 249.816 221.879C250.22 222.112 250.556 222.448 250.789 222.852L256.352 232.482L265.81 216.107C266.103 215.601 266.523 215.181 267.029 214.889C267.535 214.597 268.109 214.443 268.694 214.443C269.278 214.443 269.852 214.597 270.358 214.889C270.864 215.181 271.285 215.601 271.577 216.107L288.495 245.396Z" fill="#F08B33"/>
<path d="M288.547 245.389H229.561C228.91 245.388 228.285 245.129 227.824 244.669C227.363 244.208 227.104 243.584 227.104 242.932V210.027C227.104 209.376 227.363 208.751 227.824 208.291C228.285 207.83 228.91 207.571 229.561 207.57H288.547C289.199 207.571 289.823 207.83 290.284 208.291C290.745 208.751 291.004 209.376 291.005 210.027V242.932C291.004 243.584 290.745 244.208 290.284 244.669C289.823 245.129 289.199 245.388 288.547 245.389ZM229.561 208.553C229.17 208.553 228.795 208.709 228.519 208.985C228.243 209.261 228.087 209.636 228.087 210.027V242.932C228.087 243.323 228.243 243.698 228.519 243.974C228.795 244.25 229.17 244.406 229.561 244.406H288.547C288.938 244.406 289.313 244.25 289.589 243.974C289.866 243.698 290.021 243.323 290.022 242.932V210.027C290.021 209.636 289.866 209.261 289.589 208.985C289.313 208.709 288.938 208.553 288.547 208.553H229.561Z" fill="#3F3D56"/>
<path d="M404.24 216.429L393.726 221.765C389.973 223.67 386.351 223.344 384.965 219.372C384.634 218.427 384.513 217.422 384.607 216.425C384.702 215.429 385.011 214.464 385.513 213.598C386.015 212.732 386.699 211.985 387.517 211.407C388.335 210.829 389.268 210.435 390.253 210.251L400.245 208.387L443.042 194.195L468.967 175.821L478.47 190.955L448.515 207.111L404.24 216.429Z" fill="#FFB8B8"/>
<path d="M453.321 393.561L445.276 392.221L446.17 377.033H454.662L453.321 393.561Z" fill="#FFB8B8"/>
<path d="M531.395 378.727L523.61 381.155L517.56 367.195L525.139 363.37L531.395 378.727Z" fill="#FFB8B8"/>
<path d="M527.06 365.419L517.228 369.439L470.303 307.797L455.555 380.16L445.723 378.373C439.416 315.987 434.273 252.353 440.584 222.257L477.007 220.693L493.542 273.402L501.586 309.137L527.06 365.419Z" fill="#2F2E41"/>
<path d="M452.878 405.844C451.407 406.159 449.874 405.996 448.502 405.379L443.724 403.229C439.717 403.024 436.989 403.821 434.758 400.912C434.128 400.08 433.733 399.095 433.613 398.059C433.493 397.023 433.653 395.974 434.075 395.02V395.02C434.494 394.063 435.16 393.235 436.005 392.621C436.85 392.006 437.843 391.627 438.883 391.524L445.446 387.39L445.791 390.489C448.791 392.187 452.352 391.454 456.126 389.8L458.186 397.007C458.452 397.936 458.524 398.91 458.397 399.868C458.271 400.826 457.949 401.748 457.451 402.576C456.953 403.405 456.291 404.123 455.504 404.685C454.717 405.247 453.824 405.641 452.878 405.844Z" fill="#2F2E41"/>
<path d="M534.58 391.06C533.291 391.836 531.788 392.179 530.291 392.041L525.073 391.559C521.216 392.665 518.895 394.305 515.839 392.277C514.974 391.694 514.28 390.891 513.83 389.95C513.38 389.009 513.19 387.965 513.28 386.926C513.365 385.885 513.726 384.886 514.325 384.03C514.925 383.175 515.741 382.495 516.691 382.059L521.556 376.019L522.888 378.838C526.277 379.471 529.408 377.621 532.44 374.832L536.729 380.979C537.283 381.772 537.667 382.67 537.859 383.617C538.05 384.564 538.045 385.541 537.844 386.486C537.642 387.431 537.248 388.325 536.687 389.112C536.126 389.899 535.408 390.562 534.58 391.06V391.06Z" fill="#2F2E41"/>
<path d="M463.599 157.265C472.485 157.265 479.688 150.065 479.688 141.184C479.688 132.303 472.485 125.104 463.599 125.104C454.714 125.104 447.511 132.303 447.511 141.184C447.511 150.065 454.714 157.265 463.599 157.265Z" fill="#FFB8B8"/>
<path d="M483.263 175.131L462.258 170.665L459.577 153.244L474.325 150.117L483.263 175.131Z" fill="#FFB8B8"/>
<path d="M477.453 222.927H439.913L448.375 201.693C447.76 194.387 450.858 189.013 455.292 184.334L460.918 170.218C470.007 164.238 476.859 164.685 484.157 172.451C492.808 184.695 486.82 203.1 477.453 222.927Z" fill="#F08B33"/>
<path d="M460.471 268.042L459.404 279.78C459.023 283.97 456.822 286.863 452.719 285.925C451.742 285.702 450.826 285.271 450.031 284.661C449.237 284.051 448.584 283.277 448.117 282.391C447.65 281.506 447.38 280.53 447.326 279.53C447.271 278.53 447.433 277.531 447.801 276.6L451.533 267.149L462.259 223.374L460.471 191.659H478.348L476.113 225.607L460.471 268.042Z" fill="#FFB8B8"/>
<path d="M479.688 192.553H459.131L460.572 179.149C460.667 176.83 461.625 174.631 463.259 172.983C464.893 171.335 467.084 170.357 469.403 170.241V170.241C470.631 170.18 471.86 170.362 473.017 170.779C474.175 171.195 475.238 171.837 476.146 172.666C477.053 173.496 477.788 174.498 478.305 175.613C478.823 176.728 479.115 177.935 479.163 179.164L479.688 192.553Z" fill="#F08B33"/>
<path d="M483.511 124.649C486.851 124.649 489.558 121.943 489.558 118.605C489.558 115.267 486.851 112.561 483.511 112.561C480.171 112.561 477.464 115.267 477.464 118.605C477.464 121.943 480.171 124.649 483.511 124.649Z" fill="#2F2E41"/>
<path d="M477.28 117.125C477.379 115.591 478.06 114.153 479.183 113.104C480.306 112.054 481.787 111.472 483.324 111.475C483.199 111.46 483.076 111.44 482.948 111.432C481.348 111.33 479.773 111.868 478.57 112.926C477.366 113.984 476.632 115.477 476.529 117.076C476.426 118.676 476.963 120.25 478.021 121.454C479.079 122.658 480.573 123.392 482.172 123.496C482.3 123.504 482.425 123.501 482.551 123.501C481.025 123.308 479.631 122.541 478.652 121.356C477.673 120.172 477.182 118.658 477.28 117.125V117.125Z" fill="#2F2E41"/>
<path d="M477.246 119.706C471.852 115.234 456.383 120.918 455.385 123.924C448.092 124.918 442.57 129.171 442.57 136.733V136.733C446.906 138.508 451.838 138.29 457.168 136.733C465.666 143.655 466.249 152.356 461.081 162.35L467.439 162.477L475.319 150.965L475.696 162.642L490.27 162.35V145.615C490.317 140.051 489.036 134.556 486.533 129.586C484.261 125.176 480.737 122.601 477.246 119.706Z" fill="#2F2E41"/>
<path d="M463.675 149.273C465.272 149.273 466.567 147.461 466.567 145.226C466.567 142.991 465.272 141.18 463.675 141.18C462.078 141.18 460.783 142.991 460.783 145.226C460.783 147.461 462.078 149.273 463.675 149.273Z" fill="#FFB8B8"/>
<path d="M99.8184 150.361C99.8184 150.361 101.559 120.246 110.596 127.089C119.633 133.932 106.65 153.154 106.65 153.154L99.8184 150.361Z" fill="#FFB9B9"/>
<path d="M66.1959 239.69C66.1959 239.69 86.2703 262.216 75.039 263.764C63.8077 265.312 59.3896 242.544 59.3896 242.544L66.1959 239.69Z" fill="#FFB9B9"/>
<path d="M40.001 133.067C42.5205 133.73 44.788 135.122 46.5187 137.069C48.2493 139.015 49.366 141.429 49.7285 144.008L56.1139 189.435L65.0656 225.672C65.0656 225.672 69.5413 229.698 67.751 231.935C65.9607 234.171 69.9889 243.566 69.9889 243.566L58.7994 247.145C58.7994 247.145 57.4566 237.75 55.2188 237.303C53.252 236.91 31.2358 178.125 25.929 163.884C25.1972 161.921 24.7832 160.804 24.7832 160.804C24.7832 160.804 25.6784 130.831 40.001 133.067Z" fill="#575A89"/>
<path d="M42.0443 369.965L48.9172 382.139C54.2396 393.496 49.5099 395.559 36.46 389.929L33.4854 375.555L42.0443 369.965Z" fill="#FFB9B9"/>
<path d="M45.5122 386.145C45.5122 386.145 48.7748 380.836 49.9549 381.724C51.135 382.613 56.0023 386.464 56.0023 386.464L62.3423 392.533C62.3423 392.533 83.7622 394.797 70.1515 402.298C56.5408 409.8 49.0191 403.58 49.0191 403.58C49.0191 403.58 29.9559 404.571 30.2634 399.255C30.5709 393.939 36.7189 385.529 36.7189 385.529C36.7189 385.529 44.4675 390.721 45.5122 386.145Z" fill="#2F2E41"/>
<path d="M11.5459 232.359L17.9893 310.286C17.9893 310.286 18.2041 356.87 25.077 365.886C31.9499 374.903 32.1647 379.411 32.1647 379.411L46.3401 372.112C46.3401 372.112 39.0376 359.95 40.541 358.088C41.4678 356.907 42.1273 355.539 42.474 354.079L38.608 305.992L45.9105 222.27L11.5459 232.359Z" fill="#2F2E41"/>
<path d="M29.1571 369.966L23.1434 385.851L9.50488 380.152L16.7001 368.248L29.1571 369.966Z" fill="#FFB9B9"/>
<path d="M19.1249 380.5C19.1249 380.5 24.2401 377.304 24.8795 378.583C25.5189 379.861 28.0764 385.293 28.0764 385.293L30.9537 393.281C30.9537 393.281 48.537 404.465 33.5113 405.104C18.4856 405.743 14.6492 397.116 14.6492 397.116C14.6492 397.116 -2.29466 389.766 0.262923 385.293C2.82051 380.819 11.772 376.18 11.772 376.18C11.772 376.18 16.2477 384.015 19.1249 380.5Z" fill="#2F2E41"/>
<path d="M66.0997 232.573L69.5362 304.275C69.5362 304.275 38.1785 369.106 34.742 370.823C33.718 371.352 32.8103 372.08 32.0726 372.965C31.3348 373.85 30.7818 374.874 30.4464 375.976L11.5459 371.253L20.1371 357.514L39.0376 311.573C39.0376 311.573 42.0445 310.285 42.9036 305.992C43.7628 301.698 45.481 301.698 41.1854 300.84C36.8898 299.981 36.8898 295.688 36.8898 295.688L22.7144 230.427L66.0997 232.573Z" fill="#2F2E41"/>
<path d="M67.596 105.662C69.1161 96.2997 62.7549 87.4783 53.3879 85.959C44.0209 84.4397 35.1952 90.7978 33.6752 100.16C32.1551 109.523 38.5163 118.344 47.8833 119.863C57.2503 121.383 66.076 115.024 67.596 105.662Z" fill="#FFB9B9"/>
<path d="M35.3862 103.984C35.3862 103.984 34.0975 125.881 32.3793 128.028C30.6611 130.175 50.4208 129.745 50.4208 129.745C50.4208 129.745 49.1321 111.283 50.4208 109.566C51.7094 107.849 35.3862 103.984 35.3862 103.984Z" fill="#FFB9B9"/>
<path d="M67.3867 237.297C67.3867 237.297 18.8465 233.004 9.82812 237.297C9.82812 237.297 13.1481 224.987 12.2902 223.701C11.6663 222.76 13.3876 187.695 12.8473 167.468C12.5409 156.054 9.90611 144.908 17.5654 136.434C20.1723 133.555 23.08 131.139 26.1493 129.959C26.1493 129.959 25.2915 121.802 29.5862 121.373C29.5862 121.373 45.9129 119.653 51.9234 124.809C53.8451 126.445 55.0539 131.434 55.182 135.732C52.2075 150.353 53.2603 166.577 55.9897 183.408C56.1568 184.477 56.3407 185.551 56.5245 186.626C59.4211 203.318 63.7994 220.527 67.3867 237.297Z" fill="#575A89"/>
<path d="M41.6592 107.971C43.1123 107.885 44.5312 108.375 45.9742 108.567C51.137 109.252 56.5078 105.508 57.6478 100.428C57.7391 99.7519 57.9408 99.095 58.2448 98.4838C59.0394 97.1872 60.849 96.94 62.3407 97.2381C63.8325 97.5363 65.2465 98.2341 66.7657 98.3138C69.1114 98.4368 71.3633 96.9935 72.6134 95.0058C73.7947 92.9553 74.2971 90.5839 74.0486 88.2308L72.9241 89.4104C72.4672 88.4442 72.2908 87.3692 72.415 86.3077C71.8191 86.1491 71.1924 86.146 70.595 86.2988C69.9976 86.4516 69.4494 86.7551 69.003 87.1803C68.0115 87.2858 68.7598 85.3421 68.0232 84.6704C67.6649 84.4504 67.2379 84.3705 66.8243 84.4462C64.7149 84.4665 63.0085 82.8539 61.3463 81.5558C58.4663 79.3115 55.0983 77.776 51.5147 77.0734C49.1329 76.609 46.6 76.5344 44.3411 77.4209C42.5176 78.2391 40.8719 79.406 39.4966 80.8557C35.9601 84.2547 32.8285 88.2483 31.3572 92.9265C30.1611 96.7582 30.1272 100.858 31.2598 104.709C31.8527 106.709 33.6394 113.558 36.255 113.718C39.5416 113.918 37.5684 108.215 41.6592 107.971Z" fill="#2F2E41"/>
<path d="M48.7711 135.176L54.927 135.835C54.927 135.835 60.9698 147.553 60.531 149.997C60.0922 152.441 59.1365 150.957 61.8563 154.868C64.5761 158.778 72.2938 168.886 73.2495 170.37C74.2052 171.854 100.259 151.985 98.6397 146.032C98.6397 146.032 106.868 151.932 110.394 152.717C110.394 152.717 83.5427 187.915 79.8009 192.419C76.0592 196.924 73.0477 195.999 67.9055 193.328C62.7633 190.657 36.749 164.017 36.749 164.017L48.7711 135.176Z" fill="#575A89"/>
<path opacity="0.1" d="M56.5247 186.626L35.1289 165.241L40.5433 163.476L55.9899 183.408C56.157 184.477 56.3409 185.551 56.5247 186.626Z" fill="black"/>
</g>
<defs>
<clipPath id="clip0">
<rect width="538" height="406" fill="white"/>
</clipPath>
</defs>
</svg>
