<svg width="342" height="223" viewBox="0 0 342 223" fill="none" xmlns="http://www.w3.org/2000/svg">
<g clip-path="url(#clip0)">
<path opacity="0.1" d="M238.253 67.0224C238.512 66.6719 238.656 66.2558 238.664 65.8276C238.664 63.2332 233.085 61.1338 226.204 61.1338C219.322 61.1338 213.744 63.2332 213.744 65.8276C213.756 66.3127 213.937 66.7805 214.257 67.159C206.595 67.9697 201.434 69.4888 201.434 71.2326C201.434 73.8242 212.843 75.9265 226.954 75.9265C241.066 75.9265 252.475 73.8242 252.475 71.2326C252.46 69.3978 246.66 67.7905 238.253 67.0224Z" fill="#F08B33"/>
<g opacity="0.2">
<path opacity="0.2" d="M273.247 203.064C273.139 203.805 273.096 204.553 273.118 205.3C278.35 205.38 283.605 205.547 288.884 205.801C288.92 205.608 288.956 205.406 288.986 205.204C289.324 203.119 289.07 200.986 288.25 199.025C287.163 196.513 285.137 194.718 282.6 194.374C280.062 194.029 277.588 195.21 275.802 197.318C274.424 198.983 273.542 200.967 273.247 203.064Z" fill="#3F3D56"/>
<path opacity="0.2" d="M290.812 193.286C291.629 187.896 288.769 183.047 284.423 182.455C280.076 181.863 275.89 185.753 275.072 191.143C274.255 196.533 277.115 201.382 281.461 201.974C285.808 202.566 289.994 198.676 290.812 193.286Z" fill="#3F3D56"/>
<path opacity="0.2" d="M292.619 181.361C293.437 175.971 290.577 171.121 286.23 170.529C281.884 169.937 277.698 173.827 276.88 179.217C276.062 184.607 278.923 189.456 283.269 190.048C287.615 190.64 291.802 186.751 292.619 181.361Z" fill="#3F3D56"/>
<path opacity="0.2" d="M294.429 169.431C295.247 164.041 292.386 159.191 288.04 158.599C283.694 158.008 279.507 161.897 278.69 167.287C277.872 172.677 280.732 177.527 285.079 178.119C289.425 178.711 293.611 174.821 294.429 169.431Z" fill="#3F3D56"/>
<path opacity="0.2" d="M296.237 157.501C297.054 152.111 294.194 147.262 289.848 146.67C285.501 146.078 281.315 149.968 280.497 155.358C279.68 160.748 282.54 165.597 286.886 166.189C291.232 166.781 295.419 162.891 296.237 157.501Z" fill="#3F3D56"/>
<path opacity="0.2" d="M330.191 78.8057C331.463 77.6511 332.65 76.4155 333.743 75.1075L313.555 69.0852L335.893 72.2884C338.71 68.1568 340.607 63.524 341.469 58.6737C342.33 53.8233 342.138 48.8574 340.904 44.0798L308.67 54.7391L339.256 39.2437C337.306 34.6481 334.379 30.4819 330.657 27.0047C326.934 23.5275 322.496 20.8138 317.618 19.0324C312.74 17.2511 307.528 16.4404 302.305 16.6507C297.082 16.8611 291.961 18.088 287.261 20.2551C282.56 22.4223 278.381 25.4831 274.983 29.2471C271.585 33.0111 269.042 37.3976 267.511 42.1334C265.981 46.8692 265.496 51.8529 266.086 56.7741C266.677 61.6953 268.33 66.4486 270.944 70.738C268.963 72.5287 267.191 74.5163 265.66 76.6664L290.496 93.5301L263.261 80.5353C260.398 85.8889 258.989 91.8344 259.162 97.8337C259.335 103.833 261.084 109.697 264.251 114.894C259.08 119.566 255.4 125.523 253.632 132.083C251.865 138.643 252.081 145.542 254.257 151.991C256.433 158.44 260.48 164.179 265.936 168.551C271.392 172.923 278.036 175.753 285.11 176.716C292.183 177.679 299.399 176.737 305.934 173.997C312.468 171.258 318.058 166.831 322.062 161.224C326.067 155.616 328.325 149.055 328.579 142.288C328.833 135.522 327.073 128.825 323.499 122.962C329.678 117.378 333.697 109.989 334.911 101.982C336.126 93.9737 334.464 85.8115 330.194 78.8057H330.191Z" fill="#F08B33"/>
<path opacity="0.1" d="M259.532 91.7175C258.303 99.7258 259.965 107.893 264.249 114.894C259.077 119.566 255.397 125.522 253.629 132.082C251.862 138.642 252.079 145.541 254.254 151.99C256.43 158.439 260.477 164.178 265.933 168.55C271.389 172.923 278.034 175.752 285.107 176.715C292.18 177.679 299.396 176.736 305.931 173.997C312.465 171.257 318.055 166.831 322.059 161.223C326.064 155.616 328.322 149.054 328.576 142.288C328.83 135.522 327.07 128.824 323.496 122.961C329.468 117.573 260.138 87.7092 259.532 91.7175Z" fill="black"/>
</g>
<g opacity="0.2">
<path opacity="0.2" d="M49.9784 192.518C50.097 193.16 50.2728 193.792 50.5039 194.407C54.7694 193.106 59.0789 191.873 63.4324 190.709C63.4084 190.538 63.3814 190.362 63.3484 190.185C63.04 188.374 62.2345 186.67 61.0124 185.247C59.4241 183.446 57.2744 182.484 55.1186 182.863C52.9629 183.241 51.2875 184.854 50.4318 187.084C49.7841 188.827 49.6278 190.7 49.9784 192.518Z" fill="#3F3D56"/>
<path opacity="0.2" d="M56.2106 189.479C59.9186 188.923 62.2883 184.662 61.5035 179.962C60.7186 175.262 57.0764 171.902 53.3683 172.457C49.6603 173.013 47.2905 177.274 48.0754 181.975C48.8603 186.675 52.5025 190.035 56.2106 189.479Z" fill="#3F3D56"/>
<path opacity="0.2" d="M55.2326 179.329C58.9492 178.76 61.3107 174.48 60.507 169.768C59.7034 165.057 56.039 161.699 52.3223 162.268C48.6057 162.837 46.2442 167.118 47.0479 171.829C47.8515 176.541 51.5159 179.899 55.2326 179.329Z" fill="#3F3D56"/>
<path opacity="0.2" d="M52.4264 168.729C56.1345 168.173 58.5042 163.912 57.7193 159.212C56.9345 154.512 53.2922 151.152 49.5842 151.707C45.8761 152.263 43.5064 156.524 44.2912 161.225C45.0761 165.925 48.7183 169.285 52.4264 168.729Z" fill="#3F3D56"/>
<path opacity="0.2" d="M50.5377 158.351C54.2458 157.796 56.6155 153.534 55.8306 148.834C55.0458 144.134 51.4035 140.774 47.6955 141.33C43.9874 141.885 41.6177 146.146 42.4026 150.847C43.1874 155.547 46.8296 158.907 50.5377 158.351Z" fill="#3F3D56"/>
<path opacity="0.2" d="M61.1956 74.4779C61.9033 73.1912 62.5182 71.8606 63.0361 70.4952L44.9614 70.7626L63.9849 67.585C65.1784 63.1731 65.3708 58.5715 64.5494 54.0839C63.8327 50.1125 62.3269 46.3062 60.1117 42.867L36.9599 60.1375L57.4125 39.2769C50.1826 30.9731 38.7073 26.5438 26.8656 28.6091C9.16617 31.6871 -2.62444 48.0957 0.501106 65.2495C1.73478 72.179 5.37885 78.5186 10.8536 83.2596C9.74663 85.2661 8.86798 87.3783 8.23241 89.5607L33.1287 97.0737L7.36471 93.4012C6.82802 96.805 6.8706 100.268 7.49081 103.659C8.72448 110.589 12.3685 116.928 17.8433 121.669C14.3871 127.935 13.2083 135.105 14.4895 142.069C17.6151 159.226 34.4858 170.63 52.1733 167.544C69.8607 164.457 81.6633 148.052 78.5378 130.895C77.3028 123.967 73.6589 117.628 68.1853 112.888C71.6409 106.621 72.8196 99.4504 71.5391 92.4851C70.3065 85.558 66.6659 79.2198 61.1956 74.4779Z" fill="#F08B33"/>
<path opacity="0.1" d="M7.49979 103.659C8.73346 110.589 12.3775 116.928 17.8522 121.669C14.3961 127.934 13.2173 135.105 14.4985 142.069C17.624 159.226 34.4948 170.63 52.1822 167.544C69.8697 164.457 81.6723 148.052 78.5467 130.895C77.3118 123.967 73.6679 117.628 68.1943 112.888C71.524 106.851 6.86327 100.174 7.49979 103.659Z" fill="black"/>
</g>
<path d="M34.1836 168.808C34.1836 183.689 44.0346 195.728 56.2096 195.728L34.1836 168.808Z" fill="#46455B"/>
<path d="M56.209 195.727C56.209 180.681 67.204 168.506 80.793 168.506L56.209 195.727Z" fill="#F08B33"/>
<path d="M42.1641 170.156C42.1641 184.292 48.4452 195.728 56.2095 195.728L42.1641 170.156Z" fill="#F08B33"/>
<path d="M56.209 195.727C56.209 176.502 68.9183 160.944 84.6242 160.944L56.209 195.727Z" fill="#46455B"/>
<path opacity="0.1" d="M158.485 211.806C243.219 211.806 311.91 209.642 311.91 206.973C311.91 204.304 243.219 202.14 158.485 202.14C73.7504 202.14 5.05957 204.304 5.05957 206.973C5.05957 209.642 73.7504 211.806 158.485 211.806Z" fill="#F08B33"/>
<path opacity="0.1" d="M53.6662 199.548C56.7637 199.548 59.2748 199.145 59.2748 198.649C59.2748 198.152 56.7637 197.75 53.6662 197.75C50.5687 197.75 48.0576 198.152 48.0576 198.649C48.0576 199.145 50.5687 199.548 53.6662 199.548Z" fill="#F08B33"/>
<path d="M49.8975 194.472C49.8975 194.472 53.0981 194.381 54.0619 193.73C55.0256 193.079 58.9799 192.308 59.2201 193.346C59.4603 194.384 64.024 198.535 60.421 198.56C56.8181 198.586 52.0322 198.028 51.0684 197.474C50.1046 196.919 49.8975 194.472 49.8975 194.472Z" fill="#A8A8A8"/>
<path opacity="0.2" d="M60.4811 198.199C56.8781 198.225 52.0892 197.664 51.1285 197.11C50.3959 196.689 50.1016 195.17 50.0055 194.47H49.8975C49.8975 194.47 50.1016 196.916 51.0624 197.471C52.0232 198.026 56.8061 198.586 60.415 198.558C61.4569 198.558 61.8172 198.199 61.7992 197.679C61.655 197.997 61.2557 198.194 60.4811 198.199Z" fill="black"/>
<path d="M206.427 56.5962C202.119 36.4781 183.654 21.3213 161.189 21.3213C143.34 21.3213 127.952 30.9422 120.257 44.9327C101.792 46.6822 87.3291 61.5517 87.3291 79.6387C87.3291 98.8806 103.945 114.629 124.259 114.629H204.275C221.199 114.629 235.05 101.506 235.05 85.4704C235.082 78.1021 232.133 71.0022 226.809 65.6313C221.485 60.2604 214.191 57.027 206.427 56.5962ZM171.034 73.7927V95.9533H151.338V73.7927H130.411L161.186 44.6482L191.961 73.8069L171.034 73.7927Z" fill="#F08B33"/>
<path d="M131.09 70.4647C130.789 68.8404 130.936 67.0909 130.15 65.6287C130.074 65.4561 129.95 65.3058 129.793 65.1934C129.597 65.0931 129.376 65.0449 129.153 65.054C128.441 65.0284 127.733 65.0199 127.021 65.0369C126.823 65.0369 126.589 65.0654 126.487 65.2304C126.475 65.2479 126.466 65.2671 126.46 65.2873C125.646 64.4339 125.031 63.3557 124.154 62.5592C124.28 62.5193 124.403 62.4824 124.532 62.4511C124.532 62.3686 124.502 62.2918 124.484 62.2121C124.484 62.1865 124.469 62.1637 124.463 62.141C124.457 62.1182 124.436 62.0329 124.418 61.9788C124.4 61.9248 124.4 61.9248 124.388 61.8992C124.373 61.8481 124.355 61.7978 124.334 61.7484C124.334 61.7228 124.313 61.6972 124.301 61.6716L124.238 61.5208L124.202 61.4497C124.178 61.3985 124.154 61.3473 124.127 61.2989L124.091 61.2364C124.064 61.1823 124.034 61.1283 124.004 61.0742L123.974 61.023C123.941 60.9661 123.905 60.9092 123.872 60.8495C123.863 60.8402 123.856 60.8296 123.851 60.8182C123.812 60.7528 123.77 60.6873 123.728 60.6247C123.385 60.0956 123.007 59.575 122.728 59.0317C122.238 58.0758 122.076 56.9977 121.749 55.9793C121.422 54.9608 120.848 53.9254 119.875 53.4389C119.404 53.2113 118.774 53.0093 118.729 52.5058C118.727 52.344 118.763 52.1838 118.834 52.0364C118.969 51.7102 119.132 51.3952 119.323 51.0948C119.395 50.9867 119.47 50.8786 119.545 50.7705L119.605 50.6937C119.665 50.6141 119.728 50.5344 119.791 50.4604L119.869 50.3666C119.933 50.2926 119.999 50.2243 120.065 50.1532L120.146 50.0707C120.239 49.9768 120.332 49.8858 120.431 49.7862C120.522 49.7197 120.594 49.6327 120.641 49.5331C120.667 49.4345 120.672 49.332 120.656 49.2315C120.608 48.4179 121.058 47.6584 121.557 47.0041C122.055 46.3498 122.644 45.7296 122.929 44.9644C122.962 44.8762 122.989 44.788 123.013 44.697C123.022 44.668 123.029 44.6385 123.034 44.6088C123.049 44.5491 123.061 44.4893 123.073 44.4267L123.091 44.3243C123.091 44.2674 123.106 44.2105 123.112 44.1565V44.0455V43.8777V43.7668C123.112 43.7127 123.112 43.6558 123.112 43.5989C123.112 43.542 123.112 43.5278 123.112 43.4908C123.112 43.4538 123.112 43.3713 123.097 43.3116V43.2149C123.097 43.1466 123.076 43.0755 123.067 43.0072C123.067 42.9844 123.067 42.9617 123.067 42.9389C123.053 42.846 123.035 42.7512 123.013 42.6545C122.87 42.0501 122.685 41.4552 122.461 40.8736C122.341 40.5164 122.188 40.1699 122.004 39.8382C122.115 39.8182 122.229 39.7955 122.34 39.767C122.252 39.6363 122.171 39.5015 122.097 39.3631C122.788 38.3986 123.307 37.3327 123.632 36.2083C123.804 35.405 123.904 34.5895 123.932 33.7703C124.097 31.3067 124.265 28.8318 124.049 26.3739V26.2772C124.13 25.7494 124.136 25.2136 124.067 24.6842C123.997 23.6486 123.675 22.6426 123.124 21.7455C122.542 20.875 121.581 20.107 120.512 20.0046C120.336 20.1926 120.141 20.3641 119.93 20.5166C119.608 20.2488 119.372 19.9009 119.248 19.5124C120.496 19.3268 121.645 18.7581 122.519 17.8937C123.393 17.0293 123.943 15.9169 124.085 14.7275C124.085 14.6394 124.106 14.5483 124.112 14.4601C124.112 14.4232 124.112 14.3862 124.112 14.3492C124.112 14.3122 124.112 14.2439 124.112 14.1927C124.112 14.1415 124.112 14.0989 124.112 14.0505V13.9339C124.112 13.8798 124.112 13.8229 124.112 13.7689C124.112 13.7148 124.112 13.7091 124.112 13.6807C124.112 13.6522 124.112 13.5555 124.094 13.4958C124.095 13.474 124.095 13.4521 124.094 13.4303L124.067 13.2312V13.1885C124.067 13.1174 124.043 13.0463 124.028 12.9752V12.9524C124.013 12.8756 123.995 12.8016 123.974 12.7248C123.839 12.2071 123.626 11.7106 123.34 11.2513C123.575 10.7487 123.729 10.2155 123.797 9.66958C123.797 9.57001 123.818 9.47329 123.824 9.3851C123.83 9.29691 123.824 9.25993 123.824 9.19735C123.824 9.13476 123.824 9.13476 123.824 9.10631C123.824 9.02382 123.824 8.94132 123.824 8.86167C123.822 8.85319 123.822 8.84454 123.824 8.83606C123.78 7.46896 123.204 6.1656 122.205 5.17771C122.32 4.99741 122.415 4.80684 122.491 4.60877C122.515 4.54903 122.536 4.48929 122.554 4.4267C122.572 4.36696 122.59 4.31007 122.605 4.25033V4.2361L122.641 4.07395C122.639 4.06454 122.639 4.05492 122.641 4.0455C122.641 3.98292 122.662 3.91749 122.671 3.85206C122.68 3.78663 122.671 3.71836 122.689 3.65293C122.689 3.63302 122.689 3.61026 122.689 3.59034C122.689 3.57043 122.689 3.49647 122.689 3.45095V3.38268C122.689 3.33716 122.689 3.2888 122.689 3.24328C122.689 3.19777 122.689 3.20346 122.689 3.18354C122.638 2.33841 122.253 1.54239 121.611 0.954145C120.968 0.365905 120.116 0.0286612 119.222 0.00963967C118.329 -0.00938182 117.461 0.291216 116.792 0.851513C116.122 1.41181 115.7 2.19065 115.609 3.03277C115.566 3.37662 115.577 3.72469 115.642 4.06542C114.769 4.4688 114.017 5.07307 113.454 5.82298C112.891 6.57289 112.536 7.44451 112.42 8.35815C112.383 8.66399 112.372 8.97227 112.387 9.27984C111.869 10.0501 111.56 10.9295 111.487 11.8401C111.487 11.8743 111.487 11.9084 111.487 11.9425C111.487 12.0563 111.472 12.173 111.472 12.2867C111.469 13.1293 111.67 13.9613 112.058 14.7191C112.447 15.4769 113.014 16.1405 113.714 16.6591C114.007 17.1074 114.394 17.4945 114.849 17.797C114.932 18.0287 114.993 18.2666 115.033 18.5082C115.066 18.833 115.021 19.1607 114.902 19.4667C114.782 19.7727 114.591 20.049 114.342 20.2748C114.213 20.3772 114.069 20.4626 113.934 20.5593C113.797 20.5224 113.653 20.5224 113.516 20.5593C111.967 21.0201 110.484 21.9333 109.772 23.3301C109.614 23.6478 109.49 23.9794 109.4 24.32L109.316 24.4424C108.375 25.8377 107.698 27.378 107.316 28.994C107.121 29.8218 106.998 30.6809 106.59 31.4348C106.492 31.5921 106.412 31.759 106.352 31.9326C106.318 32.1977 106.306 32.465 106.316 32.732C106.274 33.2156 105.977 33.6451 105.878 34.1202C105.818 34.4047 105.83 34.6892 105.779 34.9736C105.636 35.4624 105.448 35.9383 105.218 36.396C104.899 37.2324 104.902 38.1512 104.665 39.0132C104.636 39.1552 104.572 39.2887 104.479 39.4029C104.291 39.5416 104.08 39.6493 103.854 39.7215C103.689 39.8195 103.548 39.9495 103.44 40.103C103.332 40.2565 103.259 40.4299 103.227 40.6119C103.164 40.9789 103.157 41.3525 103.206 41.7214L103.323 43.1637L101.618 43.653L98.8193 44.4637C97.9993 44.6602 97.2157 44.9739 96.4954 45.3939C95.8535 45.8176 95.3467 46.4002 95.0302 47.078C94.7464 47.7848 94.5636 48.5244 94.4868 49.277C94.2163 51.3828 93.7347 53.4594 93.0486 55.4786C92.9915 55.6322 92.9315 55.7887 92.8714 55.9423L92.6823 56.3946C92.6673 56.4259 92.6522 56.4572 92.6402 56.4885L92.4781 56.8498C92.4061 57.0034 92.331 57.1541 92.2529 57.3049L98.8073 59.3759C98.8073 59.4499 98.8223 59.5295 98.8343 59.6177C99.0625 61.1425 98.9514 62.69 99.1616 64.2177C99.1887 64.4716 99.2503 64.7211 99.3447 64.9601C99.1783 65.0967 99.0582 65.2768 98.9994 65.4779C98.9254 65.8033 98.9142 66.1387 98.9664 66.4679C99.0415 67.2473 99.1135 68.0268 99.1886 68.8062C99.2241 69.0897 99.2241 69.3762 99.1886 69.6597C99.1075 70.1746 98.7953 70.6269 98.6241 71.119C98.453 71.6112 98.462 72.2427 98.8913 72.5414C99.0412 72.6384 99.2148 72.6975 99.3956 72.7129C99.5764 72.7284 99.7584 72.6997 99.9242 72.6296C100.255 72.4854 100.548 72.2725 100.78 72.0066C102.098 70.6184 102.689 68.7437 103.713 67.1421C103.977 66.7728 104.212 66.3858 104.416 65.9843C104.557 65.6742 104.647 65.3442 104.761 65.0227C104.919 64.5947 105.107 64.1774 105.326 63.7739C105.449 63.5435 105.926 62.9887 105.818 62.7327C105.65 62.2918 103.851 61.9049 103.416 61.7683C103.138 61.6509 102.824 61.6377 102.536 61.7313C102.493 61.751 102.453 61.7758 102.416 61.8053L102.263 59.9249C102.53 59.9022 102.795 59.8709 103.056 59.8282C103.056 59.4755 103.047 59.1199 103.029 58.7614C103.029 58.4371 103.014 58.11 103.005 57.7828C102.987 56.9863 102.969 56.1898 102.948 55.4075C102.942 54.9463 102.911 54.4858 102.855 54.0278C102.752 53.3308 102.527 52.6481 102.455 51.9454C102.564 51.864 102.691 51.8093 102.828 51.7861C103.038 51.7542 103.252 51.7465 103.464 51.7633H103.632C104.564 51.7504 105.477 51.5115 106.283 51.0692C107.109 50.6624 107.875 50.1532 108.685 49.735L108.986 49.5843L109.1 49.5302L109.292 49.4392L109.451 49.3681L109.487 49.351C109.964 49.1348 110.448 48.9243 110.91 48.6882C110.941 48.7364 110.975 48.7829 111.012 48.8276C111.124 48.9721 111.279 49.082 111.457 49.1433C111.635 49.2045 111.828 49.2145 112.012 49.1718C111.445 50.4661 110.778 51.7178 110.61 53.1174C110.364 55.1401 111.21 57.1001 112.054 58.9833L114.723 64.9573C115.024 65.6173 115.411 66.3569 116.14 66.5134C116.604 66.5725 117.075 66.4835 117.48 66.2602C118.702 65.7083 119.8 64.9175 120.92 64.1778L120.965 64.212C121.977 64.9687 122.611 66.0241 123.31 67.034L125.181 69.947C125.168 70.0929 125.194 70.2396 125.256 70.3737C125.392 70.6149 125.57 70.8331 125.781 71.0195C126.97 72.2326 127.754 73.752 128.033 75.3861C128.057 75.8046 128.185 76.2119 128.405 76.5753C128.907 77.2352 129.976 77.1926 130.729 76.8171C130.962 76.7161 131.163 76.5592 131.312 76.3619C131.438 76.1498 131.518 75.9156 131.546 75.6735C131.684 75.0712 131.759 74.4576 131.771 73.8414C131.759 72.7235 131.306 71.6112 131.09 70.4647ZM120.35 16.8639C120.481 16.7822 120.607 16.6939 120.728 16.5994C120.475 17.3216 120.066 17.9861 119.527 18.5509C119.401 18.6817 119.266 18.8041 119.128 18.9235V18.8325C119.113 18.548 119.128 18.2323 119.128 17.9307C119.609 17.6597 120.025 17.2963 120.35 16.8639ZM109.748 39.3119L109.766 39.2578C109.873 39.3306 109.965 39.42 110.039 39.5224C109.967 39.6751 109.933 39.8419 109.94 40.0093C109.947 40.1767 109.996 40.3402 110.081 40.4868C110.238 40.7371 110.52 40.9704 110.46 41.2577C110.4 41.545 110.015 41.6588 109.703 41.7072C109.292 41.7697 108.886 41.8409 108.481 41.9177C108.481 41.9177 108.481 41.9177 108.481 41.8978C108.49 41.5772 108.444 41.2573 108.346 40.9504C109.046 40.666 109.478 39.9889 109.748 39.3119Z" fill="url(#paint0_linear)"/>
<path d="M122.245 6.19327C122.514 5.76115 122.679 5.27754 122.726 4.77763C122.773 4.27772 122.703 3.77408 122.519 3.30336C122.335 2.83263 122.043 2.40666 121.663 2.05645C121.284 1.70623 120.827 1.44058 120.325 1.27881C119.824 1.11704 119.29 1.06324 118.764 1.12131C118.238 1.17938 117.732 1.34786 117.283 1.61449C116.834 1.88113 116.454 2.23922 116.17 2.66269C115.885 3.08617 115.704 3.56439 115.639 4.06255C115.594 4.40254 115.606 4.74707 115.672 5.08381C114.652 5.54186 113.798 6.27644 113.219 7.19455C112.639 8.11266 112.361 9.17301 112.418 10.2413C111.935 10.9498 111.633 11.755 111.536 12.5931C111.439 13.4313 111.549 14.2793 111.858 15.07C112.168 15.8607 112.667 16.5724 113.317 17.1485C113.966 17.7246 114.749 18.1493 115.602 18.389C116.455 18.6287 117.356 18.6767 118.232 18.5293C119.108 18.3819 119.936 18.0431 120.65 17.5398C121.364 17.0365 121.945 16.3825 122.345 15.6297C122.746 14.8769 122.956 14.0459 122.959 13.2027C122.959 13.1145 122.959 13.0292 122.959 12.9439C123.669 11.9105 123.986 10.6792 123.859 9.45235C123.732 8.22553 123.168 7.0762 122.26 6.19327H122.245Z" fill="#46455B"/>
<g opacity="0.1">
<path opacity="0.1" d="M115.631 4.22828L115.679 4.20256C115.667 4.14398 115.658 4.08484 115.652 4.02539C115.65 4.03774 115.65 4.05019 115.652 4.06254C115.642 4.11739 115.635 4.17271 115.631 4.22828Z" fill="black"/>
<path opacity="0.1" d="M123.83 9.75233C123.727 10.5775 123.424 11.369 122.945 12.0651C122.945 12.1505 122.945 12.2358 122.945 12.3211C122.938 13.7183 122.362 15.059 121.338 16.0644C120.314 17.0698 118.921 17.6623 117.447 17.7188C115.974 17.7752 114.534 17.2912 113.428 16.3674C112.322 15.4436 111.634 14.1513 111.508 12.7592C111.508 12.9072 111.487 13.0437 111.487 13.203C111.487 14.6426 112.091 16.0231 113.165 17.041C114.24 18.0589 115.697 18.6308 117.216 18.6308C118.735 18.6308 120.192 18.0589 121.267 17.041C122.341 16.0231 122.945 14.6426 122.945 13.203C122.945 13.1148 122.945 13.0295 122.945 12.9441C123.425 12.2485 123.728 11.4568 123.83 10.6314C123.878 10.268 123.885 9.9009 123.851 9.53613C123.86 9.60725 123.842 9.68122 123.83 9.75233Z" fill="black"/>
<path opacity="0.1" d="M122.717 4.02246C122.654 4.47883 122.493 4.91828 122.245 5.31398C122.347 5.4107 122.44 5.51311 122.545 5.61552C122.637 5.37552 122.699 5.12642 122.732 4.87304C122.766 4.5901 122.761 4.30416 122.717 4.02246Z" fill="black"/>
</g>
<path d="M99.1621 64.4251C99.1894 64.7339 99.278 65.035 99.4233 65.3126C99.4965 65.4514 99.6036 65.5715 99.7358 65.6631C99.8679 65.7546 100.021 65.8149 100.183 65.8389C100.48 65.8407 100.771 65.7606 101.021 65.6085C101.528 65.3553 102.059 65.0623 102.324 64.5787C102.588 64.0951 102.546 63.5546 102.501 63.0283L102.159 58.8892C101.336 58.8664 100.507 58.8664 99.6815 58.9091C98.8559 58.9518 98.7208 59.1338 98.8348 59.8905C99.06 61.3926 98.9399 62.9202 99.1621 64.4251Z" fill="#FBBEBE"/>
<path d="M123.368 67.2217L125.328 70.2258C125.414 70.401 125.568 70.5378 125.758 70.6069C125.898 70.6269 126.041 70.603 126.166 70.5387C126.801 70.2236 127.358 69.7855 127.802 69.2528C128.158 68.9394 128.428 68.5489 128.589 68.1149C128.653 67.8743 128.65 67.6222 128.582 67.3827C128.514 67.1431 128.382 66.9242 128.199 66.7466C127.972 66.5553 127.725 66.3857 127.463 66.2403C125.911 65.2474 125.211 63.3642 123.68 62.3458C123.595 62.2774 123.491 62.2331 123.38 62.2178C123.266 62.2253 123.157 62.2606 123.062 62.3202L120.96 63.4069C120.059 63.8763 120.338 63.9332 121.029 64.4395C122.035 65.1849 122.659 66.226 123.368 67.2217Z" fill="#FBBEBE"/>
<path d="M103.422 62.0295C103.143 61.9149 102.829 61.9048 102.542 62.0011C102.415 62.0742 102.308 62.1741 102.228 62.293C102.148 62.4119 102.099 62.5466 102.083 62.6867C102.029 62.9712 102.035 63.2556 101.954 63.5202C101.773 63.961 101.479 64.3521 101.098 64.6581C100.955 64.8188 100.769 64.9414 100.561 65.0137C100.276 65.082 99.9753 64.9568 99.6871 65.0137C99.5195 65.0551 99.367 65.139 99.2459 65.2562C99.1248 65.3735 99.0396 65.5197 98.9995 65.6793C98.9239 65.9997 98.9127 66.3308 98.9665 66.6551L99.1887 68.9593C99.2252 69.2428 99.2252 69.5293 99.1887 69.8128C99.1076 70.322 98.7954 70.7657 98.6242 71.2522C98.4531 71.7386 98.4591 72.3588 98.8914 72.6746C99.0427 72.7699 99.2168 72.8277 99.3978 72.8426C99.5788 72.8575 99.7609 72.8291 99.9273 72.7599C100.258 72.6189 100.55 72.4088 100.783 72.1454C102.104 70.78 102.696 68.928 103.722 67.3521C103.985 66.9892 104.22 66.6089 104.425 66.2142C104.566 65.9069 104.656 65.5826 104.77 65.2669C104.928 64.844 105.118 64.4324 105.338 64.0351C105.458 63.8075 105.938 63.2613 105.83 63.0081C105.671 62.5473 103.866 62.1633 103.422 62.0295Z" fill="#46455B"/>
<path d="M127.265 68.3929C126.968 68.9245 126.471 69.3307 125.872 69.5308C125.7 69.5756 125.539 69.6541 125.401 69.7612C125.31 69.8662 125.253 69.994 125.238 70.129C125.223 70.264 125.251 70.4002 125.317 70.5208C125.454 70.7594 125.633 70.9748 125.845 71.158C127.031 72.3486 127.815 73.8471 128.097 75.4621C128.124 75.876 128.253 76.2782 128.472 76.637C128.973 77.2884 130.045 77.2458 130.802 76.8731C131.033 76.7733 131.233 76.6196 131.384 76.4265C131.511 76.2174 131.591 75.986 131.619 75.7466C131.756 75.1529 131.832 74.5478 131.844 73.9401C131.844 72.8022 131.375 71.6956 131.159 70.5691C130.859 68.9675 131.003 67.2407 130.217 65.7956C130.142 65.6227 130.021 65.4715 129.865 65.3575C129.668 65.259 129.446 65.2119 129.223 65.221C128.514 65.1954 127.8 65.1897 127.088 65.2039C126.89 65.2039 126.656 65.2324 126.554 65.3945C126.518 65.485 126.506 65.5825 126.52 65.6783C126.533 65.7741 126.572 65.8652 126.632 65.9435C127.067 66.76 127.782 67.4057 127.265 68.3929Z" fill="#46455B"/>
<path d="M110.373 39.6899C110.174 39.8457 110.04 40.0626 109.993 40.3027C109.945 40.5428 109.989 40.7911 110.115 41.0041C110.274 41.2516 110.556 41.4821 110.493 41.7665C110.43 42.051 110.049 42.1591 109.736 42.2075C106.98 42.6228 104.296 43.388 101.63 44.1504L98.8254 44.9498C98.0044 45.1418 97.2189 45.4507 96.4955 45.8658C95.855 46.28 95.3479 46.854 95.0303 47.5243C94.7455 48.2201 94.5617 48.9493 94.4839 49.692C94.0636 52.4087 93.5261 55.1482 92.2471 57.6118L99.0416 59.7254C99.7013 59.9541 100.385 60.1162 101.08 60.209C101.743 60.2626 102.411 60.232 103.065 60.118C103.023 58.6814 102.996 57.1993 102.954 55.7599C102.95 55.3053 102.919 54.8513 102.861 54.4001C102.759 53.7116 102.533 53.0403 102.461 52.3462C102.762 52.1015 103.233 52.1641 103.638 52.1726C104.571 52.1607 105.486 51.9269 106.299 51.4927C107.121 51.0888 107.89 50.5881 108.7 50.1756C110.067 49.49 111.622 49.0377 112.667 47.9482C112.135 49.8684 110.865 51.5411 110.634 53.5125C110.403 55.4839 111.235 57.4525 112.084 59.293L114.759 65.176C115.06 65.8246 115.447 66.5557 116.177 66.7093C116.641 66.7667 117.112 66.6788 117.519 66.459C119.981 65.3666 121.95 63.3098 124.58 62.6555C124.382 61.4209 123.355 60.3996 122.779 59.2817C122.287 58.34 122.127 57.2761 121.8 56.2719C121.473 55.2677 120.899 54.2464 119.921 53.7685C119.449 53.5438 118.816 53.3447 118.774 52.8468C118.77 52.6866 118.806 52.5277 118.879 52.3831C119.23 51.5434 119.777 50.7897 120.479 50.1785C120.568 50.1113 120.64 50.0257 120.689 49.9281C120.712 49.8349 120.717 49.7385 120.704 49.6436C120.653 48.8414 121.107 48.0933 121.605 47.4475C122.103 46.8017 122.695 46.1901 122.98 45.4363C123.47 44.1362 122.98 42.7081 122.5 41.4081C122.342 40.8686 122.068 40.3659 121.695 39.9317C121.065 39.2944 120.086 39.1095 119.167 39.0128C116.21 38.6942 112.73 37.9574 110.373 39.6899Z" fill="#46455B"/>
<g opacity="0.1">
<path opacity="0.1" d="M121.614 45.3825C121.109 46.0283 120.656 46.7765 120.713 47.5787C120.726 47.6736 120.721 47.77 120.698 47.8632C120.649 47.9607 120.577 48.0463 120.488 48.1135C119.786 48.7248 119.239 49.4784 118.888 50.3182C118.815 50.4628 118.779 50.6217 118.782 50.7819C118.814 50.9324 118.885 51.0729 118.99 51.1895C119.096 51.3061 119.231 51.395 119.383 51.4475C119.689 50.974 120.063 50.5431 120.494 50.1674C120.583 50.1002 120.655 50.0146 120.704 49.9171C120.727 49.8239 120.732 49.7275 120.719 49.6326C120.668 48.8304 121.121 48.0822 121.62 47.4365C122.118 46.7907 122.71 46.1791 122.995 45.4252C123.241 44.6876 123.266 43.8997 123.067 43.1494C123.047 43.2234 123.023 43.2973 122.995 43.3713C122.704 44.1252 122.121 44.7396 121.614 45.3825Z" fill="black"/>
<path opacity="0.1" d="M110.063 40.0795C110.163 40.0604 110.256 40.0162 110.331 39.9517C110.407 39.8871 110.463 39.8045 110.493 39.7125C110.499 39.6757 110.499 39.6383 110.493 39.6016L110.364 39.6898C110.231 39.7942 110.128 39.9281 110.063 40.0795Z" fill="black"/>
<path opacity="0.1" d="M101.08 58.1554C100.385 58.0626 99.7015 57.9005 99.0418 57.6718L93.0369 55.8057C92.8099 56.4223 92.5442 57.0255 92.2412 57.6121L99.0418 59.7257C99.7015 59.9544 100.385 60.1165 101.08 60.2093C101.743 60.2629 102.411 60.2323 103.065 60.1183C103.044 59.4441 103.029 58.7585 103.011 58.0729C102.374 58.1799 101.725 58.2077 101.08 58.1554Z" fill="black"/>
<path opacity="0.1" d="M117.528 64.4053C117.121 64.6252 116.65 64.7131 116.186 64.6556C115.456 64.502 115.063 63.7709 114.768 63.1223L112.093 57.2394C111.493 55.945 110.907 54.5994 110.691 53.2197C110.673 53.3164 110.658 53.4132 110.643 53.5042C110.4 55.4955 111.244 57.4442 112.093 59.2847L114.768 65.1677C115.069 65.8163 115.456 66.5474 116.186 66.701C116.65 66.7584 117.121 66.6705 117.528 66.4507C119.99 65.3583 121.959 63.3015 124.589 62.6472C124.453 62.0011 124.178 61.3883 123.782 60.8465C121.542 61.68 119.731 63.4238 117.528 64.4053Z" fill="black"/>
<path opacity="0.1" d="M112.676 45.8936C111.631 46.9746 110.076 47.4354 108.71 48.121C107.89 48.5335 107.121 49.0342 106.308 49.4381C105.495 49.8731 104.581 50.1079 103.648 50.1209C103.242 50.1209 102.786 50.0469 102.471 50.2915C102.537 50.9316 102.732 51.5546 102.843 52.189C103.11 52.1548 103.38 52.1491 103.648 52.1719C104.58 52.1599 105.495 51.9262 106.308 51.492C107.131 51.0881 107.899 50.5874 108.71 50.1749C109.611 49.7226 110.592 49.3698 111.457 48.8692C111.937 47.906 112.345 46.9116 112.676 45.8936Z" fill="black"/>
</g>
<path d="M115.06 19.3303C115.093 19.6508 115.048 19.9742 114.928 20.2756C114.809 20.5769 114.617 20.8482 114.37 21.0685C114.204 21.2022 114.009 21.3017 113.85 21.4411C113.707 21.5799 113.598 21.7465 113.53 21.9294C113.461 22.1123 113.436 22.3071 113.456 22.5002C113.475 22.6933 113.539 22.88 113.642 23.0474C113.745 23.2148 113.886 23.3588 114.054 23.4694C114.595 23.7824 115.282 23.697 115.907 23.5946C116.74 23.4857 117.556 23.2843 118.339 22.9944C119.127 22.7018 119.797 22.1812 120.254 21.5066C119.926 21.3077 119.654 21.0347 119.464 20.712C119.273 20.3894 119.171 20.027 119.164 19.6575C119.122 18.9207 119.336 18.0843 118.843 17.5125C118.351 16.9407 117.477 16.9663 116.741 17.1541C116.378 17.2508 116.027 17.3817 115.664 17.4756C115.477 17.5211 114.871 17.5239 114.763 17.6519C114.553 17.8852 115.039 18.9577 115.06 19.3303Z" fill="#FBBEBE"/>
<path opacity="0.1" d="M115.06 19.3303C115.093 19.6508 115.048 19.9742 114.928 20.2756C114.809 20.5769 114.617 20.8482 114.37 21.0685C114.204 21.2022 114.009 21.3017 113.85 21.4411C113.707 21.5799 113.598 21.7465 113.53 21.9294C113.461 22.1123 113.436 22.3071 113.456 22.5002C113.475 22.6933 113.539 22.88 113.642 23.0474C113.745 23.2148 113.886 23.3588 114.054 23.4694C114.595 23.7824 115.282 23.697 115.907 23.5946C116.74 23.4857 117.556 23.2843 118.339 22.9944C119.127 22.7018 119.797 22.1812 120.254 21.5066C119.926 21.3077 119.654 21.0347 119.464 20.712C119.273 20.3894 119.171 20.027 119.164 19.6575C119.122 18.9207 119.336 18.0843 118.843 17.5125C118.351 16.9407 117.477 16.9663 116.741 17.1541C116.378 17.2508 116.027 17.3817 115.664 17.4756C115.477 17.5211 114.871 17.5239 114.763 17.6519C114.553 17.8852 115.039 18.9577 115.06 19.3303Z" fill="black"/>
<path d="M117.146 19.2898C119.37 19.2898 121.173 17.5818 121.173 15.475C121.173 13.3681 119.37 11.6602 117.146 11.6602C114.923 11.6602 113.12 13.3681 113.12 15.475C113.12 17.5818 114.923 19.2898 117.146 19.2898Z" fill="#FBBEBE"/>
<path d="M104.434 44.7367C104.363 45.0405 104.235 45.3296 104.056 45.5902C103.585 46.3798 103.415 47.2989 103.575 48.1931C103.66 48.6364 103.858 49.0531 104.153 49.4064C104.448 49.7597 104.83 50.0386 105.266 50.2186C105.448 50.3045 105.65 50.3435 105.853 50.3315C106.056 50.3195 106.252 50.257 106.422 50.1503C105.884 49.4875 105.854 48.5828 105.887 47.7465C105.878 47.5905 105.916 47.4354 105.998 47.2999C106.021 47.2681 106.05 47.2409 106.084 47.22C106.118 47.1991 106.156 47.1849 106.196 47.1783C106.235 47.1716 106.276 47.1727 106.316 47.1814C106.355 47.19 106.392 47.2061 106.425 47.2287C106.41 47.7556 106.517 48.2791 106.74 48.7621C106.824 48.947 106.968 49.1518 107.184 49.1461C107.485 49.1461 107.572 48.745 107.56 48.4548C107.515 47.2714 107.452 46.0396 106.851 45.0041C106.587 44.6491 106.384 44.2563 106.251 43.8406C106.246 43.6927 106.191 43.55 106.094 43.4338C106.029 43.3844 105.951 43.3503 105.869 43.3343C105.524 43.2404 104.701 42.9531 104.416 43.2603C104.131 43.5675 104.488 44.3442 104.434 44.7367Z" fill="#FBBEBE"/>
<path d="M110.411 24.4732C109.949 24.422 109.586 24.8231 109.334 25.1929C108.39 26.5692 107.711 28.0928 107.328 29.6933C107.133 30.5097 107.013 31.3575 106.601 32.1C106.504 32.2543 106.424 32.4184 106.364 32.5893C106.331 32.8516 106.319 33.116 106.328 33.3801C106.286 33.8552 105.989 34.279 105.89 34.7484C105.83 35.0329 105.842 35.3174 105.788 35.6019C105.698 36.0911 105.412 36.5292 105.229 36.9986C104.908 37.8236 104.911 38.7282 104.674 39.5788C104.645 39.7182 104.581 39.8489 104.488 39.96C104.328 40.1278 104.07 40.1677 103.863 40.2758C103.698 40.3712 103.556 40.4991 103.447 40.6507C103.339 40.8023 103.265 40.9742 103.233 41.1548C103.17 41.5161 103.163 41.884 103.212 42.2472L103.398 44.5031C103.587 44.4263 103.698 44.2186 103.872 44.0963C104.172 43.8687 104.59 43.9199 104.962 43.9825L105.505 44.0764C106.061 44.1702 106.664 44.2926 107.007 44.7079C107.289 44.2869 107.13 43.6696 107.562 43.3908C107.703 43.2997 107.88 43.2713 108.027 43.1916C108.168 43.1055 108.284 42.9887 108.367 42.8511C108.449 42.7134 108.496 42.559 108.502 42.4008C108.511 42.084 108.465 41.7678 108.367 41.4649C109.063 41.1804 109.496 40.5176 109.769 39.8491C110.068 39.0398 110.285 38.2053 110.417 37.3571C111.045 34.0031 111.618 30.6264 111.678 27.2212C111.718 26.6524 111.652 26.0814 111.483 25.5343C111.297 24.9938 111.009 24.5358 110.411 24.4732Z" fill="#F08B33"/>
<path opacity="0.1" d="M110.411 24.4732C109.949 24.422 109.586 24.8231 109.334 25.1929C108.39 26.5692 107.711 28.0928 107.328 29.6933C107.133 30.5097 107.013 31.3575 106.601 32.1C106.504 32.2543 106.424 32.4184 106.364 32.5893C106.331 32.8516 106.319 33.116 106.328 33.3801C106.286 33.8552 105.989 34.279 105.89 34.7484C105.83 35.0329 105.842 35.3174 105.788 35.6019C105.698 36.0911 105.412 36.5292 105.229 36.9986C104.908 37.8236 104.911 38.7282 104.674 39.5788C104.645 39.7182 104.581 39.8489 104.488 39.96C104.328 40.1278 104.07 40.1677 103.863 40.2758C103.698 40.3712 103.556 40.4991 103.447 40.6507C103.339 40.8023 103.265 40.9742 103.233 41.1548C103.17 41.5161 103.163 41.884 103.212 42.2472L103.398 44.5031C103.587 44.4263 103.698 44.2186 103.872 44.0963C104.172 43.8687 104.59 43.9199 104.962 43.9825L105.505 44.0764C106.061 44.1702 106.664 44.2926 107.007 44.7079C107.289 44.2869 107.13 43.6696 107.562 43.3908C107.703 43.2997 107.88 43.2713 108.027 43.1916C108.168 43.1055 108.284 42.9887 108.367 42.8511C108.449 42.7134 108.496 42.559 108.502 42.4008C108.511 42.084 108.465 41.7678 108.367 41.4649C109.063 41.1804 109.496 40.5176 109.769 39.8491C110.068 39.0398 110.285 38.2053 110.417 37.3571C111.045 34.0031 111.618 30.6264 111.678 27.2212C111.718 26.6524 111.652 26.0814 111.483 25.5343C111.297 24.9938 111.009 24.5358 110.411 24.4732Z" fill="black"/>
<path d="M120.558 20.8203C119.893 21.4804 119.045 21.948 118.111 22.1687C117.18 22.386 116.23 22.5184 115.273 22.5641C114.979 22.6095 114.678 22.585 114.397 22.493C114.258 22.4423 114.144 22.3448 114.077 22.2192C114.01 22.0936 113.994 21.949 114.033 21.8131C114.084 21.7314 114.12 21.6419 114.138 21.5486C114.138 21.3153 113.772 21.2954 113.538 21.3637C111.989 21.8188 110.502 22.7178 109.788 24.0975C109.427 24.8972 109.202 25.7459 109.121 26.6122C108.785 28.888 108.449 31.1837 108.899 33.4396C109.142 34.6373 109.605 35.8008 109.632 37.0183C109.65 37.7011 109.527 38.3809 109.533 39.0637C109.512 39.3027 109.58 39.5411 109.725 39.7379C109.836 39.8602 110.004 39.937 110.082 40.0821C110.211 40.3211 110.037 40.6511 110.208 40.8701C110.421 41.1375 110.86 40.9441 111.151 40.7563C112.612 39.8169 114.376 39.3967 116.132 39.5701C118.234 39.7834 120.336 40.8502 122.383 40.3154C122.278 40.1704 122.187 40.0161 122.113 39.8545C121.092 36.6798 121.161 33.1267 122.689 30.1397C123.209 29.1184 123.89 28.1484 124.101 27.0276C124.181 26.5045 124.188 25.9736 124.122 25.4487C124.05 24.4256 123.726 23.4326 123.176 22.5499C122.596 21.6766 121.633 20.9227 120.558 20.8203Z" fill="#F08B33"/>
<path d="M110.82 45.7176C110.657 46.1333 110.579 46.5744 110.589 47.0177C110.575 47.4406 110.597 47.864 110.655 48.2836C110.69 48.6427 110.826 48.9865 111.048 49.2792C111.161 49.4233 111.317 49.5324 111.496 49.5927C111.674 49.6529 111.868 49.6617 112.051 49.6178C112.195 49.5604 112.323 49.4735 112.427 49.3633C112.531 49.2531 112.608 49.1223 112.652 48.9805C112.738 48.6952 112.802 48.4043 112.844 48.11C113.018 47.2566 113.498 46.4316 113.507 45.5498C113.514 45.4451 113.496 45.3404 113.456 45.2425C113.282 44.8813 112.427 44.4745 112.009 44.5342C111.493 44.611 111.012 45.2994 110.82 45.7176Z" fill="#FBBEBE"/>
<path opacity="0.1" d="M122.437 24.041C122.358 24.8006 123.133 25.3724 123.439 26.075C123.563 26.4044 123.634 26.7497 123.65 27.0991C123.866 29.5257 123.698 31.9636 123.529 34.3902C123.505 35.1983 123.404 36.0028 123.229 36.794C122.797 38.4525 121.728 39.892 120.692 41.2859C120.535 41.5142 120.353 41.7259 120.149 41.9174C119.843 42.1522 119.503 42.3439 119.14 42.4864L115.567 44.1278C115.119 44.3149 114.693 44.5466 114.297 44.8191C113.837 45.1606 113.475 45.6068 113.246 46.1163C112.552 45.7806 111.832 45.4791 111.144 45.1434C110.982 45.0637 110.799 44.9613 110.772 44.7906C110.736 44.563 110.988 44.4009 111.162 44.2217C111.487 43.9173 111.586 43.465 111.763 43.0667C112.339 41.7581 113.783 40.9218 114.306 39.5961C114.507 39.0869 114.567 38.5094 114.924 38.0827C115.128 37.8689 115.356 37.678 115.606 37.5138C116.154 37.071 116.656 36.5805 117.107 36.0487C117.312 35.8481 117.479 35.6163 117.603 35.3631C117.717 34.9728 117.757 34.5662 117.72 34.1626C117.747 32.837 118.38 31.6024 118.768 30.3279C119.131 29.1303 119.284 27.8729 119.761 26.7094C120.239 25.5459 121.158 24.3539 122.437 24.041Z" fill="black"/>
<path d="M122.902 24.041C122.824 24.8006 123.596 25.3724 123.902 26.075C124.027 26.4043 124.099 26.7495 124.115 27.0991C124.329 29.5257 124.163 31.9636 123.995 34.3902C123.966 35.1988 123.86 36.0032 123.68 36.794C123.248 38.4525 122.179 39.892 121.143 41.2859C120.986 41.5142 120.804 41.7259 120.6 41.9174C120.294 42.1522 119.954 42.3439 119.591 42.4864L116.015 44.1278C115.567 44.3161 115.142 44.5478 114.745 44.8191C114.285 45.1614 113.924 45.6074 113.694 46.1163C113 45.7806 112.283 45.4791 111.592 45.1434C111.43 45.0637 111.247 44.9613 111.22 44.7906C111.181 44.563 111.433 44.4009 111.607 44.2217C111.934 43.9173 112.034 43.465 112.208 43.0667C112.781 41.7581 114.228 40.9218 114.751 39.5961C114.952 39.0869 115.012 38.5094 115.369 38.0827C115.571 37.8676 115.8 37.6765 116.051 37.5138C116.599 37.071 117.101 36.5805 117.552 36.0487C117.757 35.8481 117.924 35.6163 118.047 35.3631C118.16 34.9725 118.2 34.5662 118.165 34.1626C118.192 32.837 118.822 31.6024 119.209 30.3279C119.576 29.1303 119.726 27.8729 120.203 26.7094C120.681 25.5459 121.629 24.3539 122.902 24.041Z" fill="#F08B33"/>
<path d="M119.14 9.57852C117.9 9.43578 116.645 9.68264 115.567 10.2812C115.727 10.2812 115.886 10.2812 116.045 10.3153C117.236 10.4517 118.352 10.939 119.235 11.7085C120.118 12.4779 120.724 13.4907 120.967 14.6039C121.21 15.7172 121.079 16.8746 120.59 17.913C120.102 18.9514 119.282 19.8183 118.246 20.3914C119.718 20.4361 121.152 19.9417 122.249 19.011C123.347 18.0803 124.024 16.7849 124.14 15.3936C124.256 14.0023 123.802 12.6222 122.872 11.5399C121.942 10.4575 120.608 9.75615 119.146 9.58137L119.14 9.57852Z" fill="#46455B"/>
<path d="M120.903 12.5963C121.042 12.8946 121.118 13.2161 121.126 13.5422C121.134 13.8684 121.073 14.1927 120.948 14.4966C120.921 14.4198 120.891 14.343 120.855 14.2662C120.146 12.7727 117.967 12.1554 115.982 12.8865C115.454 13.064 114.972 13.3451 114.567 13.7112C114.162 14.0774 113.843 14.5205 113.631 15.0115C113.127 13.5664 114.15 11.9107 116.033 11.2166C118.015 10.4855 120.194 11.1028 120.903 12.5963Z" fill="#46455B"/>
<g opacity="0.1">
<path opacity="0.1" d="M120.915 14.3797C120.824 13.3319 120.413 12.3317 119.734 11.5005C119.054 10.6693 118.135 10.0429 117.087 9.69727C116.554 9.81661 116.042 10.0082 115.567 10.2662C115.727 10.2662 115.886 10.2662 116.045 10.3004C117.197 10.4324 118.28 10.8932 119.15 11.6218C120.02 12.3503 120.635 13.3122 120.915 14.3797Z" fill="black"/>
<path opacity="0.1" d="M121.842 10.4168C121.751 9.36922 121.34 8.36934 120.661 7.53828C119.981 6.70721 119.062 6.08062 118.014 5.73438C117.481 5.86044 116.97 6.05775 116.495 6.32039C116.654 6.32039 116.813 6.32039 116.976 6.35453C118.125 6.48554 119.206 6.94398 120.075 7.66929C120.944 8.3946 121.56 9.35264 121.842 10.4168Z" fill="black"/>
<path opacity="0.1" d="M121.866 4.503C121.809 3.87336 121.56 3.27296 121.15 2.77423C120.741 2.27551 120.188 1.89978 119.557 1.69238C119.235 1.76651 118.926 1.88436 118.639 2.04229C118.735 2.04229 118.831 2.04229 118.939 2.06504C119.629 2.14483 120.278 2.42025 120.8 2.85526C121.323 3.29026 121.694 3.86458 121.866 4.503Z" fill="black"/>
<path opacity="0.1" d="M124.011 13.6406C124.121 14.9422 123.734 16.2379 122.919 17.2909C122.104 18.344 120.916 19.084 119.573 19.3756C119.186 19.7736 118.739 20.1149 118.246 20.3884C119.134 20.4191 120.018 20.2535 120.827 19.9048C121.636 19.5561 122.349 19.0338 122.908 18.3791C123.467 17.7245 123.858 16.9556 124.049 16.1332C124.241 15.3107 124.228 14.4574 124.011 13.6406Z" fill="black"/>
</g>
<path d="M174.808 70.4529C174.441 70.1654 173.986 69.9982 173.51 69.9761C173.034 69.9541 172.564 70.0784 172.169 70.3306C171.569 70.7516 171.307 71.4514 171.061 72.1114C170.701 73.0871 170.118 74.0344 170.022 75.0671C169.755 77.9118 167.65 80.3043 167.02 83.0921C166.789 84.0878 166.744 85.1347 166.308 86.0649C166.1 86.4732 165.859 86.866 165.588 87.2398C164.532 88.8125 163.627 90.472 162.885 92.1982C162.363 92.3489 161.934 92.824 161.516 93.2024C160.981 93.6874 160.341 94.0563 159.64 94.2834C159.354 94.3439 159.088 94.4677 158.862 94.6447C158.562 94.9462 158.562 95.4326 158.313 95.7826C158.136 96.0117 157.9 96.1947 157.628 96.3145C157.61 96.2337 157.596 96.152 157.586 96.0699C157.523 95.6346 157.472 95.1994 157.424 94.7641C158.123 93.7976 158.436 92.6267 158.306 91.4614C158.176 90.2962 157.612 89.213 156.715 88.4061C156.66 87.727 156.681 87.0442 156.778 86.3693C156.823 86.207 156.818 86.0362 156.765 85.8762C156.712 85.7163 156.613 85.5737 156.478 85.4646C156.331 85.3765 156.151 85.3565 155.995 85.2826C155.768 85.1387 155.576 84.9517 155.43 84.7335C155.008 84.2806 154.431 83.9836 153.8 83.8951C153.169 83.8066 152.526 83.9323 151.984 84.2499C151.143 84.7819 150.699 85.7264 149.981 86.4063C149.609 86.7562 149.167 87.0321 148.798 87.382C148.059 88.1322 147.58 89.0779 147.423 90.0931C147.269 91.1026 147.225 92.1246 147.294 93.1426C147.286 93.4512 147.333 93.7588 147.432 94.0529C147.539 94.2942 147.687 94.5171 147.87 94.7129C148.75 95.8002 149.913 96.6521 151.245 97.185C151.254 97.2453 151.259 97.3061 151.26 97.3671C151.26 97.461 151.26 97.5548 151.236 97.6516L151.089 97.6288C150.548 97.5662 149.978 97.6288 149.477 97.4325C148.621 97.0826 148.276 96.0528 147.432 95.6488C147.362 95.6139 147.288 95.5853 147.213 95.5635C147.013 94.2377 146.601 92.9484 145.991 91.7402C145.69 91.1712 145.351 90.5795 145.315 89.9366C145.334 89.3389 145.476 88.7503 145.732 88.2041C146.411 86.2501 146.947 84.254 147.336 82.2302C147.608 80.9614 147.882 79.6926 148.158 78.4239C148.531 78.1027 148.86 77.7386 149.137 77.34C149.716 76.5473 150.054 75.6195 150.116 74.6574C150.143 74.1777 150.069 73.6976 149.899 73.245C149.729 72.7924 149.466 72.3762 149.125 72.0204C148.975 71.847 148.787 71.7063 148.574 71.6082C148.361 71.51 148.128 71.4565 147.891 71.4514C147.687 71.4742 147.49 71.5365 147.312 71.6343C147.135 71.7322 146.98 71.8636 146.858 72.0204C146.492 72.5068 146.227 73.0553 146.078 73.6362C145.777 74.5806 145.477 75.5649 145.612 76.5435C145.735 77.3543 146.153 78.2333 145.726 78.9445C144.321 81.2743 143.352 83.8943 142.31 86.392C142.041 86.9913 141.822 87.6095 141.655 88.2411C141.447 89.259 141.41 90.3018 141.547 91.3305C141.794 93.2596 142.187 95.1695 142.721 97.0456C142.94 97.899 143.198 98.8008 143.715 99.5035C143.532 100.457 143.487 101.429 143.583 102.394C143.595 102.617 143.656 102.835 143.763 103.034C143.935 103.263 144.144 103.465 144.381 103.634C144.703 103.918 144.958 104.264 145.127 104.649C145.296 105.033 145.377 105.448 145.363 105.864C145.378 106.643 145.537 107.414 145.835 108.14C146.552 110.168 147.273 112.197 147.9 114.254C148.036 114.634 148.111 115.032 148.122 115.434C148.122 116.003 147.837 116.572 147.969 117.141C148.07 117.398 148.152 117.661 148.215 117.929C148.22 118.136 148.192 118.342 148.131 118.541C147.741 120.148 146.612 123.855 146.807 125.496L147.195 125.368C147.03 127.541 146.321 129.669 146.063 131.843C145.893 133.425 145.911 135.02 146.117 136.599C146.229 137.305 146.293 138.016 146.309 138.73C146.309 139.37 146.201 140.001 146.174 140.639C146.16 141.495 146.213 142.35 146.333 143.199C146.451 144.53 146.674 145.851 147.002 147.15C147.627 149.358 147.207 151.656 147.276 153.943C147.356 155.539 147.339 157.138 147.225 158.731C147.162 159.405 147.063 160.077 147.042 160.754C146.978 162.762 147.606 164.762 147.384 166.759C147.279 167.695 147.027 168.75 147.648 169.487C147.846 169.718 148.113 169.883 148.324 170.102C148.438 170.204 148.522 170.332 148.568 170.474C148.614 170.616 148.62 170.767 148.585 170.912C148.504 171.137 148.285 171.302 148.233 171.538C148.176 171.908 148.606 172.164 148.978 172.284L149.083 172.312C149.075 172.435 149.095 172.559 149.141 172.675C149.187 172.79 149.259 172.896 149.35 172.983C149.583 173.152 149.861 173.256 150.152 173.285L154.956 174.167C156.028 174.363 157.193 174.548 158.199 174.204C158.237 174.341 158.315 174.466 158.424 174.565C158.656 174.733 158.932 174.837 159.222 174.867L164.026 175.748C165.251 175.973 166.596 176.181 167.689 175.606C168.004 175.447 168.27 175.213 168.461 174.926C168.614 174.655 168.703 174.356 168.721 174.048C168.74 173.741 168.687 173.434 168.566 173.148C168.474 172.856 168.287 172.598 168.032 172.412C167.691 172.234 167.302 172.155 166.915 172.184C166.586 172.207 166.255 172.159 165.948 172.045C165.854 171.998 165.772 171.932 165.708 171.851C165.948 171.567 166.179 171.282 166.398 170.998C166.191 170.952 166.098 170.682 166.047 170.483C165.429 167.53 166.296 164.509 166.422 161.493C166.486 159.984 166.361 158.472 166.05 156.99C165.933 156.421 165.792 155.881 165.708 155.317C165.266 152.379 166.446 149.395 166.071 146.448C165.894 145.071 166.518 143.631 166.741 142.26C166.936 141.043 166.81 139.802 166.684 138.562L165.69 128.89C165.555 127.584 165.414 126.247 164.825 125.058C164.531 124.393 164.392 123.676 164.417 122.956C165.618 122.304 166.723 121.408 168.08 121.405C168.341 120.466 167.59 117.505 167.152 116.629C165.442 113.175 164.766 109.342 165.197 105.549C165.356 104.186 164.783 102.812 164.975 101.452C165.004 101.134 165.098 100.824 165.251 100.539C165.329 100.398 165.443 100.278 165.582 100.19C165.722 100.102 165.883 100.049 166.05 100.035C165.966 99.219 165.855 98.3969 165.708 97.5804C166.202 97.1027 166.608 96.5498 166.909 95.9447C167.533 94.7072 167.809 93.3418 168.173 92.0161C168.833 89.6806 169.842 87.4503 170.641 85.1574C171.439 82.8645 171.283 80.4408 171.857 78.0854C172.181 76.7877 173.019 75.658 174.199 74.9305C174.655 74.6461 175.174 74.427 175.49 74.006C175.727 73.6599 175.853 73.2554 175.85 72.8425C175.877 72.3956 175.797 71.9487 175.617 71.535C175.437 71.1213 175.16 70.7514 174.808 70.4529ZM156.457 169.985C156.547 169.868 156.634 169.752 156.715 169.629C156.397 169.612 155.995 169.436 155.956 169.134C155.946 168.833 155.982 168.531 156.061 168.238C156.151 167.715 156.117 167.18 155.962 166.671C155.851 166.318 155.686 165.98 155.565 165.627C155.448 165.233 155.355 164.833 155.286 164.429C154.992 162.984 154.534 161.574 153.92 160.222C153.32 158.91 153.785 157.479 153.791 156.049C153.791 155.374 153.683 154.686 153.863 154.032C153.968 153.645 154.163 153.286 154.274 152.894C154.521 151.992 154.211 151.045 153.908 150.16C155.094 147.503 155.253 144.47 155.496 141.58C155.633 139.964 155.769 138.352 155.905 136.744C155.965 136.024 156.034 135.276 156.433 134.662C157.142 136.716 157.565 138.85 157.691 141.008C157.704 141.632 157.78 142.253 157.919 142.863C158.109 143.537 158.478 144.149 158.724 144.803C159.27 146.243 159.213 147.816 159.46 149.326C159.559 149.938 159.709 150.541 159.805 151.153C160.219 153.852 159.55 156.586 158.883 159.24C158.475 160.868 158.541 162.668 158.448 164.338C158.361 165.94 158.271 167.541 158.313 169.146C158.313 169.635 158.346 170.136 158.34 170.634C158.176 170.615 158.012 170.607 157.847 170.608C157.518 170.631 157.188 170.583 156.881 170.469C156.69 170.352 156.543 170.184 156.457 169.985Z" fill="url(#paint1_linear)"/>
<path d="M166.93 172.204C167.318 172.176 167.705 172.254 168.047 172.429C168.301 172.615 168.488 172.872 168.582 173.163C168.702 173.447 168.754 173.752 168.735 174.058C168.717 174.363 168.627 174.66 168.474 174.929C168.283 175.214 168.017 175.446 167.702 175.604C166.609 176.173 165.264 175.971 164.039 175.749L159.235 174.875C158.946 174.851 158.668 174.753 158.434 174.591C158.288 174.439 158.195 174.247 158.17 174.043C158.145 173.839 158.188 173.633 158.292 173.453C158.502 173.094 158.814 172.798 159.193 172.6C160.574 171.786 162.196 171.462 163.781 171.288C164.381 171.22 164.943 171.038 165.393 171.433C165.633 171.641 165.621 171.9 165.958 172.068C166.267 172.181 166.599 172.227 166.93 172.204Z" fill="#3F3D56"/>
<path d="M157.853 170.639C158.24 170.611 158.626 170.689 158.967 170.864C159.223 171.049 159.41 171.306 159.502 171.598C159.623 171.881 159.676 172.187 159.658 172.492C159.64 172.798 159.55 173.096 159.397 173.364C159.205 173.648 158.939 173.881 158.625 174.039C157.532 174.608 156.187 174.406 154.959 174.184L150.155 173.308C149.865 173.284 149.588 173.185 149.353 173.023C149.207 172.871 149.114 172.68 149.088 172.476C149.063 172.272 149.105 172.065 149.209 171.885C149.425 171.526 149.742 171.23 150.125 171.032C151.503 170.221 153.127 169.908 154.713 169.723C155.313 169.652 155.875 169.473 156.325 169.865C156.562 170.073 156.553 170.332 156.886 170.5C157.194 170.614 157.524 170.661 157.853 170.639Z" fill="#3F3D56"/>
<path d="M156.671 122.279C153.894 122.29 151.121 122.49 148.375 122.879C148.193 122.895 148.016 122.939 147.85 123.01C147.267 123.294 147.249 124.068 147.264 124.688C147.303 127.212 146.393 129.655 146.093 132.159C145.921 133.73 145.938 135.316 146.144 136.884C146.253 137.586 146.317 138.294 146.336 139.003C146.336 139.635 146.225 140.263 146.198 140.898C146.184 141.744 146.236 142.59 146.354 143.43C146.472 144.752 146.696 146.065 147.024 147.355C147.645 149.549 147.225 151.833 147.291 154.103C147.371 155.688 147.352 157.276 147.234 158.859C147.171 159.531 147.072 160.197 147.051 160.871C146.988 162.862 147.612 164.853 147.39 166.845C147.285 167.772 147.03 168.836 147.651 169.553C147.85 169.78 148.117 169.945 148.324 170.165C148.437 170.265 148.521 170.392 148.567 170.533C148.614 170.673 148.621 170.823 148.588 170.967C148.504 171.191 148.273 171.356 148.237 171.59C148.177 171.957 148.606 172.213 148.978 172.329C150.397 172.742 151.917 172.708 153.313 172.232C154.709 171.757 155.905 170.866 156.722 169.692C156.404 169.675 156.001 169.499 155.962 169.2C155.953 168.9 155.988 168.6 156.067 168.31C156.159 167.791 156.125 167.259 155.968 166.754C155.86 166.401 155.692 166.065 155.575 165.715C155.458 165.324 155.364 164.927 155.296 164.526C155.003 163.089 154.546 161.687 153.932 160.344C153.332 159.042 153.8 157.619 153.806 156.203C153.806 155.531 153.701 154.846 153.878 154.197C153.984 153.81 154.179 153.454 154.293 153.059C154.539 152.163 154.23 151.224 153.926 150.345C155.127 147.705 155.278 144.678 155.521 141.811L155.932 136.975C155.992 136.261 156.064 135.515 156.461 134.907C157.17 136.947 157.593 139.066 157.719 141.211C157.729 141.832 157.804 142.45 157.944 143.057C158.133 143.723 158.499 144.331 158.748 144.983C159.292 146.405 159.235 147.973 159.481 149.475C159.58 150.083 159.727 150.681 159.823 151.29C160.238 153.972 159.565 156.695 158.896 159.326C158.487 160.942 158.55 162.74 158.457 164.393C158.367 165.983 158.277 167.573 158.319 169.166C158.355 170.631 158.475 172.204 157.644 173.433C158.574 173.883 159.535 174.341 160.574 174.426C161.783 174.487 162.976 174.145 163.946 173.459C164.906 172.774 165.741 171.945 166.417 171.004C166.207 170.958 166.116 170.688 166.065 170.492C165.447 167.559 166.318 164.546 166.447 161.559C166.51 160.06 166.386 158.559 166.077 157.087C165.96 156.518 165.816 155.981 165.732 155.423C165.297 152.504 166.477 149.537 166.104 146.604C165.93 145.233 166.555 143.805 166.777 142.44C166.972 141.231 166.849 139.999 166.723 138.781L165.735 129.18C165.603 127.88 165.462 126.552 164.873 125.371C164.171 123.949 164.606 122.196 164.531 120.629C162.051 121.663 159.38 122.224 156.671 122.279Z" fill="#46455B"/>
<path d="M162.472 93.846C163.289 91.7314 164.35 89.7088 165.637 87.8151C165.908 87.4433 166.149 87.0524 166.357 86.6459C166.796 85.7242 166.841 84.6831 167.072 83.6931C167.717 80.9223 169.825 78.5441 170.095 75.7278C170.191 74.7008 170.774 73.7592 171.137 72.7892C171.38 72.132 171.656 71.4379 172.245 71.0197C172.64 70.77 173.109 70.6469 173.584 70.6684C174.058 70.6899 174.513 70.8549 174.881 71.1392C175.24 71.434 175.523 71.803 175.708 72.2178C175.893 72.6326 175.975 73.0821 175.947 73.5316C175.948 73.9416 175.823 74.3431 175.587 74.6866C175.268 75.1048 174.752 75.3295 174.296 75.6055C173.119 76.3243 172.279 77.4449 171.951 78.7347C171.374 81.0759 171.53 83.4797 170.729 85.7584C169.927 88.037 168.927 90.2559 168.258 92.5858C167.882 93.9029 167.615 95.2598 166.988 96.4888C166.36 97.7177 165.294 98.8272 163.892 99.1429C163.804 98.297 163.573 97.4701 163.208 96.6936C162.787 95.7947 162.118 94.7592 162.472 93.846Z" fill="#A0616A"/>
<path d="M147.366 97.0911C147.25 95.4289 146.797 93.8035 146.033 92.3034C145.733 91.7345 145.396 91.1655 145.36 90.5141C145.379 89.92 145.521 89.3351 145.778 88.793C146.458 86.8477 146.994 84.8602 147.384 82.8446L148.213 79.0611C148.584 78.7421 148.911 78.381 149.189 77.9858C149.768 77.1996 150.108 76.2774 150.17 75.3203C150.198 74.8428 150.125 74.3649 149.955 73.9145C149.786 73.4642 149.523 73.0504 149.183 72.6974C149.03 72.5273 148.841 72.39 148.629 72.2948C148.416 72.1996 148.184 72.1487 147.948 72.1455C147.744 72.1683 147.547 72.2306 147.37 72.3284C147.192 72.4263 147.038 72.5577 146.916 72.7145C146.555 73.194 146.295 73.7348 146.15 74.3075C145.85 75.2463 145.55 76.222 145.682 77.1949C145.802 78 146.222 78.8733 145.793 79.5788C144.385 81.8973 143.415 84.4974 142.37 86.9752C142.103 87.5708 141.885 88.1852 141.718 88.8129C141.508 89.8247 141.469 90.8619 141.604 91.8852C141.85 93.8059 142.241 95.7073 142.775 97.5747C143.076 98.7468 143.451 100.021 144.49 100.724C145.345 99.4267 146.21 98.1551 147.366 97.0911Z" fill="#A0616A"/>
<path d="M153.224 97.4183C156.071 97.4183 158.379 95.2315 158.379 92.5339C158.379 89.8363 156.071 87.6494 153.224 87.6494C150.376 87.6494 148.068 89.8363 148.068 92.5339C148.068 95.2315 150.376 97.4183 153.224 97.4183Z" fill="#A0616A"/>
<path d="M151.299 97.8907C151.269 98.7811 150.861 99.6146 150.459 100.423C150.216 100.909 149.897 101.452 149.342 101.56C150.905 102.153 152.528 102.594 154.185 102.878C154.752 102.998 155.336 103.03 155.914 102.971C156.4 102.889 156.867 102.725 157.292 102.488C158.225 101.986 159.026 101.29 159.633 100.453C160.24 99.6147 160.638 98.6569 160.796 97.6517C160.16 97.7304 159.517 97.7466 158.878 97.7001C158.516 97.7094 158.164 97.5861 157.896 97.3559C157.727 97.133 157.631 96.8678 157.62 96.5935C157.505 95.7856 157.414 94.9758 157.346 94.1641C156.078 94.2106 154.831 94.4817 153.668 94.9634C153.188 95.1626 152.72 95.393 152.224 95.5637C151.924 95.6661 151.056 95.686 150.846 95.8709C150.522 96.1639 151.317 97.2762 151.299 97.8907Z" fill="#A0616A"/>
<path d="M153.885 100.622C153.759 99.9893 153.426 99.4103 152.933 98.9668C152.441 98.5232 151.814 98.2374 151.141 98.1497C150.6 98.0899 150.03 98.1497 149.528 97.9591C148.673 97.6092 148.312 96.5879 147.484 96.1868C146.655 95.7857 145.58 96.1584 144.968 96.8297C144.355 97.5011 144.097 98.4142 143.911 99.2677C143.622 100.451 143.528 101.67 143.632 102.881C143.646 103.103 143.708 103.319 143.815 103.518C143.987 103.745 144.194 103.947 144.43 104.115C144.752 104.396 145.006 104.738 145.176 105.12C145.345 105.502 145.426 105.914 145.412 106.328C145.423 107.107 145.581 107.878 145.88 108.604C146.598 110.618 147.319 112.635 147.943 114.678C148.079 115.055 148.154 115.451 148.165 115.85C148.15 116.419 147.865 116.988 148.012 117.542C148.11 117.798 148.191 118.059 148.255 118.325C148.26 118.53 148.232 118.736 148.171 118.933C147.778 120.532 146.649 124.213 146.844 125.843C149.405 124.95 153.269 124.421 155.984 124.136C156.73 124.055 157.481 124.013 158.232 124.011C160.034 124.011 161.923 124.333 163.604 123.707C165.162 123.138 166.456 121.767 168.132 121.761C168.393 120.831 167.642 117.889 167.207 117.019C165.499 113.59 164.826 109.781 165.261 106.013C165.417 104.658 164.847 103.293 165.042 101.942C165.07 101.625 165.163 101.317 165.315 101.034C165.394 100.894 165.509 100.774 165.649 100.686C165.789 100.598 165.95 100.545 166.117 100.531C165.917 98.4122 165.48 96.3198 164.811 94.2894C164.568 93.5668 164.129 92.7304 163.331 92.6821C162.61 92.6366 162.079 93.251 161.559 93.7318C161.023 94.2138 160.383 94.5797 159.683 94.8043C159.396 94.8641 159.128 94.988 158.902 95.1655C158.602 95.4642 158.602 95.9507 158.353 96.3034C157.92 96.935 156.815 96.9947 156.551 97.7002C156.496 97.9077 156.456 98.1188 156.434 98.3317C156.311 98.7471 156.065 99.1203 155.725 99.4071C155.228 99.9504 154.595 100.368 153.885 100.622Z" fill="#2F2E41"/>
<path d="M156.824 86.961C156.868 86.8 156.863 86.6304 156.81 86.4719C156.757 86.3133 156.658 86.1722 156.524 86.0649C156.365 85.9945 156.203 85.9327 156.037 85.88C155.812 85.7346 155.621 85.5467 155.476 85.3281C155.053 84.8767 154.476 84.5813 153.846 84.4938C153.216 84.4064 152.573 84.5326 152.032 84.8502C151.188 85.3793 150.747 86.3181 150.026 86.9923C149.657 87.3422 149.216 87.6153 148.843 87.9652C148.106 88.7087 147.625 89.6474 147.465 90.6563C147.311 91.6601 147.268 92.6765 147.336 93.6888C147.327 93.9956 147.374 94.3016 147.474 94.5934C147.582 94.8326 147.73 95.0535 147.913 95.2477C148.828 96.3805 150.055 97.2525 151.458 97.7682C152.87 98.2404 154.518 98.1835 155.779 97.4183C155.905 97.352 156.009 97.2535 156.079 97.1338C156.139 96.9562 156.139 96.7652 156.079 96.5876C155.929 95.879 156.001 95.1442 156.286 94.474C156.537 94.0073 156.759 93.5276 156.953 93.0374C157.076 92.4757 157.093 91.8976 157.001 91.3305C156.854 89.8797 156.587 88.4175 156.824 86.961Z" fill="#46455B"/>
<path d="M244.055 162.705C244.055 190.692 262.586 213.342 285.488 213.342L244.055 162.705Z" fill="#46455B"/>
<path d="M285.488 213.342C285.488 185.037 306.166 162.137 331.726 162.137L285.488 213.342Z" fill="#F08B33"/>
<path d="M259.066 165.226C259.066 191.813 270.881 213.327 285.488 213.327L259.066 165.226Z" fill="#F08B33"/>
<path d="M285.488 213.342C285.488 177.177 309.391 147.913 338.932 147.913L285.488 213.342Z" fill="#46455B"/>
<path opacity="0.1" d="M283.689 223C289.378 223 293.991 222.261 293.991 221.35C293.991 220.439 289.378 219.7 283.689 219.7C278 219.7 273.388 220.439 273.388 221.35C273.388 222.261 278 223 283.689 223Z" fill="#F08B33"/>
<path d="M276.769 213.683C276.769 213.683 282.644 213.512 284.416 212.318C286.187 211.123 293.456 209.695 293.894 211.612C294.333 213.529 302.725 221.142 296.092 221.193C289.46 221.244 280.678 220.215 278.909 219.202C277.141 218.189 276.769 213.683 276.769 213.683Z" fill="#A8A8A8"/>
<path opacity="0.2" d="M296.201 220.525C289.568 220.576 280.786 219.547 279.018 218.534C277.673 217.754 277.135 214.969 276.958 213.681H276.76C276.76 213.681 277.132 218.17 278.901 219.191C280.669 220.212 289.448 221.242 296.084 221.182C297.996 221.168 298.66 220.522 298.624 219.566C298.365 220.17 297.636 220.514 296.201 220.525Z" fill="black"/>
<path opacity="0.1" d="M244.859 10.4121C245.118 10.0616 245.262 9.64549 245.27 9.21728C245.27 6.62286 239.691 4.52344 232.81 4.52344C225.928 4.52344 220.35 6.62286 220.35 9.21728C220.355 9.69974 220.527 10.1672 220.839 10.5486C213.177 11.3594 208.016 12.8785 208.016 14.6223C208.016 17.2139 219.425 19.3161 233.536 19.3161C247.648 19.3161 259.057 17.2139 259.057 14.6223C259.066 12.7874 253.266 11.1802 244.859 10.4121Z" fill="#F08B33"/>
<path opacity="0.1" d="M92.0339 15.5322C92.2937 15.1817 92.4369 14.7656 92.4452 14.3374C92.4452 11.743 86.8667 9.64355 79.9851 9.64355C73.1034 9.64355 67.5249 11.743 67.5249 14.3374C67.5374 14.8225 67.7178 15.2903 68.0383 15.6687C60.3761 16.4795 55.2148 17.9986 55.2148 19.7424C55.2148 22.334 66.6392 24.4363 80.7357 24.4363C94.8322 24.4363 106.256 22.334 106.256 19.7424C106.241 17.9076 100.441 16.3003 92.0339 15.5322Z" fill="#F08B33"/>
<path opacity="0.1" d="M179.628 11.59C180.328 11.2059 181.273 11.5729 181.754 12.193C182.234 12.8132 182.354 13.6154 182.489 14.3607C182.756 16.0448 182.952 17.9764 181.754 19.2423C183.711 13.6183 189.341 9.31131 195.565 8.68262" stroke="#F08B33" stroke-width="3" stroke-miterlimit="10"/>
<path opacity="0.1" d="M79.4863 40.3159C79.9367 40.0684 80.5432 40.3159 80.8525 40.7028C81.1279 41.124 81.2907 41.6025 81.3268 42.0967C81.498 43.1806 81.6271 44.4209 80.8554 45.226C81.5139 43.42 82.6949 41.8257 84.2636 40.6251C85.8324 39.4244 87.7258 38.6657 89.7277 38.4355" stroke="#F08B33" stroke-width="3" stroke-miterlimit="10"/>
<path opacity="0.1" d="M214.597 48.8501C215.047 48.6026 215.654 48.8501 215.963 49.237C216.238 49.6582 216.401 50.1366 216.437 50.6309C216.608 51.7148 216.737 52.9551 215.966 53.7601C216.624 51.9542 217.805 50.3599 219.374 49.1592C220.943 47.9586 222.836 47.1999 224.838 46.9697" stroke="#F08B33" stroke-width="3" stroke-miterlimit="10"/>
<path opacity="0.1" d="M203.522 144.499V137.586L206.884 140.772L207.725 139.947L202.921 135.396L198.117 139.947L198.958 140.741L202.321 137.586V144.499H203.522Z" fill="#F08B33"/>
<path opacity="0.1" d="M130.861 167.257V160.345L134.224 163.531L135.065 162.706L130.261 158.154L125.457 162.706L126.298 163.5L129.66 160.345V167.257H130.861Z" fill="#F08B33"/>
<path opacity="0.1" d="M184.306 187.455V180.542L187.669 183.728L188.509 182.903L183.705 178.352L178.901 182.903L179.742 183.697L183.105 180.542V187.455H184.306Z" fill="#F08B33"/>
</g>
<defs>
<linearGradient id="paint0_linear" x1="112.009" y1="77.1357" x2="112.009" y2="0.000269658" gradientUnits="userSpaceOnUse">
<stop stop-color="#808080" stop-opacity="0.25"/>
<stop offset="0.54" stop-color="#808080" stop-opacity="0.12"/>
<stop offset="1" stop-color="#808080" stop-opacity="0.1"/>
</linearGradient>
<linearGradient id="paint1_linear" x1="23275.1" y1="48127.4" x2="27699.6" y2="47644.8" gradientUnits="userSpaceOnUse">
<stop stop-color="#808080" stop-opacity="0.25"/>
<stop offset="0.54" stop-color="#808080" stop-opacity="0.12"/>
<stop offset="1" stop-color="#808080" stop-opacity="0.1"/>
</linearGradient>
<clipPath id="clip0">
<rect width="342" height="223" fill="white"/>
</clipPath>
</defs>
</svg>
