<svg width="342" height="223" viewBox="0 0 342 223" fill="none" xmlns="http://www.w3.org/2000/svg">
<g clip-path="url(#clip0)">
<path d="M201.941 14.7178H164.145V15.4358H201.941V14.7178Z" fill="#CCCCCC"/>
<path d="M134.628 14.7178H14.7588V15.4358H134.628V14.7178Z" fill="#CCCCCC"/>
<path d="M14.7585 29.7953C22.9094 29.7953 29.517 23.2059 29.517 15.0774C29.517 6.94884 22.9094 0.359375 14.7585 0.359375C6.6076 0.359375 0 6.94884 0 15.0774C0 23.2059 6.6076 29.7953 14.7585 29.7953Z" fill="#F08B33"/>
<path d="M82.072 29.7953C90.2229 29.7953 96.8305 23.2059 96.8305 15.0774C96.8305 6.94884 90.2229 0.359375 82.072 0.359375C73.9211 0.359375 67.3135 6.94884 67.3135 15.0774C67.3135 23.2059 73.9211 29.7953 82.072 29.7953Z" fill="#3F3D56"/>
<path d="M149.384 30.1544C146.394 30.1544 143.471 29.2702 140.985 27.6135C138.499 25.9568 136.561 23.602 135.416 20.847C134.272 18.092 133.973 15.0605 134.556 12.1358C135.139 9.2111 136.579 6.5246 138.694 4.41602C140.808 2.30743 143.502 0.87147 146.435 0.289712C149.368 -0.292045 152.407 0.00652965 155.17 1.14769C157.933 2.28885 160.294 4.22133 161.955 6.70076C163.616 9.1802 164.503 12.0952 164.503 15.0772C164.503 19.0759 162.91 22.9109 160.075 25.7384C157.24 28.5659 153.394 30.1544 149.384 30.1544ZM149.384 0.718062C146.537 0.718062 143.753 1.56021 141.385 3.13802C139.017 4.71582 137.171 6.95842 136.082 9.58221C134.992 12.206 134.707 15.0931 135.262 17.8786C135.818 20.664 137.189 23.2225 139.203 25.2307C141.217 27.2388 143.782 28.6064 146.575 29.1605C149.368 29.7145 152.263 29.4302 154.894 28.3433C157.525 27.2565 159.774 25.4161 161.356 23.0547C162.939 20.6934 163.783 17.9172 163.783 15.0772C163.783 11.2689 162.266 7.61663 159.566 4.92376C156.865 2.2309 153.203 0.718062 149.384 0.718062Z" fill="#CCCCCC"/>
<path d="M216.698 30.1544C213.708 30.1544 210.785 29.2702 208.298 27.6135C205.812 25.9568 203.874 23.602 202.73 20.847C201.586 18.092 201.286 15.0605 201.87 12.1358C202.453 9.2111 203.893 6.5246 206.007 4.41602C208.122 2.30743 210.816 0.87147 213.748 0.289712C216.681 -0.292045 219.721 0.00652965 222.484 1.14769C225.246 2.28885 227.607 4.22133 229.269 6.70076C230.93 9.1802 231.817 12.0952 231.817 15.0772C231.817 19.0759 230.224 22.9109 227.388 25.7384C224.553 28.5659 220.708 30.1544 216.698 30.1544ZM216.698 0.718062C213.85 0.718062 211.066 1.56021 208.698 3.13802C206.33 4.71582 204.485 6.95842 203.395 9.58221C202.305 12.206 202.02 15.0931 202.576 17.8786C203.131 20.664 204.503 23.2225 206.516 25.2307C208.53 27.2388 211.096 28.6064 213.889 29.1605C216.682 29.7145 219.577 29.4302 222.208 28.3433C224.839 27.2565 227.088 25.4161 228.67 23.0547C230.252 20.6934 231.097 17.9172 231.097 15.0772C231.097 13.1915 230.724 11.3243 230 9.58221C229.277 7.84008 228.216 6.25713 226.879 4.92376C225.542 3.59039 223.955 2.5327 222.208 1.81109C220.461 1.08947 218.589 0.718062 216.698 0.718062Z" fill="#CCCCCC"/>
<path d="M13.6227 19.4656C13.3634 19.4658 13.1111 19.382 12.9038 19.2267L12.8911 19.2171L10.1822 17.151C9.9289 16.9573 9.76309 16.6711 9.7213 16.3555C9.67951 16.0399 9.76516 15.7206 9.9594 15.4679C10.1537 15.2153 10.4406 15.0499 10.7571 15.0083C11.0736 14.9666 11.3937 15.052 11.6471 15.2457L13.4014 16.5874L17.5471 11.1934C17.7413 10.9409 18.0281 10.7756 18.3444 10.734C18.6607 10.6923 18.9807 10.7776 19.234 10.9712L19.2084 11.0067L19.2348 10.9712C19.4878 11.1651 19.6533 11.4512 19.695 11.7667C19.7367 12.0821 19.6512 12.4012 19.4572 12.6539L14.5807 18.9953C14.4678 19.1415 14.3225 19.2598 14.1563 19.3409C13.9901 19.4221 13.8073 19.464 13.6223 19.4633L13.6227 19.4656Z" fill="white"/>
<path d="M262.207 78.042C262.483 78.1677 262.749 78.3153 263.001 78.4833L288.222 67.7487L289.121 61.1233L299.199 61.0615L298.604 76.2582L265.315 85.0386C265.245 85.2691 265.16 85.4953 265.063 85.7156C264.581 86.7398 263.807 87.5992 262.838 88.1861C261.868 88.773 260.747 89.061 259.613 89.0142C258.48 88.9673 257.386 88.5876 256.469 87.9227C255.551 87.2578 254.851 86.3374 254.456 85.277C254.062 84.2167 253.99 83.0637 254.25 81.9628C254.511 80.862 255.091 79.8623 255.919 79.0895C256.747 78.3166 257.786 77.805 258.905 77.6188C260.023 77.4327 261.172 77.5803 262.207 78.0432L262.207 78.042Z" fill="#FEB8B8"/>
<path d="M302.864 215.744H295.97L292.69 189.227H302.865L302.864 215.744Z" fill="#FEB8B8"/>
<path d="M291.046 213.779H304.341V222.125H282.675C282.675 219.911 283.557 217.787 285.127 216.222C286.697 214.656 288.826 213.776 291.046 213.776V213.779Z" fill="#2F2E41"/>
<path d="M329.675 213.801L322.815 214.474L316.944 188.405L327.07 187.413L329.675 213.801Z" fill="#FEB8B8"/>
<path d="M317.717 213.004L330.946 211.704L331.766 220.011L310.208 222.128C309.991 219.925 310.659 217.726 312.067 216.015C313.475 214.304 315.507 213.221 317.716 213.004H317.717Z" fill="#2F2E41"/>
<path d="M304.783 32.997C312.41 32.997 318.593 26.8307 318.593 19.2241C318.593 11.6175 312.41 5.45117 304.783 5.45117C297.155 5.45117 290.972 11.6175 290.972 19.2241C290.972 26.8307 297.155 32.997 304.783 32.997Z" fill="#FEB8B8"/>
<path d="M294.43 210.381C293.837 210.382 293.263 210.174 292.809 209.795C292.355 209.415 292.049 208.888 291.947 208.306C288.381 188.556 276.715 123.966 276.436 122.176C276.43 122.135 276.427 122.093 276.427 122.051V117.235C276.426 117.059 276.481 116.888 276.584 116.746L278.124 114.595C278.198 114.492 278.294 114.406 278.405 114.345C278.517 114.285 278.641 114.25 278.768 114.245C287.554 113.834 316.321 112.63 317.711 114.362C319.107 116.1 318.611 121.376 318.498 122.415L318.504 122.523L331.429 204.955C331.531 205.612 331.368 206.283 330.977 206.822C330.586 207.361 329.997 207.725 329.339 207.834L321.267 209.161C320.666 209.257 320.05 209.135 319.531 208.816C319.013 208.498 318.626 208.005 318.441 207.426C315.944 199.47 307.572 172.704 304.671 162.347C304.655 162.279 304.614 162.219 304.556 162.18C304.498 162.14 304.428 162.124 304.358 162.134C304.289 162.144 304.225 162.179 304.181 162.234C304.137 162.288 304.115 162.357 304.119 162.427C304.264 172.3 304.614 197.488 304.738 206.188L304.751 207.125C304.756 207.759 304.522 208.373 304.096 208.844C303.67 209.315 303.082 209.609 302.449 209.669L294.665 210.372C294.587 210.379 294.508 210.382 294.43 210.381Z" fill="#2F2E41"/>
<path d="M296.018 38.4123C293.608 39.8413 292.165 42.4666 291.338 45.1429C289.805 50.0895 288.883 55.2039 288.591 60.373L287.716 75.8489L276.889 116.881C286.273 124.799 291.686 122.999 304.319 116.522C316.951 110.045 318.395 118.681 318.395 118.681L320.921 83.769L324.53 45.6188C323.719 44.646 322.802 43.7669 321.796 42.9979C318.46 40.4105 314.579 38.6119 310.445 37.7376C306.311 36.8634 302.032 36.9362 297.93 37.9507L296.018 38.4123Z" fill="#E6E6E6"/>
<path d="M292.501 86.3287C292.792 86.4373 293.074 86.5686 293.345 86.7214L318.283 74.2723L318.697 67.5286L328.984 66.8213L329.535 82.194L296.209 93.1859C295.937 94.3505 295.316 95.405 294.429 96.209C293.541 97.013 292.429 97.5285 291.24 97.6868C290.052 97.8451 288.843 97.6388 287.775 97.0953C286.707 96.5518 285.83 95.6969 285.262 94.6443C284.693 93.5917 284.459 92.3913 284.591 91.2028C284.723 90.0143 285.214 88.8941 286 87.9911C286.786 87.0881 287.829 86.4452 288.991 86.1479C290.152 85.8505 291.377 85.9129 292.502 86.3267L292.501 86.3287Z" fill="#FEB8B8"/>
<path d="M324.35 45.7913C330.486 47.9506 331.567 71.3478 331.567 71.3478C324.349 67.3888 315.687 73.8672 315.687 73.8672C315.687 73.8672 313.883 67.748 311.717 59.8303C311.063 57.603 310.985 55.2469 311.49 52.9814C311.994 50.7159 313.066 48.6145 314.604 46.873C314.604 46.873 318.214 43.6308 324.35 45.7913Z" fill="#E6E6E6"/>
<path d="M317.164 22.8652C315.443 21.4924 313.096 23.9867 313.096 23.9867L311.719 11.6344C311.719 11.6344 303.116 12.6623 297.608 11.2911C292.101 9.91987 291.242 16.2693 291.242 16.2693C290.958 13.7051 290.9 11.1209 291.069 8.54667C291.414 5.45779 295.887 2.36891 303.803 0.309525C311.718 -1.74986 315.848 7.17388 315.848 7.17388C321.358 9.91747 318.887 24.2396 317.164 22.8652Z" fill="#2F2E41"/>
<path d="M342 222.128H47.5234V223H342V222.128Z" fill="#E6E6E6"/>
<path d="M75.931 206.726C77.191 207.168 78.544 207.278 79.8594 207.047C81.1748 206.816 82.4084 206.251 83.4412 205.406C86.0717 203.205 86.8964 199.578 87.5673 196.219L89.5521 186.284L85.3968 189.138C82.4085 191.19 79.353 193.307 77.2836 196.28C75.2141 199.252 74.3112 203.309 75.9737 206.525" fill="#E6E6E6"/>
<path d="M76.5727 219.445C76.0495 215.644 75.5116 211.796 75.8786 207.955C76.2045 204.544 77.248 201.212 79.3726 198.481C80.5002 197.034 81.8723 195.794 83.4272 194.817C83.8325 194.562 84.2059 195.202 83.8022 195.456C81.1112 197.152 79.0297 199.656 77.8578 202.607C76.5639 205.889 76.3563 209.467 76.5799 212.953C76.7149 215.061 77.0004 217.155 77.2883 219.247C77.311 219.342 77.2968 219.441 77.2486 219.526C77.2004 219.61 77.1219 219.674 77.0288 219.703C76.9338 219.728 76.8325 219.715 76.747 219.667C76.6615 219.618 76.5986 219.538 76.5719 219.444L76.5727 219.445Z" fill="#F2F2F2"/>
<path d="M80.3379 213.348C80.8783 214.167 81.6212 214.833 82.4948 215.283C83.3685 215.733 84.3436 215.951 85.3262 215.915C87.8513 215.796 89.9567 214.038 91.8516 212.371L97.4569 207.436L93.7474 207.259C91.0797 207.131 88.3429 207.013 85.8002 207.833C83.2576 208.653 80.9158 210.628 80.4513 213.249" fill="#E6E6E6"/>
<path d="M75.0944 221.629C77.6103 217.187 80.5328 212.249 85.7511 210.67C87.2021 210.233 88.7235 210.076 90.2335 210.209C90.7095 210.249 90.5905 210.981 90.1137 210.94C87.5826 210.731 85.0565 211.397 82.9605 212.828C80.9433 214.197 79.3731 216.1 78.044 218.119C77.2298 219.353 76.5005 220.644 75.7713 221.931C75.5389 222.342 74.86 222.046 75.0944 221.629Z" fill="#F2F2F2"/>
<path d="M252.558 93.4304H126.487C125.868 93.4297 125.275 93.1842 124.837 92.7477C124.399 92.3112 124.153 91.7195 124.152 91.1022V59.9151C124.153 59.2979 124.399 58.7061 124.837 58.2696C125.275 57.8332 125.868 57.5877 126.487 57.5869H252.558C253.177 57.5877 253.771 57.8332 254.208 58.2696C254.646 58.7061 254.892 59.2979 254.893 59.9151V91.1022C254.892 91.7195 254.646 92.3112 254.208 92.7477C253.771 93.1842 253.177 93.4297 252.558 93.4304ZM126.487 58.5184C126.116 58.5189 125.759 58.6662 125.497 58.9281C125.234 59.19 125.086 59.5451 125.086 59.9155V91.1026C125.086 91.4731 125.234 91.8282 125.497 92.0901C125.759 92.3521 126.116 92.4994 126.487 92.4997H252.558C252.93 92.4994 253.286 92.3521 253.549 92.0901C253.811 91.8282 253.959 91.4731 253.959 91.1026V59.9151C253.959 59.5447 253.811 59.1895 253.549 58.9276C253.286 58.6656 252.93 58.5183 252.558 58.518L126.487 58.5184Z" fill="#E6E6E6"/>
<path d="M168.04 67.9893C167.62 67.9893 167.217 68.1558 166.919 68.4522C166.622 68.7487 166.455 69.1507 166.455 69.57C166.455 69.9892 166.622 70.3912 166.919 70.6877C167.217 70.9841 167.62 71.1506 168.04 71.1506H242.762C243.183 71.1506 243.586 70.9841 243.883 70.6877C244.18 70.3912 244.347 69.9892 244.347 69.57C244.347 69.1507 244.18 68.7487 243.883 68.4522C243.586 68.1558 243.183 67.9893 242.762 67.9893H168.04Z" fill="#E6E6E6"/>
<path d="M168.04 77.4736C167.62 77.4736 167.217 77.6402 166.919 77.9366C166.622 78.233 166.455 78.6351 166.455 79.0543C166.455 79.4735 166.622 79.8756 166.919 80.172C167.217 80.4685 167.62 80.635 168.04 80.635H200.193C200.614 80.635 201.017 80.4685 201.314 80.172C201.611 79.8756 201.778 79.4735 201.778 79.0543C201.778 78.6351 201.611 78.233 201.314 77.9366C201.017 77.6402 200.614 77.4736 200.193 77.4736H168.04Z" fill="#E6E6E6"/>
<path d="M146.165 83.724C151.418 83.724 155.676 79.4779 155.676 74.2399C155.676 69.002 151.418 64.7559 146.165 64.7559C140.913 64.7559 136.655 69.002 136.655 74.2399C136.655 79.4779 140.913 83.724 146.165 83.724Z" fill="#E6E6E6"/>
<path d="M144.671 79.5111C144.352 79.5116 144.041 79.4084 143.785 79.2172L143.769 79.2052L140.431 76.6588C140.119 76.4201 139.914 76.0674 139.862 75.6782C139.811 75.2891 139.916 74.8955 140.156 74.5839C140.395 74.2723 140.749 74.0683 141.139 74.0167C141.529 73.9652 141.924 74.0704 142.236 74.3091L144.398 75.9622L149.507 69.3153C149.747 69.0041 150.1 68.8005 150.49 68.7491C150.879 68.6977 151.274 68.8028 151.586 69.0413L151.554 69.0851L151.587 69.0413C151.899 69.2802 152.103 69.6327 152.154 70.0214C152.206 70.4101 152.1 70.8033 151.861 71.1146L145.852 78.934C145.713 79.114 145.535 79.2597 145.33 79.3597C145.125 79.4597 144.901 79.5114 144.673 79.5107L144.671 79.5111Z" fill="#F08B33"/>
</g>
<defs>
<clipPath id="clip0">
<rect width="342" height="223" fill="white"/>
</clipPath>
</defs>
</svg>
