<svg width="1536" height="420" viewBox="0 0 1536 420" fill="none" xmlns="http://www.w3.org/2000/svg">
<path d="M431.834 415H386.042L314.042 320.536V415H274.298V213.4H314.042V302.392L383.162 213.4H428.954L354.362 311.32L431.834 415ZM468.212 358.264C473.204 376.312 486.74 385.336 508.82 385.336C523.028 385.336 533.78 380.536 541.076 370.936L571.028 388.216C556.82 408.76 535.892 419.032 508.244 419.032C484.436 419.032 465.332 411.832 450.932 397.432C436.532 383.032 429.332 364.888 429.332 343C429.332 321.304 436.436 303.256 450.644 288.856C464.852 274.264 483.092 266.968 505.364 266.968C526.484 266.968 543.86 274.264 557.492 288.856C571.316 303.448 578.228 321.496 578.228 343C578.228 347.8 577.748 352.888 576.788 358.264H468.212ZM467.636 329.464H541.076C538.964 319.672 534.548 312.376 527.828 307.576C521.3 302.776 513.812 300.376 505.364 300.376C495.38 300.376 487.124 302.968 480.596 308.152C474.068 313.144 469.748 320.248 467.636 329.464ZM634.431 358.264C639.423 376.312 652.959 385.336 675.039 385.336C689.247 385.336 699.999 380.536 707.295 370.936L737.247 388.216C723.039 408.76 702.111 419.032 674.463 419.032C650.655 419.032 631.551 411.832 617.151 397.432C602.751 383.032 595.551 364.888 595.551 343C595.551 321.304 602.655 303.256 616.863 288.856C631.071 274.264 649.311 266.968 671.583 266.968C692.703 266.968 710.079 274.264 723.711 288.856C737.535 303.448 744.447 321.496 744.447 343C744.447 347.8 743.967 352.888 743.007 358.264H634.431ZM633.855 329.464H707.295C705.183 319.672 700.767 312.376 694.047 307.576C687.519 302.776 680.031 300.376 671.583 300.376C661.599 300.376 653.343 302.968 646.815 308.152C640.287 313.144 635.967 320.248 633.855 329.464Z" fill="#F08B33"/>
<path d="M879.535 213.4H916.687V415H879.535V398.008C868.591 412.024 853.039 419.032 832.879 419.032C813.487 419.032 796.879 411.736 783.055 397.144C769.423 382.36 762.607 364.312 762.607 343C762.607 321.688 769.423 303.736 783.055 289.144C796.879 274.36 813.487 266.968 832.879 266.968C853.039 266.968 868.591 273.976 879.535 287.992V213.4ZM810.991 372.376C818.671 379.864 828.271 383.608 839.791 383.608C851.311 383.608 860.815 379.864 868.303 372.376C875.791 364.696 879.535 354.904 879.535 343C879.535 331.096 875.791 321.4 868.303 313.912C860.815 306.232 851.311 302.392 839.791 302.392C828.271 302.392 818.671 306.232 810.991 313.912C803.503 321.4 799.759 331.096 799.759 343C799.759 354.904 803.503 364.696 810.991 372.376ZM1073.35 397.144C1058.57 411.736 1040.52 419.032 1019.21 419.032C997.896 419.032 979.848 411.736 965.064 397.144C950.472 382.36 943.176 364.312 943.176 343C943.176 321.688 950.472 303.736 965.064 289.144C979.848 274.36 997.896 266.968 1019.21 266.968C1040.52 266.968 1058.57 274.36 1073.35 289.144C1088.14 303.736 1095.53 321.688 1095.53 343C1095.53 364.312 1088.14 382.36 1073.35 397.144ZM991.272 371.512C998.76 379 1008.07 382.744 1019.21 382.744C1030.34 382.744 1039.66 379 1047.14 371.512C1054.63 364.024 1058.38 354.52 1058.38 343C1058.38 331.48 1054.63 321.976 1047.14 314.488C1039.66 307 1030.34 303.256 1019.21 303.256C1008.07 303.256 998.76 307 991.272 314.488C983.976 321.976 980.328 331.48 980.328 343C980.328 354.52 983.976 364.024 991.272 371.512ZM1152.84 311.896C1152.84 315.736 1155.34 318.904 1160.33 321.4C1165.51 323.704 1171.75 325.816 1179.05 327.736C1186.35 329.464 1193.64 331.768 1200.94 334.648C1208.23 337.336 1214.38 341.944 1219.37 348.472C1224.55 355 1227.15 363.16 1227.15 372.952C1227.15 387.736 1221.58 399.16 1210.44 407.224C1199.5 415.096 1185.77 419.032 1169.26 419.032C1139.69 419.032 1119.53 407.608 1108.78 384.76L1141.03 366.616C1145.26 379.096 1154.67 385.336 1169.26 385.336C1182.51 385.336 1189.13 381.208 1189.13 372.952C1189.13 369.112 1186.54 366.04 1181.35 363.736C1176.36 361.24 1170.22 359.032 1162.92 357.112C1155.63 355.192 1148.33 352.792 1141.03 349.912C1133.74 347.032 1127.5 342.52 1122.31 336.376C1117.32 330.04 1114.83 322.168 1114.83 312.76C1114.83 298.552 1120.01 287.416 1130.38 279.352C1140.94 271.096 1153.99 266.968 1169.55 266.968C1181.26 266.968 1191.91 269.656 1201.51 275.032C1211.11 280.216 1218.7 287.704 1224.27 297.496L1192.59 314.776C1187.98 304.984 1180.3 300.088 1169.55 300.088C1164.75 300.088 1160.71 301.144 1157.45 303.256C1154.38 305.368 1152.84 308.248 1152.84 311.896ZM1288.23 411.544C1283.43 416.344 1277.67 418.744 1270.95 418.744C1264.23 418.744 1258.47 416.344 1253.67 411.544C1248.87 406.744 1246.47 400.984 1246.47 394.264C1246.47 387.544 1248.87 381.784 1253.67 376.984C1258.47 372.184 1264.23 369.784 1270.95 369.784C1277.67 369.784 1283.43 372.184 1288.23 376.984C1293.03 381.784 1295.43 387.544 1295.43 394.264C1295.43 400.984 1293.03 406.744 1288.23 411.544Z" fill="white"/>
</svg>
